Junicode.glyphspackage
{
glyphname = numbersign;
layers = (
{
layerId = master01;
shapes = (
{
closed = 1;
nodes = (
(104,-8,l),
(138,119,l),
(217,119,l),
(183,-8,l),
(226,-8,l),
(260,119,l),
(332,119,l),
(332,161,l),
(272,161,l),
(303,276,l),
(374,276,l),
(374,318,l),
(314,318,l),
(343,425,l),
(299,425,l),
(270,318,l),
(191,318,l),
(220,425,l),
(177,425,l),
(148,318,l),
(67,318,l),
(67,276,l),
(137,276,l),
(106,161,l),
(25,161,l),
(25,119,l),
(95,119,l),
(60,-8,l)
);
},
{
closed = 1;
nodes = (
(180,276,l),
(259,276,l),
(228,161,l),
(149,161,l)
);
}
);
width = 332;
},
{
layerId = "75918100-ED89-42A8-B0FE-888EB9C86810";
shapes = (
{
closed = 1;
nodes = (
(103,-8,l),
(135,109,l),
(213,109,l),
(182,-8,l),
(250,-8,l),
(282,109,l),
(356,109,l),
(356,166,l),
(297,166,l),
(326,271,l),
(398,271,l),
(398,328,l),
(341,328,l),
(368,425,l),
(299,425,l),
(272,328,l),
(194,328,l),
(220,425,l),
(153,425,l),
(126,328,l),
(42,328,l),
(42,271,l),
(111,271,l),
(82,166,l),
(0,166,l),
(0,109,l),
(67,109,l),
(36,-8,l)
);
},
{
closed = 1;
nodes = (
(179,271,l),
(257,271,l),
(228,166,l),
(150,166,l)
);
}
);
width = 356;
},
{
layerId = "6ABD9449-5E80-4451-809E-12ADEB9E9AB4";
shapes = (
{
closed = 1;
nodes = (
(104,-8,l),
(139,122,l),
(219,122,l),
(184,-8,l),
(218,-8,l),
(253,122,l),
(324,122,l),
(324,159,l),
(264,159,l),
(295,278,l),
(366,278,l),
(366,315,l),
(305,315,l),
(335,425,l),
(299,425,l),
(269,315,l),
(190,315,l),
(220,425,l),
(185,425,l),
(155,315,l),
(75,315,l),
(75,278,l),
(146,278,l),
(114,159,l),
(33,159,l),
(33,122,l),
(104,122,l),
(68,-8,l)
);
},
{
closed = 1;
nodes = (
(181,278,l),
(260,278,l),
(228,159,l),
(148,159,l)
);
}
);
width = 324;
},
{
layerId = "70B83247-6FA0-4662-9656-C86DD2A17D3B";
shapes = (
{
closed = 1;
nodes = (
(90,-8,l),
(117,116,l),
(180,116,l),
(153,-8,l),
(195,-8,l),
(222,116,l),
(280,116,l),
(280,162,l),
(232,162,l),
(256,275,l),
(313,275,l),
(313,321,l),
(266,321,l),
(289,425,l),
(246,425,l),
(223,321,l),
(161,321,l),
(183,425,l),
(141,425,l),
(119,321,l),
(53,321,l),
(53,275,l),
(109,275,l),
(84,162,l),
(19,162,l),
(19,116,l),
(75,116,l),
(48,-8,l)
);
},
{
closed = 1;
nodes = (
(151,275,l),
(214,275,l),
(189,162,l),
(126,162,l)
);
}
);
width = 280;
},
{
layerId = "9E6FDE2E-55A6-44A9-9556-F1822294BF26";
shapes = (
{
closed = 1;
nodes = (
(118,-8,l),
(160,122,l),
(255,122,l),
(213,-8,l),
(257,-8,l),
(299,122,l),
(384,122,l),
(384,159,l),
(312,159,l),
(350,278,l),
(435,278,l),
(435,315,l),
(362,315,l),
(397,425,l),
(352,425,l),
(317,315,l),
(221,315,l),
(257,425,l),
(213,425,l),
(177,315,l),
(81,315,l),
(81,278,l),
(165,278,l),
(127,159,l),
(30,159,l),
(30,122,l),
(116,122,l),
(72,-8,l)
);
},
{
closed = 1;
nodes = (
(209,278,l),
(305,278,l),
(267,159,l),
(171,159,l)
);
}
);
width = 384;
},
{
layerId = "00F4936D-6309-4DEC-83B3-42806ED1A477";
shapes = (
{
closed = 1;
nodes = (
(104,-8,l),
(138,119,l),
(217,119,l),
(183,-8,l),
(226,-8,l),
(260,119,l),
(332,119,l),
(332,161,l),
(272,161,l),
(303,276,l),
(374,276,l),
(374,318,l),
(314,318,l),
(343,425,l),
(299,425,l),
(270,318,l),
(191,318,l),
(220,425,l),
(177,425,l),
(148,318,l),
(67,318,l),
(67,276,l),
(137,276,l),
(106,161,l),
(25,161,l),
(25,119,l),
(95,119,l),
(60,-8,l)
);
},
{
closed = 1;
nodes = (
(180,276,l),
(259,276,l),
(228,161,l),
(149,161,l)
);
}
);
width = 332;
}
);
unicode = 35;
userData = {
KernOnSpecialSpacing = {
L = NoKerning;
R = NoKerning;
};
};
}
{
glyphname = percent;
layers = (
{
layerId = master01;
shapes = (
{
closed = 1;
nodes = (
(437,415,ls),
(441,422,o),
(410,440,o),
(406,433,cs),
(137,-14,ls),
(133,-21,o),
(164,-40,o),
(168,-33,cs)
);
},
{
closed = 1;
nodes = (
(196,162,o),
(239,213,o),
(239,293,cs),
(239,352,o),
(209,425,o),
(133,425,cs),
(71,425,o),
(27,369,o),
(27,293,cs),
(27,235,o),
(60,162,o),
(133,162,cs)
);
},
{
closed = 1;
nodes = (
(116,190,o),
(91,204,o),
(91,294,cs),
(91,363,o),
(105,398,o),
(133,398,cs),
(158,398,o),
(176,360,o),
(176,294,cs),
(176,225,o),
(162,190,o),
(133,190,cs)
);
},
{
closed = 1;
nodes = (
(508,-13,o),
(550,41,o),
(550,119,cs),
(550,178,o),
(521,249,o),
(444,249,cs),
(381,249,o),
(338,192,o),
(338,119,cs),
(338,60,o),
(371,-13,o),
(444,-13,cs)
);
},
{
closed = 1;
nodes = (
(417,15,o),
(402,50,o),
(402,119,cs),
(402,184,o),
(417,223,o),
(444,223,cs),
(470,223,o),
(488,185,o),
(488,119,cs),
(488,50,o),
(474,15,o),
(444,15,cs)
);
}
);
width = 577;
},
{
layerId = "75918100-ED89-42A8-B0FE-888EB9C86810";
shapes = (
{
closed = 1;
nodes = (
(502,413,ls),
(506,419,o),
(472,442,o),
(468,436,cs),
(147,-9,ls),
(140,-18,o),
(174,-40,o),
(180,-32,cs)
);
},
{
closed = 1;
nodes = (
(213,162,o),
(270,209,o),
(270,293,cs),
(270,356,o),
(227,425,o),
(142,425,cs),
(69,425,o),
(15,371,o),
(15,293,cs),
(15,230,o),
(58,162,o),
(142,162,cs)
);
},
{
closed = 1;
nodes = (
(109,190,o),
(92,224,o),
(92,294,cs),
(92,366,o),
(111,397,o),
(141,397,cs),
(176,397,o),
(195,364,o),
(195,293,cs),
(195,218,o),
(178,190,o),
(143,190,cs)
);
},
{
closed = 1;
nodes = (
(583,-13,o),
(635,37,o),
(635,119,cs),
(635,188,o),
(594,250,o),
(509,250,cs),
(436,250,o),
(381,197,o),
(381,119,cs),
(381,57,o),
(426,-13,o),
(509,-13,cs)
);
},
{
closed = 1;
nodes = (
(475,15,o),
(458,49,o),
(458,119,cs),
(458,179,o),
(475,222,o),
(509,222,cs),
(553,222,o),
(561,178,o),
(561,118,cs),
(561,48,o),
(544,15,o),
(509,15,cs)
);
}
);
width = 649;
},
{
layerId = "6ABD9449-5E80-4451-809E-12ADEB9E9AB4";
shapes = (
{
closed = 1;
nodes = (
(415,416,ls),
(419,424,o),
(389,438,o),
(386,432,cs),
(136,-14,ls),
(132,-21,o),
(160,-38,o),
(164,-30,cs)
);
},
{
closed = 1;
nodes = (
(192,162,o),
(230,215,o),
(230,293,cs),
(230,350,o),
(203,425,o),
(132,425,cs),
(72,425,o),
(32,368,o),
(32,293,cs),
(32,237,o),
(61,162,o),
(132,162,cs)
);
},
{
closed = 1;
nodes = (
(118,190,o),
(92,197,o),
(92,294,cs),
(92,362,o),
(104,397,o),
(132,397,cs),
(154,397,o),
(171,358,o),
(171,294,cs),
(171,227,o),
(158,190,o),
(131,190,cs)
);
},
{
closed = 1;
nodes = (
(483,-13,o),
(524,41,o),
(524,119,cs),
(524,174,o),
(497,250,o),
(424,250,cs),
(363,250,o),
(324,191,o),
(324,119,cs),
(324,62,o),
(354,-13,o),
(424,-13,cs)
);
},
{
closed = 1;
nodes = (
(398,15,o),
(384,49,o),
(384,119,cs),
(384,185,o),
(397,222,o),
(424,222,cs),
(444,222,o),
(464,187,o),
(464,119,cs),
(464,50,o),
(451,15,o),
(424,15,cs)
);
}
);
width = 556;
},
{
layerId = "70B83247-6FA0-4662-9656-C86DD2A17D3B";
shapes = (
{
closed = 1;
nodes = (
(372,414,ls),
(374,420,o),
(350,435,o),
(346,429,cs),
(115,-16,ls),
(113,-23,o),
(137,-38,o),
(141,-31,cs)
);
},
{
closed = 1;
nodes = (
(166,162,o),
(204,212,o),
(204,293,cs),
(204,353,o),
(176,425,o),
(113,425,cs),
(59,425,o),
(22,369,o),
(22,293,cs),
(22,234,o),
(51,162,o),
(113,162,cs)
);
},
{
closed = 1;
nodes = (
(94,190,o),
(76,209,o),
(76,294,cs),
(76,364,o),
(89,397,o),
(113,397,cs),
(135,397,o),
(150,360,o),
(150,294,cs),
(150,222,o),
(137,190,o),
(113,190,cs)
);
},
{
closed = 1;
nodes = (
(432,-13,o),
(469,39,o),
(469,119,cs),
(469,180,o),
(442,250,o),
(378,250,cs),
(324,250,o),
(287,194,o),
(287,119,cs),
(287,60,o),
(317,-13,o),
(378,-13,cs)
);
},
{
closed = 1;
nodes = (
(354,15,o),
(341,50,o),
(341,119,cs),
(341,183,o),
(354,222,o),
(378,222,cs),
(404,222,o),
(416,183,o),
(416,119,cs),
(416,49,o),
(403,15,o),
(378,15,cs)
);
}
);
width = 491;
},
{
layerId = "9E6FDE2E-55A6-44A9-9556-F1822294BF26";
shapes = (
{
closed = 1;
nodes = (
(500,416,ls),
(505,423,o),
(470,441,o),
(466,435,cs),
(160,-11,ls),
(155,-18,o),
(189,-38,o),
(194,-30,cs)
);
},
{
closed = 1;
nodes = (
(226,162,o),
(274,215,o),
(274,293,cs),
(274,351,o),
(240,425,o),
(153,425,cs),
(81,425,o),
(32,368,o),
(32,293,cs),
(32,237,o),
(68,162,o),
(153,162,cs)
);
},
{
closed = 1;
nodes = (
(136,190,o),
(105,198,o),
(105,294,cs),
(105,362,o),
(120,397,o),
(153,397,cs),
(182,397,o),
(201,359,o),
(201,294,cs),
(201,226,o),
(185,190,o),
(153,190,cs)
);
},
{
closed = 1;
nodes = (
(582,-13,o),
(631,41,o),
(631,119,cs),
(631,175,o),
(598,250,o),
(510,250,cs),
(435,250,o),
(388,191,o),
(388,119,cs),
(388,61,o),
(425,-13,o),
(510,-13,cs)
);
},
{
closed = 1;
nodes = (
(478,15,o),
(462,49,o),
(462,119,cs),
(462,185,o),
(477,222,o),
(510,222,cs),
(535,222,o),
(559,187,o),
(559,119,cs),
(559,50,o),
(543,15,o),
(510,15,cs)
);
}
);
width = 663;
},
{
layerId = "00F4936D-6309-4DEC-83B3-42806ED1A477";
shapes = (
{
closed = 1;
nodes = (
(437,415,ls),
(441,422,o),
(410,440,o),
(406,433,cs),
(137,-14,ls),
(133,-21,o),
(164,-40,o),
(168,-33,cs)
);
},
{
closed = 1;
nodes = (
(196,162,o),
(239,213,o),
(239,293,cs),
(239,352,o),
(209,425,o),
(133,425,cs),
(71,425,o),
(27,369,o),
(27,293,cs),
(27,235,o),
(60,162,o),
(133,162,cs)
);
},
{
closed = 1;
nodes = (
(116,190,o),
(91,204,o),
(91,294,cs),
(91,363,o),
(105,398,o),
(133,398,cs),
(158,398,o),
(176,360,o),
(176,294,cs),
(176,225,o),
(162,190,o),
(133,190,cs)
);
},
{
closed = 1;
nodes = (
(508,-13,o),
(550,41,o),
(550,119,cs),
(550,178,o),
(521,249,o),
(444,249,cs),
(381,249,o),
(338,192,o),
(338,119,cs),
(338,60,o),
(371,-13,o),
(444,-13,cs)
);
},
{
closed = 1;
nodes = (
(417,15,o),
(402,50,o),
(402,119,cs),
(402,184,o),
(417,223,o),
(444,223,cs),
(470,223,o),
(488,185,o),
(488,119,cs),
(488,50,o),
(474,15,o),
(444,15,cs)
);
}
);
width = 577;
}
);
unicode = 37;
userData = {
KernOnSpecialSpacing = {
L = NoKerning;
R = NoKerning;
};
};
}
{
glyphname = plus;
kernLeft = KO_hyphen;
kernRight = KO_equal;
layers = (
{
layerId = master01;
shapes = (
{
closed = 1;
nodes = (
(280,0,l),
(280,181,l),
(443,181,l),
(443,230,l),
(280,230,l),
(280,394,l),
(221,394,l),
(221,230,l),
(58,230,l),
(58,181,l),
(221,181,l),
(221,0,l)
);
}
);
width = 500;
},
{
layerId = "75918100-ED89-42A8-B0FE-888EB9C86810";
shapes = (
{
closed = 1;
nodes = (
(305,0,l),
(305,177,l),
(461,177,l),
(461,249,l),
(305,249,l),
(305,408,l),
(217,408,l),
(217,249,l),
(60,249,l),
(60,177,l),
(217,177,l),
(217,0,l)
);
}
);
width = 519;
},
{
layerId = "6ABD9449-5E80-4451-809E-12ADEB9E9AB4";
shapes = (
{
closed = 1;
nodes = (
(271,0,l),
(271,183,l),
(437,183,l),
(437,224,l),
(271,224,l),
(271,389,l),
(223,389,l),
(223,224,l),
(58,224,l),
(58,183,l),
(223,183,l),
(223,0,l)
);
}
);
width = 494;
},
{
layerId = "70B83247-6FA0-4662-9656-C86DD2A17D3B";
shapes = (
{
closed = 1;
nodes = (
(230,0,l),
(230,180,l),
(359,180,l),
(359,236,l),
(230,236,l),
(230,398,l),
(175,398,l),
(175,236,l),
(46,236,l),
(46,180,l),
(175,180,l),
(175,0,l)
);
}
);
width = 405;
},
{
layerId = "9E6FDE2E-55A6-44A9-9556-F1822294BF26";
shapes = (
{
closed = 1;
nodes = (
(329,0,l),
(329,183,l),
(526,183,l),
(526,224,l),
(329,224,l),
(329,390,l),
(268,390,l),
(268,224,l),
(70,224,l),
(70,183,l),
(268,183,l),
(268,0,l)
);
}
);
width = 595;
},
{
layerId = "00F4936D-6309-4DEC-83B3-42806ED1A477";
shapes = (
{
closed = 1;
nodes = (
(280,0,l),
(280,181,l),
(443,181,l),
(443,230,l),
(280,230,l),
(280,394,l),
(221,394,l),
(221,230,l),
(58,230,l),
(58,181,l),
(221,181,l),
(221,0,l)
);
}
);
width = 500;
}
);
unicode = 43;
userData = {
KernOnSpecialSpacing = {
L = math;
R = math;
};
};
}
{
glyphname = hyphen;
kernLeft = KO_hyphen;
kernRight = KO_hyphen;
layers = (
{
layerId = master01;
shapes = (
{
closed = 1;
nodes = (
(281,238,ls),
(288,238,o),
(291,247,o),
(291,266,cs),
(291,285,o),
(288,294,o),
(282,294,cs),
(60,294,ls),
(55,294,o),
(52,285,o),
(52,266,cs),
(52,247,o),
(55,238,o),
(60,238,cs)
);
}
);
width = 344;
},
{
layerId = "75918100-ED89-42A8-B0FE-888EB9C86810";
shapes = (
{
closed = 1;
nodes = (
(280,234,ls),
(287,234,o),
(291,245,o),
(291,266,cs),
(291,287,o),
(287,298,o),
(281,298,cs),
(61,298,ls),
(55,298,o),
(52,287,o),
(52,266,cs),
(52,245,o),
(55,234,o),
(61,234,cs)
);
}
);
width = 344;
},
{
layerId = "6ABD9449-5E80-4451-809E-12ADEB9E9AB4";
shapes = (
{
closed = 1;
nodes = (
(283,239,ls),
(289,239,o),
(291,248,o),
(291,266,cs),
(291,284,o),
(289,292,o),
(284,292,cs),
(60,292,ls),
(54,292,o),
(52,284,o),
(52,266,cs),
(52,248,o),
(54,239,o),
(60,239,cs)
);
}
);
width = 344;
},
{
layerId = "70B83247-6FA0-4662-9656-C86DD2A17D3B";
shapes = (
{
closed = 1;
nodes = (
(231,237,ls),
(236,237,o),
(239,248,o),
(239,266,cs),
(239,284,o),
(236,295,o),
(232,295,cs),
(58,295,ls),
(54,295,o),
(52,287,o),
(52,266,cs),
(52,245,o),
(54,237,o),
(58,237,cs)
);
}
);
width = 292;
},
{
layerId = "9E6FDE2E-55A6-44A9-9556-F1822294BF26";
shapes = (
{
closed = 1;
nodes = (
(331,239,ls),
(340,239,o),
(343,246,o),
(343,266,cs),
(343,286,o),
(340,293,o),
(332,293,cs),
(62,293,ls),
(56,293,o),
(52,283,o),
(52,266,cs),
(52,249,o),
(56,239,o),
(62,239,cs)
);
}
);
width = 396;
},
{
layerId = "00F4936D-6309-4DEC-83B3-42806ED1A477";
shapes = (
{
closed = 1;
nodes = (
(281,238,ls),
(288,238,o),
(291,247,o),
(291,266,cs),
(291,285,o),
(288,294,o),
(282,294,cs),
(60,294,ls),
(55,294,o),
(52,285,o),
(52,266,cs),
(52,247,o),
(55,238,o),
(60,238,cs)
);
}
);
width = 344;
}
);
unicode = 45;
userData = {
KernOnSpecialSpacing = {
L = hyphen;
R = hyphen;
};
};
}
{
glyphname = slash;
kernLeft = KO_slash;
kernRight = KO_slash;
layers = (
{
guides = (
{
pos = (165,-307);
},
{
pos = (841,1479);
}
);
layerId = master01;
shapes = (
{
closed = 1;
nodes = (
(410,698,ls),
(414,707,o),
(364,728,o),
(360,719,cs),
(2,-126,ls),
(-2,-135,o),
(46,-157,o),
(50,-148,cs)
);
}
);
width = 412;
},
{
layerId = "75918100-ED89-42A8-B0FE-888EB9C86810";
shapes = (
{
closed = 1;
nodes = (
(422,689,ls),
(426,698,o),
(359,726,o),
(355,717,cs),
(2,-116,ls),
(-2,-125,o),
(64,-153,o),
(68,-144,cs)
);
}
);
width = 424;
},
{
layerId = "6ABD9449-5E80-4451-809E-12ADEB9E9AB4";
shapes = (
{
closed = 1;
nodes = (
(406,701,ls),
(410,710,o),
(366,728,o),
(363,720,cs),
(2,-129,ls),
(-2,-138,o),
(40,-158,o),
(44,-149,cs)
);
}
);
width = 408;
},
{
layerId = "70B83247-6FA0-4662-9656-C86DD2A17D3B";
shapes = (
{
closed = 1;
nodes = (
(355,701,ls),
(357,709,o),
(308,727,o),
(305,718,cs),
(2,-124,ls),
(-2,-132,o),
(48,-150,o),
(51,-141,cs)
);
}
);
width = 357;
},
{
layerId = "9E6FDE2E-55A6-44A9-9556-F1822294BF26";
shapes = (
{
closed = 1;
nodes = (
(465,696,ls),
(469,704,o),
(420,729,o),
(416,720,cs),
(2,-128,ls),
(-2,-137,o),
(45,-163,o),
(49,-155,cs)
);
}
);
width = 467;
},
{
guides = (
{
pos = (165,-307);
},
{
pos = (841,1479);
}
);
layerId = "00F4936D-6309-4DEC-83B3-42806ED1A477";
shapes = (
{
closed = 1;
nodes = (
(410,698,ls),
(414,707,o),
(364,728,o),
(360,719,cs),
(2,-126,ls),
(-2,-135,o),
(46,-157,o),
(50,-148,cs)
);
}
);
width = 412;
}
);
unicode = 47;
userData = {
KernOnSpecialSpacing = {
L = slash;
R = slash;
};
};
}
{
glyphname = zero;
kernLeft = zero.osf;
kernRight = zero.osf;
layers = (
{
layerId = master01;
shapes = (
{
closed = 1;
nodes = (
(379,-11,o),
(473,87,o),
(473,208,cs),
(473,330,o),
(378,426,o),
(259,426,cs),
(140,426,o),
(45,329,o),
(45,208,cs),
(45,86,o),
(140,-11,o),
(259,-11,cs)
);
},
{
closed = 1;
nodes = (
(174,32,o),
(106,112,o),
(106,206,cs),
(106,299,o),
(172,381,o),
(259,381,cs),
(345,381,o),
(412,300,o),
(412,206,cs),
(412,113,o),
(346,32,o),
(259,32,cs)
);
}
);
width = 514;
},
{
layerId = "75918100-ED89-42A8-B0FE-888EB9C86810";
shapes = (
{
closed = 1;
nodes = (
(390,-11,o),
(510,67,o),
(510,208,cs),
(510,322,o),
(416,425,o),
(278,425,cs),
(171,425,o),
(46,347,o),
(46,208,cs),
(46,131,o),
(109,-11,o),
(278,-11,cs)
);
},
{
closed = 1;
nodes = (
(205,57,o),
(144,126,o),
(144,206,cs),
(144,285,o),
(203,354,o),
(278,354,cs),
(354,354,o),
(413,288,o),
(413,206,cs),
(413,126,o),
(354,57,o),
(278,57,cs)
);
}
);
width = 532;
},
{
layerId = "6ABD9449-5E80-4451-809E-12ADEB9E9AB4";
shapes = (
{
closed = 1;
nodes = (
(388,-11,o),
(474,93,o),
(474,208,cs),
(474,333,o),
(379,426,o),
(266,426,cs),
(142,426,o),
(58,323,o),
(58,208,cs),
(58,72,o),
(163,-11,o),
(266,-11,cs)
);
},
{
closed = 1;
nodes = (
(176,23,o),
(107,107,o),
(107,206,cs),
(107,303,o),
(175,390,o),
(266,390,cs),
(355,390,o),
(425,304,o),
(425,206,cs),
(425,109,o),
(356,23,o),
(266,23,cs)
);
}
);
width = 508;
},
{
layerId = "70B83247-6FA0-4662-9656-C86DD2A17D3B";
shapes = (
{
closed = 1;
nodes = (
(314,-11,o),
(397,81,o),
(397,208,cs),
(397,328,o),
(321,425,o),
(221,425,cs),
(129,425,o),
(44,334,o),
(44,208,cs),
(44,100,o),
(110,-11,o),
(221,-11,cs)
);
},
{
closed = 1;
nodes = (
(156,40,o),
(104,117,o),
(104,206,cs),
(104,295,o),
(155,373,o),
(221,373,cs),
(286,373,o),
(337,296,o),
(337,206,cs),
(337,117,o),
(286,40,o),
(221,40,cs)
);
}
);
width = 422;
},
{
layerId = "9E6FDE2E-55A6-44A9-9556-F1822294BF26";
shapes = (
{
closed = 1;
nodes = (
(444,-11,o),
(549,93,o),
(549,208,cs),
(549,333,o),
(436,426,o),
(298,426,cs),
(150,426,o),
(47,324,o),
(47,208,cs),
(47,73,o),
(169,-11,o),
(298,-11,cs)
);
},
{
closed = 1;
nodes = (
(191,24,o),
(109,108,o),
(109,206,cs),
(109,303,o),
(190,389,o),
(298,389,cs),
(404,389,o),
(487,303,o),
(487,206,cs),
(487,109,o),
(405,24,o),
(298,24,cs)
);
}
);
width = 605;
},
{
layerId = "00F4936D-6309-4DEC-83B3-42806ED1A477";
shapes = (
{
closed = 1;
nodes = (
(379,-11,o),
(473,87,o),
(473,208,cs),
(473,330,o),
(378,426,o),
(259,426,cs),
(140,426,o),
(45,329,o),
(45,208,cs),
(45,86,o),
(140,-11,o),
(259,-11,cs)
);
},
{
closed = 1;
nodes = (
(174,32,o),
(106,112,o),
(106,206,cs),
(106,299,o),
(172,381,o),
(259,381,cs),
(345,381,o),
(412,300,o),
(412,206,cs),
(412,113,o),
(346,32,o),
(259,32,cs)
);
}
);
width = 514;
}
);
unicode = 48;
userData = {
KernOnSpecialSpacing = {
L = NoKerning;
R = NoKerning;
};
};
}
{
glyphname = seven;
kernLeft = seven.osf;
kernRight = seven.osf;
layers = (
{
layerId = master01;
shapes = (
{
closed = 1;
nodes = (
(102,-197,o),
(115,-197,cs),
(120,-197,o),
(123,-195,o),
(125,-192,cs),
(395,383,ls),
(398,389,o),
(399,395,o),
(399,400,cs),
(399,411,o),
(391,417,o),
(376,417,cs),
(80,417,ls),
(65,417,o),
(57,411,o),
(55,399,cs),
(54,374,o),
(47,345,o),
(34,311,c),
(34,302,o),
(54,293,o),
(59,301,cs),
(84,343,o),
(94,359,o),
(133,359,cs),
(307,359,ls),
(332,359,o),
(334,346,o),
(325,327,cs),
(86,-176,ls),
(82,-185,o)
);
}
);
width = 417;
},
{
layerId = "75918100-ED89-42A8-B0FE-888EB9C86810";
shapes = (
{
closed = 1;
nodes = (
(99,-200,o),
(116,-200,cs),
(121,-200,o),
(124,-198,o),
(126,-195,cs),
(391,368,ls),
(395,376,o),
(397,384,o),
(397,391,cs),
(397,406,o),
(387,417,o),
(361,417,cs),
(75,417,ls),
(56,417,o),
(43,407,o),
(39,386,cs),
(32,349,o),
(24,320,o),
(16,300,c),
(16,284,o),
(47,274,o),
(54,286,cs),
(73,320,o),
(78,327,o),
(109,327,cs),
(288,327,ls),
(306,327,o),
(307,318,o),
(302,308,cs),
(74,-170,ls),
(68,-181,o)
);
}
);
width = 408;
},
{
layerId = "6ABD9449-5E80-4451-809E-12ADEB9E9AB4";
shapes = (
{
closed = 1;
nodes = (
(93,-194,o),
(104,-194,cs),
(107,-194,o),
(110,-193,o),
(111,-191,cs),
(383,388,ls),
(386,394,o),
(387,399,o),
(387,403,cs),
(387,412,o),
(381,417,o),
(368,417,cs),
(69,417,ls),
(55,417,o),
(48,413,o),
(48,403,cs),
(48,382,o),
(41,353,o),
(27,315,c),
(27,306,o),
(43,298,o),
(48,306,cs),
(75,351,o),
(86,370,o),
(128,370,cs),
(301,370,ls),
(326,370,o),
(330,355,o),
(321,337,cs),
(77,-178,ls),
(74,-185,o)
);
}
);
width = 413;
},
{
layerId = "70B83247-6FA0-4662-9656-C86DD2A17D3B";
shapes = (
{
closed = 1;
nodes = (
(79,-196,o),
(90,-196,cs),
(94,-196,o),
(97,-195,o),
(98,-193,cs),
(313,379,ls),
(315,385,o),
(316,391,o),
(316,396,cs),
(316,408,o),
(310,417,o),
(294,417,cs),
(61,417,ls),
(46,417,o),
(39,409,o),
(38,396,cs),
(34,366,o),
(30,337,o),
(19,304,c),
(19,296,o),
(41,290,o),
(44,296,cs),
(61,336,o),
(68,349,o),
(97,349,cs),
(238,349,ls),
(255,349,o),
(256,335,o),
(251,321,cs),
(61,-178,ls),
(58,-186,o)
);
}
);
width = 333;
},
{
layerId = "9E6FDE2E-55A6-44A9-9556-F1822294BF26";
shapes = (
{
closed = 1;
nodes = (
(130,-195,o),
(143,-195,cs),
(147,-195,o),
(151,-194,o),
(152,-191,cs),
(478,388,ls),
(481,394,o),
(483,399,o),
(483,403,cs),
(483,412,o),
(476,417,o),
(458,417,cs),
(101,417,ls),
(85,417,o),
(75,414,o),
(74,402,cs),
(74,382,o),
(65,352,o),
(49,315,c),
(49,306,o),
(69,297,o),
(75,305,cs),
(108,350,o),
(121,369,o),
(171,369,cs),
(378,369,ls),
(406,369,o),
(412,352,o),
(401,333,cs),
(112,-175,ls),
(107,-183,o)
);
}
);
width = 500;
},
{
layerId = "00F4936D-6309-4DEC-83B3-42806ED1A477";
shapes = (
{
closed = 1;
nodes = (
(102,-197,o),
(115,-197,cs),
(120,-197,o),
(123,-195,o),
(125,-192,cs),
(395,383,ls),
(398,389,o),
(399,395,o),
(399,400,cs),
(399,411,o),
(391,417,o),
(376,417,cs),
(80,417,ls),
(65,417,o),
(57,411,o),
(55,399,cs),
(54,374,o),
(47,345,o),
(34,311,c),
(34,302,o),
(54,293,o),
(59,301,cs),
(84,343,o),
(94,359,o),
(133,359,cs),
(307,359,ls),
(332,359,o),
(334,346,o),
(325,327,cs),
(86,-176,ls),
(82,-185,o)
);
}
);
width = 417;
}
);
unicode = 55;
userData = {
KernOnSpecialSpacing = {
L = NoKerning;
R = NoKerning;
};
};
}
{
glyphname = semicolon;
kernLeft = KO_colon;
kernRight = KO_colon;
layers = (
{
layerId = master01;
shapes = (
{
closed = 1;
nodes = (
(183,301,o),
(208,325,o),
(208,359,cs),
(208,393,o),
(183,417,o),
(148,417,cs),
(114,417,o),
(89,393,o),
(89,359,cs),
(89,325,o),
(114,301,o),
(148,301,cs)
);
},
{
closed = 1;
nodes = (
(191,-118,o),
(234,-53,o),
(234,23,cs),
(234,76,o),
(198,115,o),
(150,115,cs),
(117,115,o),
(97,98,o),
(97,69,cs),
(97,44,o),
(108,26,o),
(130,16,cs),
(160,1,o),
(167,-7,o),
(167,-23,cs),
(167,-71,o),
(140,-115,o),
(88,-154,cs),
(83,-157,o),
(82,-160,o),
(88,-168,cs),
(93,-174,o),
(97,-176,o),
(102,-173,cs)
);
}
);
width = 290;
},
{
layerId = "75918100-ED89-42A8-B0FE-888EB9C86810";
shapes = (
{
closed = 1;
nodes = (
(181,268,o),
(213,299,o),
(213,343,cs),
(213,386,o),
(181,417,o),
(136,417,cs),
(91,417,o),
(59,386,o),
(59,343,cs),
(59,299,o),
(91,268,o),
(136,268,cs)
);
},
{
closed = 1;
nodes = (
(181,-140,o),
(243,-61,o),
(243,14,cs),
(243,77,o),
(202,127,o),
(149,127,cs),
(103,127,o),
(70,102,o),
(70,65,cs),
(70,33,o),
(89,3,o),
(117,-7,cs),
(135,-14,o),
(137,-19,o),
(137,-29,cs),
(137,-75,o),
(113,-125,o),
(72,-162,cs),
(67,-167,o),
(67,-169,o),
(72,-177,cs),
(76,-184,o),
(81,-186,o),
(87,-183,cs)
);
}
);
width = 282;
},
{
layerId = "6ABD9449-5E80-4451-809E-12ADEB9E9AB4";
shapes = (
{
closed = 1;
nodes = (
(189,312,o),
(211,333,o),
(211,364,cs),
(211,394,o),
(189,416,o),
(157,416,cs),
(126,416,o),
(104,394,o),
(104,364,cs),
(104,333,o),
(126,312,o),
(157,312,cs)
);
},
{
closed = 1;
nodes = (
(199,-111,o),
(238,-51,o),
(238,27,cs),
(238,77,o),
(203,115,o),
(155,115,cs),
(126,115,o),
(109,100,o),
(109,73,cs),
(109,49,o),
(117,35,o),
(139,24,cs),
(175,6,o),
(182,-2,o),
(182,-21,cs),
(182,-69,o),
(154,-112,o),
(96,-154,cs),
(91,-157,o),
(90,-159,o),
(97,-168,cs),
(102,-174,o),
(105,-176,o),
(110,-173,cs)
);
}
);
width = 300;
},
{
layerId = "70B83247-6FA0-4662-9656-C86DD2A17D3B";
shapes = (
{
closed = 1;
nodes = (
(165,301,o),
(189,325,o),
(189,359,cs),
(189,393,o),
(165,417,o),
(130,417,cs),
(95,417,o),
(71,393,o),
(71,359,cs),
(71,325,o),
(95,301,o),
(130,301,cs)
);
},
{
closed = 1;
nodes = (
(165,-123,o),
(203,-57,o),
(203,19,cs),
(203,72,o),
(173,115,o),
(135,115,cs),
(106,115,o),
(86,95,o),
(86,65,cs),
(86,39,o),
(96,19,o),
(116,7,cs),
(135,-4,o),
(140,-10,o),
(140,-25,cs),
(140,-72,o),
(119,-117,o),
(82,-154,cs),
(79,-157,o),
(79,-163,o),
(82,-169,cs),
(85,-174,o),
(89,-176,o),
(94,-173,cs)
);
}
);
width = 251;
},
{
layerId = "9E6FDE2E-55A6-44A9-9556-F1822294BF26";
shapes = (
{
closed = 1;
nodes = (
(206,301,o),
(231,325,o),
(231,359,cs),
(231,393,o),
(206,417,o),
(172,417,cs),
(137,417,o),
(113,393,o),
(113,359,cs),
(113,325,o),
(137,301,o),
(172,301,cs)
);
},
{
closed = 1;
nodes = (
(222,-115,o),
(268,-61,o),
(268,5,cs),
(268,69,o),
(226,111,o),
(164,111,cs),
(132,111,o),
(110,94,o),
(110,69,cs),
(110,45,o),
(121,31,o),
(147,20,cs),
(188,3,o),
(198,-8,o),
(198,-32,cs),
(198,-74,o),
(163,-117,o),
(96,-158,cs),
(91,-161,o),
(89,-163,o),
(97,-172,cs),
(104,-178,o),
(107,-180,o),
(113,-177,cs)
);
}
);
width = 330;
},
{
layerId = "00F4936D-6309-4DEC-83B3-42806ED1A477";
shapes = (
{
closed = 1;
nodes = (
(183,301,o),
(208,325,o),
(208,359,cs),
(208,393,o),
(183,417,o),
(148,417,cs),
(114,417,o),
(89,393,o),
(89,359,cs),
(89,325,o),
(114,301,o),
(148,301,cs)
);
},
{
closed = 1;
nodes = (
(191,-118,o),
(234,-53,o),
(234,23,cs),
(234,76,o),
(198,115,o),
(150,115,cs),
(117,115,o),
(97,98,o),
(97,69,cs),
(97,44,o),
(108,26,o),
(130,16,cs),
(160,1,o),
(167,-7,o),
(167,-23,cs),
(167,-71,o),
(140,-115,o),
(88,-154,cs),
(83,-157,o),
(82,-160,o),
(88,-168,cs),
(93,-174,o),
(97,-176,o),
(102,-173,cs)
);
}
);
width = 290;
}
);
unicode = 59;
userData = {
KernOnSpecialSpacing = {
L = "spaced-off";
R = "spaced-off";
};
};
}
{
glyphname = less;
kernLeft = KO_hyphen;
layers = (
{
layerId = master01;
shapes = (
{
closed = 1;
nodes = (
(445,56,l),
(109,214,l),
(109,199,l),
(445,355,l),
(445,413,l),
(56,228,l),
(56,183,l),
(445,-1,l)
);
}
);
width = 500;
},
{
layerId = "75918100-ED89-42A8-B0FE-888EB9C86810";
shapes = (
{
closed = 1;
nodes = (
(463,79,l),
(122,226,l),
(122,186,l),
(463,333,l),
(463,423,l),
(38,237,l),
(38,174,l),
(463,-11,l)
);
}
);
width = 500;
},
{
layerId = "6ABD9449-5E80-4451-809E-12ADEB9E9AB4";
shapes = (
{
closed = 1;
nodes = (
(439,48,l),
(104,210,l),
(104,203,l),
(439,362,l),
(439,410,l),
(62,225,l),
(62,186,l),
(439,2,l)
);
}
);
width = 500;
},
{
layerId = "70B83247-6FA0-4662-9656-C86DD2A17D3B";
shapes = (
{
closed = 1;
nodes = (
(367,63,l),
(96,217,l),
(96,195,l),
(367,349,l),
(367,416,l),
(45,230,l),
(45,180,l),
(367,-4,l)
);
}
);
width = 411;
},
{
layerId = "9E6FDE2E-55A6-44A9-9556-F1822294BF26";
shapes = (
{
closed = 1;
nodes = (
(523,49,l),
(122,210,l),
(122,203,l),
(523,361,l),
(523,410,l),
(67,226,l),
(67,186,l),
(523,2,l)
);
}
);
width = 589;
},
{
layerId = "00F4936D-6309-4DEC-83B3-42806ED1A477";
shapes = (
{
closed = 1;
nodes = (
(445,56,l),
(109,214,l),
(109,199,l),
(445,355,l),
(445,413,l),
(56,228,l),
(56,183,l),
(445,-1,l)
);
}
);
width = 500;
}
);
unicode = 60;
userData = {
KernOnSpecialSpacing = {
L = math;
R = math;
};
};
}
{
glyphname = O;
kernLeft = KO_O;
kernRight = KO_O;
layers = (
{
anchors = (
{
name = bottom;
pos = (353,0);
},
{
name = center;
pos = (344,332);
},
{
name = ogonek;
pos = (468,10);
},
{
name = ogonek_above;
pos = (339,653);
},
{
name = top;
pos = (353,663);
},
{
name = topleft;
pos = (6,663);
},
{
name = topright;
pos = (607,614);
},
{
name = zzcurly;
pos = (334,655);
}
);
layerId = master01;
shapes = (
{
closed = 1;
nodes = (
(532,-13,o),
(671,140,o),
(671,332,cs),
(671,523,o),
(532,676,o),
(356,676,cs),
(180,676,o),
(40,523,o),
(40,332,cs),
(40,140,o),
(180,-13,o),
(356,-13,cs)
);
},
{
closed = 1;
nodes = (
(229,23,o),
(134,156,o),
(134,333,cs),
(134,509,o),
(229,642,o),
(356,642,cs),
(483,642,o),
(578,509,o),
(578,333,cs),
(578,156,o),
(483,23,o),
(356,23,cs)
);
}
);
width = 711;
},
{
anchors = (
{
name = bottom;
pos = (373,0);
},
{
name = center;
pos = (358,332);
},
{
name = ogonek;
pos = (483,10);
},
{
name = ogonek_above;
pos = (347,653);
},
{
name = top;
pos = (373,663);
},
{
name = topleft;
pos = (11,663);
},
{
name = topright;
pos = (621,614);
},
{
name = zzcurly;
pos = (344,655);
}
);
layerId = "75918100-ED89-42A8-B0FE-888EB9C86810";
shapes = (
{
closed = 1;
nodes = (
(555,-13,o),
(699,135,o),
(699,332,cs),
(699,528,o),
(555,676,o),
(364,676,cs),
(172,676,o),
(28,528,o),
(28,332,cs),
(28,135,o),
(172,-13,o),
(364,-13,cs)
);
},
{
closed = 1;
nodes = (
(248,33,o),
(161,162,o),
(161,333,cs),
(161,504,o),
(248,633,o),
(364,633,cs),
(479,633,o),
(566,504,o),
(566,333,cs),
(566,162,o),
(479,33,o),
(364,33,cs)
);
}
);
width = 727;
},
{
anchors = (
{
name = bottom;
pos = (346,0);
},
{
name = center;
pos = (339,332);
},
{
name = ogonek;
pos = (459,10);
},
{
name = ogonek_above;
pos = (335,653);
},
{
name = top;
pos = (346,663);
},
{
name = topleft;
pos = (3,663);
},
{
name = topright;
pos = (601,614);
},
{
name = zzcurly;
pos = (330,655);
}
);
layerId = "6ABD9449-5E80-4451-809E-12ADEB9E9AB4";
shapes = (
{
closed = 1;
nodes = (
(523,-13,o),
(661,141,o),
(661,332,cs),
(661,522,o),
(523,676,o),
(352,676,cs),
(182,676,o),
(44,522,o),
(44,332,cs),
(44,141,o),
(182,-13,o),
(352,-13,cs)
);
},
{
closed = 1;
nodes = (
(222,20,o),
(124,154,o),
(124,333,cs),
(124,511,o),
(222,645,o),
(352,645,cs),
(483,645,o),
(581,511,o),
(581,333,cs),
(581,154,o),
(483,20,o),
(352,20,cs)
);
}
);
width = 705;
},
{
anchors = (
{
name = bottom;
pos = (291,0);
},
{
name = center;
pos = (286,332);
},
{
name = ogonek;
pos = (382,10);
},
{
name = ogonek_above;
pos = (280,653);
},
{
name = top;
pos = (293,663);
},
{
name = topleft;
pos = (11,663);
},
{
name = topright;
pos = (495,614);
},
{
name = zzcurly;
pos = (277,655);
}
);
layerId = "70B83247-6FA0-4662-9656-C86DD2A17D3B";
shapes = (
{
closed = 1;
nodes = (
(436,-13,o),
(550,140,o),
(550,332,cs),
(550,523,o),
(436,676,o),
(292,676,cs),
(148,676,o),
(34,523,o),
(34,332,cs),
(34,140,o),
(148,-13,o),
(292,-13,cs)
);
},
{
closed = 1;
nodes = (
(195,23,o),
(127,151,o),
(127,333,cs),
(127,514,o),
(195,642,o),
(292,642,cs),
(389,642,o),
(457,514,o),
(457,333,cs),
(457,151,o),
(389,23,o),
(292,23,cs)
);
}
);
width = 584;
},
{
anchors = (
{
name = bottom;
pos = (407,0);
},
{
name = center;
pos = (395,332);
},
{
name = ogonek;
pos = (539,10);
},
{
name = ogonek_above;
pos = (391,653);
},
{
name = top;
pos = (405,663);
},
{
name = topleft;
pos = (-7,663);
},
{
name = topright;
pos = (712,614);
},
{
name = zzcurly;
pos = (383,655);
}
);
layerId = "9E6FDE2E-55A6-44A9-9556-F1822294BF26";
shapes = (
{
closed = 1;
nodes = (
(620,-13,o),
(785,140,o),
(785,332,cs),
(785,523,o),
(620,676,o),
(413,676,cs),
(205,676,o),
(40,523,o),
(40,332,cs),
(40,140,o),
(205,-13,o),
(413,-13,cs)
);
},
{
closed = 1;
nodes = (
(257,23,o),
(133,160,o),
(133,333,cs),
(133,505,o),
(257,642,o),
(413,642,cs),
(569,642,o),
(692,505,o),
(692,333,cs),
(692,160,o),
(569,23,o),
(413,23,cs)
);
}
);
width = 825;
},
{
anchors = (
{
name = bottom;
pos = (353,0);
},
{
name = center;
pos = (344,332);
},
{
name = ogonek;
pos = (466,10);
},
{
name = ogonek_above;
pos = (339,653);
},
{
name = top;
pos = (353,663);
},
{
name = topleft;
pos = (6,663);
},
{
name = topright;
pos = (607,614);
},
{
name = zzcurly;
pos = (334,655);
}
);
layerId = "00F4936D-6309-4DEC-83B3-42806ED1A477";
shapes = (
{
closed = 1;
nodes = (
(532,-13,o),
(671,140,o),
(671,332,cs),
(671,523,o),
(532,676,o),
(356,676,cs),
(180,676,o),
(40,523,o),
(40,332,cs),
(40,140,o),
(180,-13,o),
(356,-13,cs)
);
},
{
closed = 1;
nodes = (
(229,23,o),
(134,156,o),
(134,333,cs),
(134,509,o),
(229,642,o),
(356,642,cs),
(483,642,o),
(578,509,o),
(578,333,cs),
(578,156,o),
(483,23,o),
(356,23,cs)
);
}
);
width = 711;
}
);
unicode = 79;
userData = {
KernOnName = O;
};
}
{
glyphname = Q;
kernLeft = KO_O;
kernRight = KO_O;
layers = (
{
anchors = (
{
name = bottom;
pos = (367,0);
},
{
name = top;
pos = (357,663);
},
{
name = zzcurly;
pos = (334,655);
}
);
layerId = master01;
shapes = (
{
closed = 1;
nodes = (
(807,-178,o),
(813,-142,o),
(801,-139,cs),
(664,-103,o),
(533,-42,o),
(476,11,c),
(598,68,o),
(671,189,o),
(671,333,cs),
(671,526,o),
(534,676,o),
(356,676,cs),
(183,676,o),
(40,521,o),
(40,333,cs),
(40,179,o),
(113,60,o),
(241,4,cs),
(429,-78,o),
(600,-133,o),
(795,-175,cs)
);
},
{
closed = 1;
nodes = (
(234,23,o),
(134,162,o),
(134,333,cs),
(134,516,o),
(224,642,o),
(356,642,cs),
(488,642,o),
(578,516,o),
(578,333,cs),
(578,153,o),
(484,23,o),
(356,23,cs)
);
}
);
width = 716;
},
{
anchors = (
{
name = bottom;
pos = (332,0);
},
{
name = top;
pos = (362,663);
},
{
name = zzcurly;
pos = (344,655);
}
);
layerId = "75918100-ED89-42A8-B0FE-888EB9C86810";
shapes = (
{
closed = 1;
nodes = (
(819,-178,o),
(835,-131,o),
(813,-125,cs),
(695,-91,o),
(611,-51,o),
(510,18,c),
(630,80,o),
(699,194,o),
(699,333,cs),
(699,521,o),
(548,676,o),
(364,676,cs),
(183,676,o),
(28,517,o),
(28,333,cs),
(26,178,o),
(109,52,o),
(245,0,cs),
(501,-98,o),
(664,-149,o),
(802,-175,cs)
);
},
{
closed = 1;
nodes = (
(255,30,o),
(161,170,o),
(161,333,cs),
(161,519,o),
(238,633,o),
(364,633,cs),
(478,634,o),
(566,503,o),
(566,333,cs),
(566,142,o),
(492,32,o),
(364,31,cs)
);
}
);
width = 727;
},
{
anchors = (
{
name = bottom;
pos = (377,0);
},
{
name = top;
pos = (355,663);
},
{
name = zzcurly;
pos = (330,655);
}
);
layerId = "6ABD9449-5E80-4451-809E-12ADEB9E9AB4";
shapes = (
{
closed = 1;
nodes = (
(802,-178,o),
(805,-146,o),
(796,-143,cs),
(653,-106,o),
(506,-39,o),
(464,9,c),
(586,64,o),
(661,188,o),
(661,333,cs),
(661,528,o),
(529,676,o),
(352,676,cs),
(182,676,o),
(44,523,o),
(44,333,cs),
(44,180,o),
(114,63,o),
(238,6,cs),
(404,-71,o),
(577,-127,o),
(792,-175,cs)
);
},
{
closed = 1;
nodes = (
(226,21,o),
(124,160,o),
(124,333,cs),
(124,515,o),
(219,645,o),
(352,645,cs),
(490,644,o),
(581,520,o),
(581,333,cs),
(581,157,o),
(481,20,o),
(352,20,cs)
);
}
);
width = 711;
},
{
anchors = (
{
name = bottom;
pos = (289,0);
},
{
name = top;
pos = (292,663);
},
{
name = zzcurly;
pos = (277,655);
}
);
layerId = "70B83247-6FA0-4662-9656-C86DD2A17D3B";
shapes = (
{
closed = 1;
nodes = (
(655,-178,o),
(663,-139,o),
(648,-134,cs),
(552,-102,o),
(448,-41,o),
(394,14,c),
(489,66,o),
(550,192,o),
(550,333,cs),
(550,521,o),
(434,676,o),
(293,676,cs),
(150,676,o),
(34,521,o),
(34,333,cs),
(34,180,o),
(96,55,o),
(199,3,cs),
(367,-82,o),
(517,-141,o),
(643,-175,cs)
);
},
{
closed = 1;
nodes = (
(197,23,o),
(127,149,o),
(127,333,cs),
(127,516,o),
(194,642,o),
(292,642,cs),
(392,642,o),
(457,520,o),
(457,333,cs),
(457,149,o),
(392,23,o),
(298,23,cs)
);
}
);
width = 581;
},
{
anchors = (
{
name = bottom;
pos = (437,0);
},
{
name = top;
pos = (415,663);
},
{
name = zzcurly;
pos = (383,655);
}
);
layerId = "9E6FDE2E-55A6-44A9-9556-F1822294BF26";
shapes = (
{
closed = 1;
nodes = (
(951,-177,o),
(957,-145,o),
(946,-143,cs),
(770,-104,o),
(610,-42,o),
(552,9,c),
(699,69,o),
(785,187,o),
(785,333,cs),
(785,531,o),
(627,676,o),
(412,676,cs),
(208,676,o),
(40,521,o),
(40,333,cs),
(40,179,o),
(123,65,o),
(276,5,cs),
(484,-74,o),
(675,-125,o),
(940,-175,cs)
);
},
{
closed = 1;
nodes = (
(264,23,o),
(133,175,o),
(133,333,cs),
(133,516,o),
(247,642,o),
(413,642,cs),
(576,642,o),
(692,511,o),
(692,333,cs),
(692,158,o),
(570,23,o),
(407,23,cs)
);
}
);
width = 843;
},
{
anchors = (
{
name = bottom;
pos = (367,0);
},
{
name = top;
pos = (357,663);
},
{
name = zzcurly;
pos = (334,655);
}
);
layerId = "00F4936D-6309-4DEC-83B3-42806ED1A477";
shapes = (
{
closed = 1;
nodes = (
(807,-178,o),
(813,-142,o),
(801,-139,cs),
(664,-103,o),
(533,-42,o),
(476,11,c),
(598,68,o),
(671,189,o),
(671,333,cs),
(671,526,o),
(534,676,o),
(356,676,cs),
(183,676,o),
(40,521,o),
(40,333,cs),
(40,179,o),
(113,60,o),
(241,4,cs),
(429,-78,o),
(600,-133,o),
(795,-175,cs)
);
},
{
closed = 1;
nodes = (
(234,23,o),
(134,162,o),
(134,333,cs),
(134,516,o),
(224,642,o),
(356,642,cs),
(488,642,o),
(578,516,o),
(578,333,cs),
(578,153,o),
(484,23,o),
(356,23,cs)
);
}
);
width = 716;
}
);
metricLeft = O;
unicode = 81;
userData = {
KernOnName = Q;
};
}
{
glyphname = T;
kernLeft = KO_T;
kernRight = KO_T;
layers = (
{
anchors = (
{
name = bottom;
pos = (323,0);
},
{
name = cedilla;
pos = (316,0);
},
{
name = center;
pos = (323,283);
},
{
name = ogonek;
pos = (359,5);
},
{
name = top;
pos = (323,663);
},
{
name = zzcurly;
pos = (274,655);
}
);
layerId = master01;
shapes = (
{
closed = 1;
nodes = (
(229,-1,o),
(273,0,o),
(318,0,cs),
(362,0,o),
(407,-1,o),
(451,-3,c),
(461,-3,o),
(460,34,o),
(451,34,cs),
(390,34,o),
(359,53,o),
(359,91,cs),
(359,628,l),
(463,628,ls),
(554,628,o),
(591,590,o),
(591,494,cs),
(591,484,o),
(628,484,o),
(628,494,cs),
(628,649,ls),
(628,661,o),
(617,666,o),
(590,666,cs),
(500,666,o),
(410,663,o),
(320,663,cs),
(231,663,o),
(143,666,o),
(55,666,cs),
(28,666,o),
(17,661,o),
(17,649,cs),
(17,494,ls),
(17,484,o),
(54,484,o),
(54,494,cs),
(54,590,o),
(91,628,o),
(183,628,cs),
(281,628,l),
(281,91,ls),
(281,53,o),
(249,34,o),
(185,34,cs),
(175,34,o),
(175,-3,o),
(185,-3,c)
);
}
);
width = 645;
},
{
anchors = (
{
name = bottom;
pos = (307,0);
},
{
name = cedilla;
pos = (307,0);
},
{
name = center;
pos = (319,283);
},
{
name = ogonek;
pos = (372,5);
},
{
name = top;
pos = (321,663);
},
{
name = zzcurly;
pos = (266,655);
}
);
layerId = "75918100-ED89-42A8-B0FE-888EB9C86810";
shapes = (
{
closed = 1;
nodes = (
(214,-1,o),
(263,0,o),
(312,0,cs),
(360,0,o),
(409,-1,o),
(457,-3,c),
(465,-3,o),
(465,42,o),
(457,42,cs),
(401,42,o),
(373,61,o),
(373,99,cs),
(373,621,l),
(459,621,ls),
(535,621,o),
(565,585,o),
(565,495,cs),
(565,484,o),
(615,484,o),
(615,495,cs),
(615,641,ls),
(615,659,o),
(600,666,o),
(564,666,cs),
(479,666,o),
(395,663,o),
(310,663,cs),
(229,663,o),
(148,666,o),
(68,666,cs),
(30,666,o),
(13,659,o),
(13,641,cs),
(13,495,ls),
(13,484,o),
(62,484,o),
(62,495,cs),
(62,585,o),
(93,621,o),
(171,621,cs),
(254,621,l),
(254,99,ls),
(254,61,o),
(225,42,o),
(166,42,cs),
(158,42,o),
(156,-3,o),
(166,-3,c)
);
}
);
width = 629;
},
{
anchors = (
{
name = bottom;
pos = (328,0);
},
{
name = cedilla;
pos = (318,0);
},
{
name = center;
pos = (324,283);
},
{
name = ogonek;
pos = (357,5);
},
{
name = top;
pos = (323,663);
},
{
name = zzcurly;
pos = (275,655);
}
);
layerId = "6ABD9449-5E80-4451-809E-12ADEB9E9AB4";
shapes = (
{
closed = 1;
nodes = (
(234,0,o),
(277,0,o),
(320,0,cs),
(363,0,o),
(407,0,o),
(450,-3,c),
(460,-3,o),
(459,31,o),
(450,31,cs),
(386,31,o),
(354,50,o),
(354,88,cs),
(354,631,l),
(464,631,ls),
(561,631,o),
(600,592,o),
(600,493,cs),
(600,484,o),
(632,485,o),
(632,493,cs),
(632,652,ls),
(632,662,o),
(622,666,o),
(599,666,cs),
(507,666,o),
(415,663,o),
(323,663,cs),
(232,663,o),
(142,666,o),
(51,666,cs),
(28,665,o),
(18,661,o),
(18,652,cs),
(18,493,ls),
(18,484,o),
(51,485,o),
(51,493,cs),
(51,592,o),
(90,631,o),
(187,631,cs),
(290,631,l),
(290,88,ls),
(290,50,o),
(257,31,o),
(191,31,cs),
(181,31,o),
(182,-3,o),
(191,-3,c)
);
}
);
width = 651;
},
{
anchors = (
{
name = bottom;
pos = (259,0);
},
{
name = cedilla;
pos = (252,0);
},
{
name = center;
pos = (255,283);
},
{
name = ogonek;
pos = (293,5);
},
{
name = top;
pos = (260,663);
},
{
name = zzcurly;
pos = (217,655);
}
);
layerId = "70B83247-6FA0-4662-9656-C86DD2A17D3B";
shapes = (
{
closed = 1;
nodes = (
(181,-1,o),
(218,0,o),
(254,0,cs),
(291,0,o),
(328,-1,o),
(365,-3,c),
(372,-3,o),
(372,34,o),
(365,34,cs),
(317,34,o),
(293,53,o),
(293,91,cs),
(293,628,l),
(371,628,ls),
(440,628,o),
(467,590,o),
(467,494,cs),
(467,484,o),
(500,484,o),
(500,494,cs),
(500,647,ls),
(500,660,o),
(490,666,o),
(466,666,cs),
(396,666,o),
(325,663,o),
(255,663,cs),
(187,663,o),
(118,666,o),
(50,666,cs),
(25,666,o),
(14,660,o),
(14,647,cs),
(14,494,ls),
(14,484,o),
(47,484,o),
(47,494,cs),
(47,590,o),
(75,628,o),
(145,628,cs),
(219,628,l),
(219,91,ls),
(219,53,o),
(193,34,o),
(144,34,cs),
(137,34,o),
(137,-3,o),
(144,-3,c)
);
}
);
width = 515;
},
{
anchors = (
{
name = bottom;
pos = (387,0);
},
{
name = cedilla;
pos = (380,0);
},
{
name = center;
pos = (391,283);
},
{
name = ogonek;
pos = (426,5);
},
{
name = top;
pos = (387,663);
},
{
name = zzcurly;
pos = (333,655);
}
);
layerId = "9E6FDE2E-55A6-44A9-9556-F1822294BF26";
shapes = (
{
closed = 1;
nodes = (
(278,-1,o),
(330,0,o),
(382,0,cs),
(435,0,o),
(486,-1,o),
(539,-3,c),
(551,-3,o),
(550,34,o),
(539,34,cs),
(463,34,o),
(425,53,o),
(425,91,cs),
(425,628,l),
(555,628,ls),
(670,628,o),
(716,589,o),
(716,493,cs),
(716,484,o),
(756,484,o),
(756,493,cs),
(756,652,ls),
(756,661,o),
(744,666,o),
(715,666,cs),
(605,666,o),
(495,663,o),
(386,663,cs),
(277,663,o),
(169,666,o),
(61,666,cs),
(32,666,o),
(20,661,o),
(20,652,cs),
(20,493,ls),
(20,484,o),
(61,484,o),
(61,493,cs),
(61,589,o),
(107,628,o),
(222,628,cs),
(344,628,l),
(344,91,ls),
(344,53,o),
(305,34,o),
(226,34,cs),
(214,34,o),
(215,-3,o),
(226,-3,c)
);
}
);
width = 777;
},
{
anchors = (
{
name = bottom;
pos = (323,0);
},
{
name = cedilla;
pos = (316,0);
},
{
name = center;
pos = (323,283);
},
{
name = ogonek;
pos = (359,5);
},
{
name = top;
pos = (323,663);
},
{
name = zzcurly;
pos = (274,655);
}
);
layerId = "00F4936D-6309-4DEC-83B3-42806ED1A477";
shapes = (
{
closed = 1;
nodes = (
(229,-1,o),
(273,0,o),
(318,0,cs),
(362,0,o),
(407,-1,o),
(451,-3,c),
(461,-3,o),
(460,34,o),
(451,34,cs),
(390,34,o),
(359,53,o),
(359,91,cs),
(359,628,l),
(463,628,ls),
(554,628,o),
(591,590,o),
(591,494,cs),
(591,484,o),
(628,484,o),
(628,494,cs),
(628,649,ls),
(628,661,o),
(617,666,o),
(590,666,cs),
(500,666,o),
(410,663,o),
(320,663,cs),
(231,663,o),
(143,666,o),
(55,666,cs),
(28,666,o),
(17,661,o),
(17,649,cs),
(17,494,ls),
(17,484,o),
(54,484,o),
(54,494,cs),
(54,590,o),
(91,628,o),
(183,628,cs),
(281,628,l),
(281,91,ls),
(281,53,o),
(249,34,o),
(185,34,cs),
(175,34,o),
(175,-3,o),
(185,-3,c)
);
}
);
width = 645;
}
);
unicode = 84;
userData = {
KernOnName = T;
};
}
{
glyphname = underscore;
kernLeft = KO_hyphen;
kernRight = KO_underscore;
layers = (
{
layerId = master01;
shapes = (
{
closed = 1;
nodes = (
(500,-125,l),
(500,-75,l),
(0,-75,l),
(0,-125,l)
);
}
);
width = 500;
},
{
layerId = "75918100-ED89-42A8-B0FE-888EB9C86810";
shapes = (
{
closed = 1;
nodes = (
(500,-130,l),
(500,-71,l),
(0,-71,l),
(0,-130,l)
);
}
);
width = 500;
},
{
layerId = "6ABD9449-5E80-4451-809E-12ADEB9E9AB4";
shapes = (
{
closed = 1;
nodes = (
(500,-124,l),
(500,-77,l),
(0,-77,l),
(0,-124,l)
);
}
);
width = 500;
},
{
layerId = "70B83247-6FA0-4662-9656-C86DD2A17D3B";
shapes = (
{
closed = 1;
nodes = (
(400,-126,l),
(400,-74,l),
(0,-74,l),
(0,-126,l)
);
}
);
width = 400;
},
{
layerId = "9E6FDE2E-55A6-44A9-9556-F1822294BF26";
shapes = (
{
closed = 1;
nodes = (
(600,-124,l),
(600,-77,l),
(0,-77,l),
(0,-124,l)
);
}
);
width = 600;
},
{
layerId = "00F4936D-6309-4DEC-83B3-42806ED1A477";
shapes = (
{
closed = 1;
nodes = (
(500,-125,l),
(500,-75,l),
(0,-75,l),
(0,-125,l)
);
}
);
width = 500;
}
);
unicode = 95;
userData = {
KernOnSpecialSpacing = {
L = NoKerning;
R = NoKerning;
};
};
}
{
color = 9;
glyphname = l;
kernLeft = KO_l;
kernRight = KO_i;
layers = (
{
anchors = (
{
name = bottom;
pos = (128,0);
},
{
name = cedilla;
pos = (124,0);
},
{
name = center;
pos = (141,420);
},
{
name = center_high;
pos = (139,554);
},
{
name = top;
pos = (128,691);
},
{
name = topright;
pos = (246,706);
},
{
name = us;
pos = (272,415);
},
{
name = zzcurly;
pos = (146,548);
}
);
guides = (
{
pos = (393,1487);
}
);
layerId = master01;
shapes = (
{
closed = 1;
nodes = (
(73,-1,o),
(104,0,o),
(136,0,cs),
(167,0,o),
(199,-1,o),
(231,-4,c),
(240,-4,o),
(240,24,o),
(231,24,cs),
(192,24,o),
(173,37,o),
(173,62,cs),
(173,636,ls),
(173,658,o),
(174,676,o),
(176,711,c),
(176,720,o),
(174,725,o),
(170,725,cs),
(165,725,o),
(158,721,o),
(148,713,cs),
(122,692,o),
(71,667,o),
(53,667,cs),
(44,667,o),
(44,640,o),
(53,640,cs),
(83,640,o),
(98,618,o),
(98,573,cs),
(98,62,ls),
(98,37,o),
(79,24,o),
(41,24,cs),
(32,24,o),
(32,-4,o),
(41,-4,c)
);
}
);
width = 256;
},
{
anchors = (
{
name = bottom;
pos = (133,0);
},
{
name = cedilla;
pos = (140,0);
},
{
name = center;
pos = (146,420);
},
{
name = center_high;
pos = (149,554);
},
{
name = top;
pos = (133,692);
},
{
name = topright;
pos = (251,706);
},
{
name = us;
pos = (303,415);
},
{
name = zzcurly;
pos = (172,548);
}
);
guides = (
{
pos = (420,1487);
}
);
layerId = "75918100-ED89-42A8-B0FE-888EB9C86810";
shapes = (
{
closed = 1;
nodes = (
(70,-1,o),
(105,0,o),
(141,0,cs),
(177,0,o),
(212,-1,o),
(248,-4,c),
(257,-4,o),
(257,33,o),
(248,33,cs),
(214,33,o),
(197,44,o),
(197,66,cs),
(197,636,ls),
(197,658,o),
(198,676,o),
(201,712,c),
(201,720,o),
(197,725,o),
(189,725,cs),
(182,725,o),
(177,723,o),
(168,716,cs),
(136,690,o),
(72,663,o),
(40,663,cs),
(31,663,o),
(31,627,o),
(40,627,cs),
(70,627,o),
(85,605,o),
(85,560,cs),
(85,66,ls),
(85,44,o),
(68,33,o),
(34,33,cs),
(25,33,o),
(25,-4,o),
(34,-4,c)
);
}
);
width = 270;
},
{
anchors = (
{
name = bottom;
pos = (127,0);
},
{
name = cedilla;
pos = (120,0);
},
{
name = center;
pos = (127,420);
},
{
name = center_high;
pos = (138,554);
},
{
name = top;
pos = (127,691);
},
{
name = topright;
pos = (246,706);
},
{
name = us;
pos = (286,415);
},
{
name = zzcurly;
pos = (141,548);
}
);
layerId = "6ABD9449-5E80-4451-809E-12ADEB9E9AB4";
shapes = (
{
closed = 1;
nodes = (
(75,-1,o),
(105,0,o),
(135,0,cs),
(166,0,o),
(196,-1,o),
(226,-4,c),
(235,-4,o),
(235,21,o),
(226,21,cs),
(186,21,o),
(166,34,o),
(166,61,cs),
(166,636,ls),
(166,658,o),
(166,676,o),
(168,711,c),
(168,721,o),
(167,725,o),
(164,725,cs),
(160,725,o),
(152,720,o),
(143,712,cs),
(123,694,o),
(74,669,o),
(59,669,cs),
(50,669,o),
(50,645,o),
(59,645,cs),
(89,645,o),
(104,623,o),
(104,578,cs),
(104,61,ls),
(104,34,o),
(84,21,o),
(44,21,cs),
(35,21,o),
(35,-4,o),
(44,-4,c)
);
}
);
width = 253;
},
{
anchors = (
{
name = bottom;
pos = (113,0);
},
{
name = cedilla;
pos = (112,0);
},
{
name = center;
pos = (123,420);
},
{
name = center_high;
pos = (122,554);
},
{
name = top;
pos = (112,691);
},
{
name = topright;
pos = (205,706);
},
{
name = us;
pos = (233,415);
},
{
name = zzcurly;
pos = (131,548);
}
);
guides = (
{
pos = (226,1487);
}
);
layerId = "70B83247-6FA0-4662-9656-C86DD2A17D3B";
shapes = (
{
closed = 1;
nodes = (
(63,-1,o),
(91,0,o),
(119,0,cs),
(146,0,o),
(173,-1,o),
(201,-4,c),
(210,-4,o),
(210,24,o),
(201,24,cs),
(170,24,o),
(156,37,o),
(156,62,cs),
(156,636,ls),
(156,658,o),
(157,676,o),
(159,711,c),
(159,719,o),
(156,725,o),
(152,725,cs),
(148,725,o),
(143,722,o),
(135,715,cs),
(112,693,o),
(63,667,o),
(45,667,cs),
(37,667,o),
(37,640,o),
(45,640,cs),
(69,640,o),
(81,618,o),
(81,573,cs),
(81,62,ls),
(81,37,o),
(66,24,o),
(36,24,cs),
(27,24,o),
(27,-4,o),
(36,-4,c)
);
}
);
width = 223;
},
{
anchors = (
{
name = bottom;
pos = (145,0);
},
{
name = cedilla;
pos = (138,0);
},
{
name = center;
pos = (162,420);
},
{
name = center_high;
pos = (157,554);
},
{
name = top;
pos = (146,691);
},
{
name = topright;
pos = (289,706);
},
{
name = us;
pos = (313,415);
},
{
name = zzcurly;
pos = (164,548);
}
);
layerId = "9E6FDE2E-55A6-44A9-9556-F1822294BF26";
shapes = (
{
closed = 1;
nodes = (
(91,-1,o),
(134,0,o),
(156,0,cs),
(177,0,o),
(220,-1,o),
(263,-4,c),
(272,-4,o),
(272,24,o),
(263,24,cs),
(216,24,o),
(193,37,o),
(193,62,cs),
(193,636,ls),
(193,658,o),
(194,676,o),
(196,711,c),
(196,722,o),
(195,725,o),
(192,725,cs),
(188,725,o),
(181,721,o),
(166,710,cs),
(139,692,o),
(81,667,o),
(64,667,cs),
(55,667,o),
(55,640,o),
(64,640,cs),
(100,640,o),
(118,618,o),
(118,573,cs),
(118,62,ls),
(118,37,o),
(94,24,o),
(48,24,cs),
(39,24,o),
(39,-4,o),
(48,-4,c)
);
}
);
width = 292;
},
{
anchors = (
{
name = bottom;
pos = (137,0);
},
{
name = cedilla;
pos = (133,0);
},
{
name = center;
pos = (150,420);
},
{
name = center_high;
pos = (147,554);
},
{
name = top;
pos = (137,691);
},
{
name = topright;
pos = (265,705);
},
{
name = us;
pos = (291,415);
},
{
name = zzcurly;
pos = (155,548);
}
);
guides = (
{
pos = (376,1487);
}
);
layerId = "00F4936D-6309-4DEC-83B3-42806ED1A477";
shapes = (
{
closed = 1;
nodes = (
(68,-2,o),
(104,0,o),
(147,0,cs),
(193,0,o),
(229,-2,o),
(254,-5,c),
(263,-5,o),
(263,24,o),
(254,24,cs),
(208,24,o),
(185,40,o),
(185,70,cs),
(185,636,ls),
(185,658,o),
(186,676,o),
(188,711,c),
(188,722,o),
(187,725,o),
(183,725,cs),
(180,725,o),
(171,720,o),
(160,712,cs),
(127,690,o),
(77,668,o),
(62,668,cs),
(52,668,o),
(52,644,o),
(62,644,cs),
(92,644,o),
(107,622,o),
(107,577,cs),
(107,70,ls),
(107,40,o),
(85,24,o),
(41,24,cs),
(32,24,o),
(32,-5,o),
(41,-5,c)
);
}
);
width = 279;
}
);
unicode = 108;
userData = {
KernOnName = l;
};
}
{
color = 9;
glyphname = o;
kernLeft = KO_o;
kernRight = KO_o;
layers = (
{
anchors = (
{
name = bottom;
pos = (228,0);
},
{
name = center;
pos = (231,207);
},
{
name = ogonek;
pos = (300,21);
},
{
name = ogonek_above;
pos = (212,405);
},
{
name = top;
pos = (228,415);
},
{
name = topright;
pos = (358,396);
},
{
name = us;
pos = (364,415);
},
{
name = zzcurly;
pos = (331,378);
}
);
layerId = master01;
shapes = (
{
closed = 1;
nodes = (
(349,-11,o),
(436,81,o),
(436,207,cs),
(436,333,o),
(349,425,o),
(231,425,cs),
(112,425,o),
(26,333,o),
(26,207,cs),
(26,81,o),
(112,-11,o),
(231,-11,cs)
);
},
{
closed = 1;
nodes = (
(158,21,o),
(105,100,o),
(105,208,cs),
(105,318,o),
(157,396,o),
(231,396,cs),
(304,396,o),
(356,318,o),
(356,208,cs),
(356,100,o),
(303,21,o),
(231,21,cs)
);
}
);
width = 462;
},
{
anchors = (
{
name = bottom;
pos = (236,0);
},
{
name = center;
pos = (237,207);
},
{
name = ogonek;
pos = (295,15);
},
{
name = ogonek_above;
pos = (212,405);
},
{
name = top;
pos = (236,415);
},
{
name = topright;
pos = (360,396);
},
{
name = us;
pos = (369,415);
},
{
name = zzcurly;
pos = (345,378);
}
);
layerId = "75918100-ED89-42A8-B0FE-888EB9C86810";
shapes = (
{
closed = 1;
nodes = (
(364,-11,o),
(457,81,o),
(457,207,cs),
(457,333,o),
(364,425,o),
(237,425,cs),
(109,425,o),
(16,333,o),
(16,207,cs),
(16,81,o),
(109,-11,o),
(237,-11,cs)
);
},
{
closed = 1;
nodes = (
(180,30,o),
(140,105,o),
(140,208,cs),
(140,312,o),
(180,387,o),
(236,387,cs),
(293,387,o),
(333,312,o),
(333,208,cs),
(333,105,o),
(293,30,o),
(236,30,cs)
);
}
);
width = 473;
},
{
anchors = (
{
name = bottom;
pos = (224,0);
},
{
name = center;
pos = (228,207);
},
{
name = ogonek;
pos = (305,18);
},
{
name = ogonek_above;
pos = (201,405);
},
{
name = top;
pos = (224,415);
},
{
name = topright;
pos = (356,396);
},
{
name = us;
pos = (368,415);
},
{
name = zzcurly;
pos = (335,378);
}
);
layerId = "6ABD9449-5E80-4451-809E-12ADEB9E9AB4";
shapes = (
{
closed = 1;
nodes = (
(343,-11,o),
(427,81,o),
(427,207,cs),
(427,333,o),
(343,425,o),
(228,425,cs),
(112,425,o),
(28,333,o),
(28,207,cs),
(28,81,o),
(112,-11,o),
(228,-11,cs)
);
},
{
closed = 1;
nodes = (
(150,18,o),
(92,98,o),
(92,208,cs),
(92,319,o),
(150,399,o),
(228,399,cs),
(307,399,o),
(362,320,o),
(362,208,cs),
(362,97,o),
(307,18,o),
(228,18,cs)
);
}
);
width = 455;
},
{
anchors = (
{
name = bottom;
pos = (195,0);
},
{
name = center;
pos = (197,207);
},
{
name = ogonek;
pos = (248,20);
},
{
name = ogonek_above;
pos = (174,405);
},
{
name = top;
pos = (195,415);
},
{
name = topright;
pos = (297,396);
},
{
name = us;
pos = (302,415);
},
{
name = zzcurly;
pos = (278,378);
}
);
layerId = "70B83247-6FA0-4662-9656-C86DD2A17D3B";
shapes = (
{
closed = 1;
nodes = (
(292,-11,o),
(365,84,o),
(365,207,cs),
(365,330,o),
(292,425,o),
(197,425,cs),
(101,425,o),
(28,330,o),
(28,207,cs),
(28,84,o),
(101,-11,o),
(197,-11,cs)
);
},
{
closed = 1;
nodes = (
(146,21,o),
(107,103,o),
(107,208,cs),
(107,314,o),
(146,396,o),
(197,396,cs),
(247,396,o),
(286,314,o),
(286,208,cs),
(286,103,o),
(247,21,o),
(197,21,cs)
);
}
);
width = 393;
},
{
anchors = (
{
name = bottom;
pos = (265,0);
},
{
name = center;
pos = (270,207);
},
{
name = ogonek;
pos = (356,22);
},
{
name = ogonek_above;
pos = (255,405);
},
{
name = top;
pos = (265,415);
},
{
name = topright;
pos = (423,396);
},
{
name = us;
pos = (431,415);
},
{
name = zzcurly;
pos = (388,378);
}
);
layerId = "9E6FDE2E-55A6-44A9-9556-F1822294BF26";
shapes = (
{
closed = 1;
nodes = (
(409,-11,o),
(511,81,o),
(511,207,cs),
(511,333,o),
(409,425,o),
(270,425,cs),
(130,425,o),
(28,333,o),
(28,207,cs),
(28,81,o),
(130,-11,o),
(270,-11,cs)
);
},
{
closed = 1;
nodes = (
(178,21,o),
(108,103,o),
(108,208,cs),
(108,314,o),
(178,396,o),
(270,396,cs),
(361,396,o),
(431,314,o),
(431,208,cs),
(431,103,o),
(361,21,o),
(270,21,cs)
);
}
);
width = 539;
},
{
anchors = (
{
name = bottom;
pos = (328,4);
},
{
name = center;
pos = (328,332);
},
{
name = ogonek;
pos = (449,39);
},
{
name = ogonek_above;
pos = (303,646);
},
{
name = top;
pos = (328,661);
},
{
name = topright;
pos = (537,630);
},
{
name = us;
pos = (548,661);
},
{
name = zzcurly;
pos = (492,603);
}
);
layerId = "00F4936D-6309-4DEC-83B3-42806ED1A477";
shapes = (
{
closed = 1;
nodes = (
(511,-13,o),
(631,123,o),
(631,332,cs),
(631,541,o),
(511,676,o),
(328,676,cs),
(145,676,o),
(26,540,o),
(26,332,cs),
(26,123,o),
(145,-13,o),
(328,-13,cs)
);
},
{
closed = 1;
nodes = (
(206,23,o),
(119,152,o),
(119,333,cs),
(119,505,o),
(212,642,o),
(328,642,cs),
(449,642,o),
(537,513,o),
(537,333,cs),
(537,152,o),
(451,23,o),
(328,23,cs)
);
}
);
width = 657;
}
);
unicode = 111;
userData = {
KernOnName = o;
};
}
{
color = 9;
glyphname = w;
kernLeft = KO_y;
kernRight = KO_y;
layers = (
{
anchors = (
{
name = bottom;
pos = (325,0);
},
{
name = top;
pos = (325,415);
},
{
name = us;
pos = (636,415);
},
{
name = zzcurly;
pos = (591,378);
}
);
layerId = master01;
shapes = (
{
closed = 1;
nodes = (
(222,-11,o),
(229,-5,o),
(233,8,cs),
(329,281,l),
(335,281,l),
(443,2,ls),
(446,-7,o),
(453,-11,o),
(462,-11,cs),
(472,-11,o),
(479,-5,o),
(483,8,cs),
(605,357,ls),
(613,380,o),
(633,392,o),
(664,392,cs),
(673,392,o),
(673,418,o),
(664,418,c),
(641,416,o),
(617,415,o),
(594,415,cs),
(570,415,o),
(546,416,o),
(523,418,c),
(514,418,o),
(514,392,o),
(523,392,cs),
(562,392,o),
(576,378,o),
(568,355,cs),
(480,99,l),
(475,99,l),
(393,351,ls),
(385,378,o),
(398,392,o),
(429,392,cs),
(438,392,o),
(438,418,o),
(429,418,c),
(400,416,o),
(372,415,o),
(343,415,cs),
(313,415,o),
(285,416,o),
(256,418,c),
(247,418,o),
(247,392,o),
(256,392,cs),
(281,392,o),
(294,387,o),
(298,376,cs),
(313,338,l),
(230,99,l),
(226,99,l),
(143,351,ls),
(134,378,o),
(143,392,o),
(179,392,cs),
(188,392,o),
(188,418,o),
(179,418,c),
(150,416,o),
(122,415,o),
(93,415,cs),
(63,415,o),
(35,416,o),
(6,418,c),
(-3,418,o),
(-3,392,o),
(6,392,cs),
(30,392,o),
(47,380,o),
(56,357,cs),
(193,2,ls),
(196,-7,o),
(203,-11,o),
(212,-11,cs)
);
}
);
width = 659;
},
{
anchors = (
{
name = bottom;
pos = (356,0);
},
{
name = top;
pos = (356,415);
},
{
name = us;
pos = (656,415);
},
{
name = zzcurly;
pos = (621,378);
}
);
layerId = "75918100-ED89-42A8-B0FE-888EB9C86810";
shapes = (
{
closed = 1;
nodes = (
(249,-11,o),
(262,-1,o),
(270,19,cs),
(351,230,l),
(357,230,l),
(447,14,ls),
(455,-3,o),
(467,-11,o),
(484,-11,cs),
(501,-11,o),
(514,-1,o),
(521,19,cs),
(647,348,ls),
(656,371,o),
(677,383,o),
(708,383,cs),
(718,383,o),
(718,418,o),
(708,418,c),
(681,416,o),
(654,415,o),
(626,415,cs),
(599,415,o),
(572,416,o),
(544,418,c),
(535,419,o),
(535,383,o),
(544,383,cs),
(583,383,o),
(595,371,o),
(586,345,cs),
(506,114,l),
(501,114,l),
(429,342,ls),
(420,369,o),
(430,383,o),
(459,383,cs),
(471,383,o),
(470,418,o),
(459,418,c),
(427,416,o),
(395,415,o),
(362,415,cs),
(330,415,o),
(297,416,o),
(265,418,c),
(254,419,o),
(254,383,o),
(265,383,cs),
(285,383,o),
(297,373,o),
(308,348,cs),
(322,312,l),
(255,114,l),
(249,114,l),
(176,342,ls),
(167,371,o),
(173,383,o),
(208,383,cs),
(217,383,o),
(217,418,o),
(208,418,c),
(174,416,o),
(141,415,o),
(107,415,cs),
(73,415,o),
(40,416,o),
(6,418,c),
(-3,419,o),
(-3,383,o),
(6,383,cs),
(29,383,o),
(46,372,o),
(56,348,cs),
(195,14,ls),
(203,-3,o),
(215,-11,o),
(231,-11,cs)
);
}
);
width = 700;
},
{
anchors = (
{
name = bottom;
pos = (315,0);
},
{
name = top;
pos = (315,415);
},
{
name = us;
pos = (622,415);
},
{
name = zzcurly;
pos = (582,378);
}
);
layerId = "6ABD9449-5E80-4451-809E-12ADEB9E9AB4";
shapes = (
{
closed = 1;
nodes = (
(213,-11,o),
(217,-6,o),
(221,4,cs),
(322,298,l),
(328,298,l),
(441,-2,ls),
(444,-8,o),
(448,-11,o),
(455,-11,cs),
(462,-11,o),
(467,-6,o),
(470,4,cs),
(591,360,ls),
(601,388,o),
(618,396,o),
(649,396,cs),
(658,396,o),
(658,417,o),
(649,417,c),
(627,416,o),
(607,415,o),
(583,415,cs),
(559,415,o),
(539,416,o),
(516,417,c),
(507,417,o),
(507,396,o),
(516,396,cs),
(562,396,o),
(572,387,o),
(562,358,cs),
(473,95,l),
(467,95,l),
(381,354,ls),
(373,380,o),
(387,395,o),
(419,395,cs),
(428,395,o),
(428,418,o),
(419,418,c),
(392,416,o),
(364,415,o),
(336,415,cs),
(309,415,o),
(281,416,o),
(253,417,c),
(244,417,o),
(244,396,o),
(253,396,cs),
(278,396,o),
(294,390,o),
(298,378,cs),
(310,348,l),
(223,95,l),
(218,95,l),
(132,354,ls),
(122,386,o),
(134,396,o),
(170,396,cs),
(179,396,o),
(179,417,o),
(170,417,c),
(143,416,o),
(115,415,o),
(88,415,cs),
(61,415,o),
(33,416,o),
(6,417,c),
(-3,417,o),
(-3,396,o),
(6,396,cs),
(30,396,o),
(46,388,o),
(57,360,cs),
(192,-2,ls),
(195,-8,o),
(199,-11,o),
(206,-11,cs)
);
}
);
width = 645;
},
{
anchors = (
{
name = bottom;
pos = (272,0);
},
{
name = top;
pos = (272,415);
},
{
name = us;
pos = (518,415);
},
{
name = zzcurly;
pos = (483,378);
}
);
guides = (
{
angle = 180;
pos = (429,803);
},
{
angle = -72.27;
pos = (204,369);
},
{
angle = -72.2287;
pos = (508,708);
},
{
angle = 73.7304;
pos = (923,375);
}
);
layerId = "70B83247-6FA0-4662-9656-C86DD2A17D3B";
shapes = (
{
closed = 1;
nodes = (
(188,-11,o),
(196,-3,o),
(201,12,cs),
(272,261,l),
(276,261,l),
(356,6,ls),
(360,-5,o),
(368,-11,o),
(378,-11,cs),
(389,-11,o),
(397,-4,o),
(401,12,cs),
(502,357,ls),
(509,381,o),
(525,392,o),
(549,392,cs),
(556,392,o),
(556,418,o),
(549,418,c),
(527,416,o),
(507,415,o),
(488,415,cs),
(468,415,o),
(449,416,o),
(427,418,c),
(419,418,o),
(419,392,o),
(427,392,cs),
(459,392,o),
(470,381,o),
(462,355,cs),
(394,104,l),
(391,104,l),
(328,351,ls),
(318,378,o),
(328,392,o),
(355,392,cs),
(363,392,o),
(363,418,o),
(355,418,c),
(331,416,o),
(311,415,o),
(282,415,cs),
(252,415,o),
(233,416,o),
(208,418,c),
(200,418,o),
(201,392,o),
(208,392,cs),
(226,392,o),
(236,385,o),
(241,369,cs),
(253,331,l),
(194,104,l),
(190,104,l),
(126,351,ls),
(118,380,o),
(124,392,o),
(155,392,cs),
(162,392,o),
(162,418,o),
(155,418,c),
(134,416,o),
(114,415,o),
(80,415,cs),
(51,415,o),
(31,416,o),
(5,418,c),
(-3,418,o),
(-3,392,o),
(5,392,cs),
(24,392,o),
(36,380,o),
(43,357,cs),
(155,7,ls),
(159,-5,o),
(167,-11,o),
(177,-11,cs)
);
}
);
width = 540;
},
{
anchors = (
{
name = bottom;
pos = (377,0);
},
{
name = top;
pos = (377,415);
},
{
name = us;
pos = (753,415);
},
{
name = zzcurly;
pos = (699,378);
}
);
guides = (
{
angle = 180;
pos = (429,803);
},
{
angle = -65.8876;
pos = (305,366);
},
{
angle = -65.556;
pos = (745,748);
},
{
angle = 67.9558;
pos = (1303,373);
}
);
layerId = "9E6FDE2E-55A6-44A9-9556-F1822294BF26";
shapes = (
{
closed = 1;
nodes = (
(254,-11,o),
(260,-6,o),
(264,3,cs),
(385,302,l),
(393,302,l),
(528,-2,ls),
(531,-9,o),
(538,-11,o),
(545,-11,cs),
(554,-11,o),
(560,-5,o),
(563,3,cs),
(707,356,ls),
(716,379,o),
(739,392,o),
(778,392,cs),
(790,392,o),
(790,418,o),
(778,418,c),
(753,416,o),
(726,415,o),
(699,415,cs),
(670,415,o),
(643,416,o),
(618,418,c),
(607,418,o),
(607,392,o),
(618,392,cs),
(672,392,o),
(683,382,o),
(672,355,cs),
(566,93,l),
(559,94,l),
(458,351,ls),
(447,377,o),
(464,392,o),
(504,392,cs),
(515,392,o),
(513,418,o),
(502,418,c),
(469,416,o),
(431,415,o),
(403,415,cs),
(374,415,o),
(335,416,o),
(303,418,c),
(292,418,o),
(293,392,o),
(305,392,cs),
(335,392,o),
(353,387,o),
(358,377,cs),
(373,345,l),
(266,93,l),
(260,93,l),
(160,351,ls),
(151,375,o),
(164,392,o),
(205,392,cs),
(216,392,o),
(214,418,o),
(203,418,c),
(166,416,o),
(128,415,o),
(104,415,cs),
(75,415,o),
(37,416,o),
(6,418,c),
(-4,418,o),
(-3,392,o),
(8,392,cs),
(37,392,o),
(58,380,o),
(69,356,cs),
(229,-3,ls),
(232,-9,o),
(238,-11,o),
(247,-11,cs)
);
}
);
width = 776;
},
{
anchors = (
{
name = bottom;
pos = (483,4);
},
{
name = top;
pos = (483,663);
},
{
name = us;
pos = (980,661);
},
{
name = zzcurly;
pos = (905,603);
}
);
layerId = "00F4936D-6309-4DEC-83B3-42806ED1A477";
shapes = (
{
closed = 1;
nodes = (
(309,-13,o),
(312,-8,o),
(315,3,cs),
(477,507,l),
(487,507,l),
(670,-6,ls),
(672,-11,o),
(675,-13,o),
(680,-13,cs),
(686,-13,o),
(690,-9,o),
(694,3,cs),
(875,580,ls),
(887,618,o),
(913,636,o),
(962,636,cs),
(976,636,o),
(977,665,o),
(962,665,c),
(938,663,o),
(906,663,o),
(865,663,cs),
(821,663,o),
(792,663,o),
(769,665,c),
(754,665,o),
(756,636,o),
(769,636,cs),
(829,636,o),
(854,616,o),
(841,578,cs),
(706,148,l),
(693,148,l),
(558,571,ls),
(546,612,o),
(568,636,o),
(619,636,cs),
(631,636,o),
(633,666,o),
(619,666,c),
(591,663,o),
(557,663,o),
(502,663,cs),
(443,663,o),
(405,663,o),
(380,665,c),
(368,665,o),
(368,636,o),
(380,636,cs),
(423,636,o),
(445,628,o),
(455,610,cs),
(470,579,l),
(331,149,l),
(317,149,l),
(183,571,ls),
(170,609,o),
(189,636,o),
(243,636,cs),
(257,636,o),
(258,665,o),
(243,665,c),
(217,663,o),
(184,663,o),
(126,663,cs),
(68,663,o),
(34,663,o),
(10,665,c),
(-5,665,o),
(-3,636,o),
(10,636,cs),
(47,636,o),
(73,619,o),
(87,580,cs),
(292,-6,ls),
(294,-11,o),
(296,-13,o),
(303,-13,cs)
);
}
);
width = 961;
}
);
metricLeft = v;
metricRight = v;
unicode = 119;
userData = {
KernOnName = w;
};
}
{
color = 9;
glyphname = x;
kernLeft = KO_x;
kernRight = KO_k;
layers = (
{
anchors = (
{
name = bottom;
pos = (224,0);
},
{
name = top;
pos = (244,415);
},
{
name = us;
pos = (402,415);
},
{
name = zzcurly;
pos = (357,378);
}
);
guides = (
{
angle = 180;
pos = (487,803);
},
{
angle = 180;
pos = (471,49);
}
);
layerId = master01;
shapes = (
{
closed = 1;
nodes = (
(35,-1,o),
(59,0,o),
(83,0,cs),
(107,0,o),
(131,-1,o),
(155,-4,c),
(164,-4,o),
(164,24,o),
(155,24,cs),
(118,24,o),
(114,36,o),
(139,71,cs),
(217,180,l),
(292,63,ls),
(312,32,o),
(305,24,o),
(256,24,cs),
(247,24,o),
(247,-4,o),
(256,-4,c),
(288,-1,o),
(320,0,o),
(352,0,cs),
(384,0,o),
(416,-1,o),
(448,-4,c),
(457,-4,o),
(457,24,o),
(448,24,cs),
(419,24,o),
(395,38,o),
(376,65,cs),
(264,228,l),
(370,357,ls),
(389,380,o),
(409,392,o),
(431,392,cs),
(440,392,o),
(440,418,o),
(431,418,c),
(407,416,o),
(383,415,o),
(359,415,cs),
(335,415,o),
(311,416,o),
(287,418,c),
(278,418,o),
(278,392,o),
(287,392,cs),
(330,392,o),
(339,376,o),
(314,344,cs),
(245,252,l),
(182,352,ls),
(166,379,o),
(175,392,o),
(211,392,cs),
(220,392,o),
(220,418,o),
(211,418,c),
(183,416,o),
(155,415,o),
(127,415,cs),
(100,415,o),
(72,416,o),
(44,418,c),
(35,418,o),
(35,392,o),
(44,392,cs),
(59,392,o),
(76,381,o),
(92,358,cs),
(201,205,l),
(83,57,ls),
(65,35,o),
(41,24,o),
(11,24,cs),
(2,24,o),
(2,-4,o),
(11,-4,c)
);
}
);
width = 448;
},
{
anchors = (
{
name = bottom;
pos = (249,0);
},
{
name = top;
pos = (264,415);
},
{
name = us;
pos = (419,415);
},
{
name = zzcurly;
pos = (365,378);
}
);
layerId = "75918100-ED89-42A8-B0FE-888EB9C86810";
shapes = (
{
closed = 1;
nodes = (
(38,-1,o),
(64,0,o),
(91,0,cs),
(117,0,o),
(143,-1,o),
(170,-4,c),
(179,-4,o),
(179,33,o),
(170,33,cs),
(133,33,o),
(132,42,o),
(164,80,cs),
(228,156,l),
(286,72,ls),
(306,41,o),
(301,33,o),
(261,33,cs),
(252,33,o),
(252,-4,o),
(261,-4,c),
(298,-1,o),
(334,0,o),
(371,0,cs),
(407,0,o),
(443,-1,o),
(480,-4,c),
(489,-4,o),
(489,33,o),
(480,33,cs),
(456,33,o),
(435,47,o),
(414,75,cs),
(294,234,l),
(392,351,ls),
(409,372,o),
(430,383,o),
(450,383,cs),
(459,383,o),
(459,418,o),
(450,418,c),
(423,416,o),
(396,415,o),
(369,415,cs),
(341,415,o),
(314,416,o),
(287,418,c),
(278,418,o),
(278,383,o),
(287,383,cs),
(325,383,o),
(331,368,o),
(306,335,cs),
(262,279,l),
(216,343,ls),
(195,372,o),
(200,383,o),
(234,383,cs),
(243,383,o),
(243,418,o),
(234,418,c),
(199,416,o),
(164,415,o),
(130,415,cs),
(95,415,o),
(60,416,o),
(26,418,c),
(17,418,o),
(17,383,o),
(26,383,cs),
(45,383,o),
(63,371,o),
(81,349,cs),
(197,201,l),
(87,66,ls),
(69,44,o),
(44,33,o),
(11,33,cs),
(2,33,o),
(2,-4,o),
(11,-4,c)
);
}
);
width = 480;
},
{
anchors = (
{
name = bottom;
pos = (216,0);
},
{
name = top;
pos = (237,415);
},
{
name = us;
pos = (396,415);
},
{
name = zzcurly;
pos = (352,378);
}
);
layerId = "6ABD9449-5E80-4451-809E-12ADEB9E9AB4";
shapes = (
{
closed = 1;
nodes = (
(35,-1,o),
(58,0,o),
(81,0,cs),
(104,0,o),
(128,-1,o),
(151,-4,c),
(160,-4,o),
(160,21,o),
(151,21,cs),
(114,21,o),
(108,36,o),
(132,68,cs),
(215,188,l),
(295,60,ls),
(313,29,o),
(305,21,o),
(255,21,cs),
(246,21,o),
(246,-4,o),
(255,-4,c),
(286,-1,o),
(316,0,o),
(347,0,cs),
(378,0,o),
(408,-1,o),
(439,-4,c),
(448,-4,o),
(448,21,o),
(439,21,cs),
(408,21,o),
(382,34,o),
(364,62,cs),
(254,225,l),
(364,359,ls),
(384,384,o),
(403,395,o),
(426,395,cs),
(434,395,o),
(434,418,o),
(426,418,c),
(403,416,o),
(380,415,o),
(357,415,cs),
(334,415,o),
(311,416,o),
(288,418,c),
(279,418,o),
(279,395,o),
(288,395,cs),
(331,395,o),
(341,379,o),
(318,347,cs),
(240,244,l),
(172,355,ls),
(156,382,o),
(166,395,o),
(204,395,cs),
(213,395,o),
(213,418,o),
(204,418,c),
(179,416,o),
(153,415,o),
(128,415,cs),
(102,415,o),
(77,416,o),
(51,418,c),
(42,418,o),
(42,395,o),
(51,395,cs),
(65,395,o),
(80,384,o),
(97,361,cs),
(203,207,l),
(83,54,ls),
(66,33,o),
(42,21,o),
(12,21,cs),
(3,21,o),
(3,-4,o),
(12,-4,c)
);
}
);
width = 438;
},
{
anchors = (
{
name = bottom;
pos = (190,0);
},
{
name = top;
pos = (205,415);
},
{
name = us;
pos = (330,415);
},
{
name = zzcurly;
pos = (290,378);
}
);
layerId = "70B83247-6FA0-4662-9656-C86DD2A17D3B";
shapes = (
{
closed = 1;
nodes = (
(30,-1,o),
(51,0,o),
(71,0,cs),
(91,0,o),
(111,-1,o),
(131,-4,c),
(140,-4,o),
(140,24,o),
(131,24,cs),
(100,24,o),
(98,33,o),
(121,71,cs),
(180,171,l),
(235,63,ls),
(252,32,o),
(246,24,o),
(208,24,cs),
(199,24,o),
(199,-4,o),
(208,-4,c),
(235,-1,o),
(263,0,o),
(291,0,cs),
(318,0,o),
(345,-1,o),
(373,-4,c),
(381,-4,o),
(381,24,o),
(373,24,cs),
(352,24,o),
(335,38,o),
(320,65,cs),
(224,231,l),
(309,358,ls),
(324,380,o),
(337,392,o),
(354,392,cs),
(363,392,o),
(363,418,o),
(354,418,c),
(334,416,o),
(313,415,o),
(293,415,cs),
(272,415,o),
(251,416,o),
(231,418,c),
(222,418,o),
(222,392,o),
(231,392,cs),
(267,392,o),
(273,377,o),
(252,344,cs),
(204,262,l),
(159,352,ls),
(143,381,o),
(149,392,o),
(180,392,cs),
(189,392,o),
(189,418,o),
(180,418,c),
(155,416,o),
(130,415,o),
(105,415,cs),
(80,415,o),
(55,416,o),
(30,418,c),
(21,418,o),
(21,392,o),
(30,392,cs),
(43,392,o),
(55,381,o),
(68,358,cs),
(161,204,l),
(67,57,ls),
(54,35,o),
(36,24,o),
(10,24,cs),
(1,24,o),
(1,-4,o),
(10,-4,c)
);
}
);
width = 373;
},
{
anchors = (
{
name = bottom;
pos = (258,0);
},
{
name = top;
pos = (282,415);
},
{
name = us;
pos = (474,415);
},
{
name = zzcurly;
pos = (424,378);
}
);
layerId = "9E6FDE2E-55A6-44A9-9556-F1822294BF26";
shapes = (
{
closed = 1;
nodes = (
(40,-1,o),
(67,0,o),
(95,0,cs),
(123,0,o),
(150,-1,o),
(178,-4,c),
(187,-4,o),
(187,24,o),
(178,24,cs),
(137,24,o),
(132,39,o),
(160,71,cs),
(255,188,l),
(348,63,ls),
(367,35,o),
(355,24,o),
(304,24,cs),
(295,24,o),
(295,-4,o),
(304,-4,c),
(341,-1,o),
(377,0,o),
(414,0,cs),
(451,0,o),
(487,-1,o),
(524,-4,c),
(533,-4,o),
(533,24,o),
(524,24,cs),
(486,24,o),
(454,38,o),
(432,65,cs),
(303,224,l),
(430,355,ls),
(454,380,o),
(481,392,o),
(508,392,cs),
(517,392,o),
(517,418,o),
(508,418,c),
(481,416,o),
(454,415,o),
(426,415,cs),
(398,415,o),
(371,416,o),
(343,418,c),
(334,418,o),
(334,392,o),
(343,392,cs),
(392,392,o),
(403,376,o),
(374,344,cs),
(285,243,l),
(207,352,ls),
(189,379,o),
(200,392,o),
(242,392,cs),
(251,392,o),
(251,418,o),
(242,418,c),
(211,416,o),
(181,415,o),
(150,415,cs),
(120,415,o),
(89,416,o),
(58,418,c),
(49,418,o),
(49,392,o),
(58,392,cs),
(75,392,o),
(97,381,o),
(117,357,cs),
(242,206,l),
(101,58,ls),
(80,36,o),
(48,24,o),
(12,24,cs),
(3,24,o),
(3,-4,o),
(12,-4,c)
);
}
);
width = 523;
},
{
anchors = (
{
name = bottom;
pos = (324,1);
},
{
name = top;
pos = (357,661);
},
{
name = us;
pos = (609,661);
},
{
name = zzcurly;
pos = (540,603);
}
);
layerId = "00F4936D-6309-4DEC-83B3-42806ED1A477";
shapes = (
{
closed = 1;
nodes = (
(50,0,o),
(85,0,o),
(120,0,cs),
(156,0,o),
(190,0,o),
(227,-3,c),
(240,-3,o),
(241,31,o),
(227,31,cs),
(171,31,o),
(163,53,o),
(198,108,cs),
(325,303,l),
(448,96,ls),
(478,48,o),
(462,31,o),
(387,31,cs),
(373,31,o),
(373,-3,o),
(387,-3,c),
(424,0,o),
(469,0,o),
(529,0,cs),
(587,0,o),
(631,0,o),
(667,-3,c),
(679,-3,o),
(680,31,o),
(667,31,cs),
(619,31,o),
(580,55,o),
(552,98,cs),
(385,358,l),
(552,573,ls),
(583,614,o),
(615,632,o),
(647,632,cs),
(661,632,o),
(661,666,o),
(647,666,c),
(621,663,o),
(583,663,o),
(541,663,cs),
(498,663,o),
(463,663,o),
(437,666,c),
(423,666,o),
(424,632,o),
(437,632,cs),
(502,632,o),
(519,603,o),
(483,554,cs),
(364,386,l),
(258,567,ls),
(233,608,o),
(252,632,o),
(309,632,cs),
(322,632,o),
(323,666,o),
(309,666,c),
(284,663,o),
(244,663,o),
(192,663,cs),
(135,663,o),
(101,663,o),
(76,666,c),
(63,666,o),
(62,632,o),
(76,632,cs),
(96,632,o),
(120,614,o),
(146,576,cs),
(308,331,l),
(124,87,ls),
(98,53,o),
(63,31,o),
(16,31,cs),
(2,31,o),
(2,-3,o),
(16,-3,c)
);
}
);
width = 669;
}
);
unicode = 120;
userData = {
KernOnName = x;
};
}
{
glyphname = exclamdown;
kernRight = KO_colon;
layers = (
{
layerId = master01;
shapes = (
{
closed = 1;
nodes = (
(150,-271,o),
(172,-244,o),
(172,-210,cs),
(172,-192,o),
(168,-135,o),
(159,-40,cs),
(151,55,o),
(145,135,o),
(143,200,cs),
(142,205,o),
(137,208,o),
(126,208,cs),
(116,208,o),
(111,205,o),
(110,200,cs),
(106,133,o),
(100,52,o),
(89,-43,cs),
(79,-138,o),
(74,-196,o),
(74,-216,cs),
(74,-252,o),
(91,-271,o),
(125,-271,cs)
);
},
{
closed = 1;
nodes = (
(162,310,o),
(186,333,o),
(186,367,cs),
(186,401,o),
(162,425,o),
(127,425,cs),
(92,425,o),
(68,401,o),
(68,367,cs),
(68,333,o),
(92,310,o),
(127,310,cs)
);
}
);
width = 254;
},
{
layerId = "75918100-ED89-42A8-B0FE-888EB9C86810";
shapes = (
{
closed = 1;
nodes = (
(174,-272,o),
(199,-248,o),
(199,-214,cs),
(199,-175,o),
(192,-127,o),
(180,-18,cs),
(167,92,o),
(160,163,o),
(160,196,cs),
(159,203,o),
(150,206,o),
(134,206,cs),
(118,206,o),
(110,203,o),
(110,196,cs),
(107,146,o),
(98,92,o),
(86,-18,cs),
(74,-126,o),
(66,-175,o),
(66,-214,cs),
(66,-248,o),
(91,-272,o),
(132,-272,cs)
);
},
{
closed = 1;
nodes = (
(178,275,o),
(210,306,o),
(210,350,cs),
(210,393,o),
(178,424,o),
(133,424,cs),
(88,424,o),
(57,393,o),
(57,350,cs),
(57,306,o),
(88,275,o),
(133,275,cs)
);
}
);
width = 253;
},
{
layerId = "6ABD9449-5E80-4451-809E-12ADEB9E9AB4";
shapes = (
{
closed = 1;
nodes = (
(143,-270,o),
(164,-243,o),
(164,-208,cs),
(164,-197,o),
(160,-138,o),
(152,-47,cs),
(146,43,o),
(140,125,o),
(137,201,cs),
(136,206,o),
(132,208,o),
(124,208,cs),
(116,208,o),
(111,206,o),
(110,201,cs),
(106,128,o),
(100,39,o),
(90,-52,cs),
(81,-142,o),
(77,-203,o),
(77,-217,cs),
(77,-254,o),
(91,-270,o),
(122,-270,cs)
);
},
{
closed = 1;
nodes = (
(155,320,o),
(177,342,o),
(177,373,cs),
(177,403,o),
(155,424,o),
(124,424,cs),
(92,424,o),
(70,403,o),
(70,373,cs),
(70,342,o),
(92,320,o),
(124,320,cs)
);
}
);
width = 254;
},
{
layerId = "70B83247-6FA0-4662-9656-C86DD2A17D3B";
shapes = (
{
closed = 1;
nodes = (
(130,-271,o),
(148,-246,o),
(148,-211,cs),
(148,-189,o),
(144,-121,o),
(137,-33,cs),
(130,51,o),
(124,130,o),
(122,198,cs),
(122,205,o),
(116,207,o),
(106,207,cs),
(98,207,o),
(92,205,o),
(91,199,cs),
(89,150,o),
(83,68,o),
(73,-36,cs),
(64,-137,o),
(60,-191,o),
(60,-215,cs),
(60,-251,o),
(76,-271,o),
(105,-271,cs)
);
},
{
closed = 1;
nodes = (
(141,310,o),
(165,333,o),
(165,367,cs),
(165,401,o),
(141,425,o),
(106,425,cs),
(71,425,o),
(47,401,o),
(47,367,cs),
(47,333,o),
(71,310,o),
(106,310,cs)
);
}
);
width = 214;
},
{
layerId = "9E6FDE2E-55A6-44A9-9556-F1822294BF26";
shapes = (
{
closed = 1;
nodes = (
(171,-270,o),
(196,-243,o),
(196,-209,cs),
(196,-194,o),
(192,-149,o),
(182,-47,cs),
(172,59,o),
(166,140,o),
(163,201,cs),
(162,205,o),
(158,208,o),
(146,208,cs),
(135,208,o),
(130,205,o),
(129,200,cs),
(124,115,o),
(117,36,o),
(105,-51,cs),
(94,-139,o),
(88,-201,o),
(88,-217,cs),
(88,-254,o),
(106,-270,o),
(144,-270,cs)
);
},
{
closed = 1;
nodes = (
(181,310,o),
(206,333,o),
(206,367,cs),
(206,401,o),
(181,425,o),
(146,425,cs),
(112,425,o),
(87,401,o),
(87,367,cs),
(87,333,o),
(112,310,o),
(146,310,cs)
);
}
);
width = 294;
},
{
layerId = "00F4936D-6309-4DEC-83B3-42806ED1A477";
shapes = (
{
closed = 1;
nodes = (
(150,-271,o),
(172,-244,o),
(172,-210,cs),
(172,-192,o),
(168,-135,o),
(159,-40,cs),
(151,55,o),
(145,135,o),
(143,200,cs),
(142,205,o),
(137,208,o),
(126,208,cs),
(116,208,o),
(111,205,o),
(110,200,cs),
(106,133,o),
(100,52,o),
(89,-43,cs),
(79,-138,o),
(74,-196,o),
(74,-216,cs),
(74,-252,o),
(91,-271,o),
(125,-271,cs)
);
},
{
closed = 1;
nodes = (
(162,310,o),
(186,333,o),
(186,367,cs),
(186,401,o),
(162,425,o),
(127,425,cs),
(92,425,o),
(68,401,o),
(68,367,cs),
(68,333,o),
(92,310,o),
(127,310,cs)
);
}
);
width = 254;
}
);
unicode = 161;
userData = {
KernOnSpecialSpacing = {
L = NoKerning;
R = "spaced-off";
};
};
}
{
glyphname = currency;
layers = (
{
layerId = master01;
shapes = (
{
closed = 1;
nodes = (
(298,114,o),
(340,128,o),
(378,157,c),
(416,119,ls),
(418,117,o),
(425,118,o),
(442,134,cs),
(455,147,o),
(461,156,o),
(457,160,cs),
(419,198,l),
(448,235,o),
(462,277,o),
(462,326,cs),
(462,374,o),
(448,417,o),
(419,454,c),
(457,492,ls),
(459,495,o),
(458,502,o),
(442,518,cs),
(427,533,o),
(419,536,o),
(416,533,cs),
(378,495,l),
(340,524,o),
(298,538,o),
(250,538,cs),
(202,538,o),
(160,524,o),
(123,495,c),
(84,533,ls),
(82,536,o),
(74,534,o),
(58,518,cs),
(43,503,o),
(40,495,o),
(43,492,cs),
(82,453,l),
(53,417,o),
(39,375,o),
(39,326,cs),
(39,278,o),
(53,236,o),
(82,199,c),
(43,160,ls),
(39,156,o),
(43,148,o),
(59,134,cs),
(73,121,o),
(81,116,o),
(84,119,cs),
(123,158,l),
(162,128,o),
(204,114,o),
(251,114,cs)
);
},
{
closed = 1;
nodes = (
(156,157,o),
(82,233,o),
(82,326,cs),
(82,419,o),
(157,495,o),
(250,495,cs),
(343,495,o),
(420,418,o),
(420,325,cs),
(420,232,o),
(345,157,o),
(251,157,cs)
);
}
);
width = 500;
},
{
layerId = "75918100-ED89-42A8-B0FE-888EB9C86810";
shapes = (
{
closed = 1;
nodes = (
(291,106,o),
(335,122,o),
(374,151,c),
(414,112,ls),
(416,109,o),
(423,111,o),
(440,127,cs),
(453,141,o),
(460,150,o),
(456,154,cs),
(417,194,l),
(446,232,o),
(461,276,o),
(461,326,cs),
(461,375,o),
(446,419,o),
(417,458,c),
(456,498,ls),
(458,500,o),
(457,508,o),
(440,525,cs),
(425,541,o),
(417,543,o),
(414,541,cs),
(374,501,l),
(335,531,o),
(291,545,o),
(242,545,cs),
(192,545,o),
(148,531,o),
(110,501,c),
(70,541,ls),
(67,543,o),
(60,542,o),
(43,525,cs),
(27,509,o),
(24,501,o),
(27,498,cs),
(68,458,l),
(38,419,o),
(23,376,o),
(23,326,cs),
(23,276,o),
(38,233,o),
(68,195,c),
(27,154,ls),
(23,150,o),
(27,142,o),
(43,127,cs),
(59,113,o),
(66,108,o),
(70,112,cs),
(110,152,l),
(150,122,o),
(194,106,o),
(243,106,cs)
);
},
{
closed = 1;
nodes = (
(154,169,o),
(86,240,o),
(86,326,cs),
(86,413,o),
(155,483,o),
(242,483,cs),
(328,483,o),
(399,412,o),
(399,325,cs),
(399,239,o),
(330,169,o),
(243,169,cs)
);
}
);
width = 484;
},
{
layerId = "6ABD9449-5E80-4451-809E-12ADEB9E9AB4";
shapes = (
{
closed = 1;
nodes = (
(300,116,o),
(342,131,o),
(379,159,c),
(417,122,ls),
(419,119,o),
(426,121,o),
(442,137,cs),
(455,149,o),
(462,158,o),
(458,162,cs),
(420,200,l),
(448,236,o),
(462,278,o),
(462,326,cs),
(462,374,o),
(448,416,o),
(420,453,c),
(458,490,ls),
(460,493,o),
(458,500,o),
(442,516,cs),
(427,531,o),
(420,534,o),
(417,531,cs),
(379,493,l),
(342,521,o),
(300,536,o),
(253,536,cs),
(205,536,o),
(164,521,o),
(127,493,c),
(89,531,ls),
(86,533,o),
(79,532,o),
(63,516,cs),
(48,501,o),
(45,493,o),
(48,490,cs),
(87,452,l),
(58,416,o),
(44,374,o),
(44,326,cs),
(44,278,o),
(58,237,o),
(87,201,c),
(48,162,ls),
(44,158,o),
(48,150,o),
(63,137,cs),
(78,123,o),
(85,118,o),
(89,122,cs),
(127,160,l),
(166,131,o),
(208,116,o),
(254,116,cs)
);
},
{
closed = 1;
nodes = (
(156,153,o),
(81,230,o),
(81,326,cs),
(81,422,o),
(157,499,o),
(253,499,cs),
(348,499,o),
(427,421,o),
(427,325,cs),
(427,229,o),
(350,153,o),
(254,153,cs)
);
}
);
width = 505;
},
{
layerId = "70B83247-6FA0-4662-9656-C86DD2A17D3B";
shapes = (
{
closed = 1;
nodes = (
(241,112,o),
(275,126,o),
(306,155,c),
(337,117,ls),
(339,114,o),
(345,116,o),
(357,132,cs),
(368,145,o),
(374,154,o),
(370,158,cs),
(339,197,l),
(363,234,o),
(374,278,o),
(374,326,cs),
(374,374,o),
(363,417,o),
(339,456,c),
(370,494,ls),
(372,497,o),
(371,504,o),
(357,521,cs),
(347,534,o),
(339,539,o),
(337,536,cs),
(306,497,l),
(275,526,o),
(241,541,o),
(203,541,cs),
(163,541,o),
(129,526,o),
(100,497,c),
(68,536,ls),
(66,538,o),
(60,536,o),
(47,521,cs),
(34,505,o),
(32,497,o),
(34,494,cs),
(66,455,l),
(42,417,o),
(31,374,o),
(31,326,cs),
(31,279,o),
(42,235,o),
(66,198,c),
(34,158,ls),
(31,154,o),
(34,146,o),
(47,132,cs),
(61,117,o),
(65,114,o),
(68,117,cs),
(100,156,l),
(131,126,o),
(165,112,o),
(203,112,cs)
);
},
{
closed = 1;
nodes = (
(129,161,o),
(71,235,o),
(71,326,cs),
(71,417,o),
(130,492,o),
(203,492,cs),
(274,492,o),
(334,417,o),
(334,325,cs),
(334,234,o),
(276,161,o),
(203,161,cs)
);
}
);
width = 404;
},
{
layerId = "9E6FDE2E-55A6-44A9-9556-F1822294BF26";
shapes = (
{
closed = 1;
nodes = (
(354,116,o),
(405,130,o),
(450,159,c),
(495,122,ls),
(498,119,o),
(506,120,o),
(526,137,cs),
(541,149,o),
(549,157,o),
(544,162,cs),
(499,200,l),
(533,236,o),
(550,277,o),
(550,326,cs),
(550,375,o),
(533,416,o),
(499,453,c),
(544,490,ls),
(547,493,o),
(545,500,o),
(526,516,cs),
(507,532,o),
(499,534,o),
(495,531,cs),
(450,493,l),
(405,522,o),
(354,536,o),
(297,536,cs),
(241,536,o),
(190,522,o),
(146,493,c),
(100,531,ls),
(97,533,o),
(89,532,o),
(69,516,cs),
(52,501,o),
(48,494,o),
(52,490,cs),
(98,452,l),
(64,416,o),
(47,375,o),
(47,326,cs),
(47,277,o),
(64,237,o),
(98,201,c),
(52,162,ls),
(47,158,o),
(52,150,o),
(70,136,cs),
(86,125,o),
(96,118,o),
(100,122,cs),
(146,160,l),
(192,130,o),
(244,116,o),
(299,116,cs)
);
},
{
closed = 1;
nodes = (
(183,154,o),
(93,231,o),
(93,326,cs),
(93,421,o),
(184,499,o),
(298,499,cs),
(411,499,o),
(505,420,o),
(505,325,cs),
(505,230,o),
(414,154,o),
(299,154,cs)
);
}
);
width = 596;
},
{
layerId = "00F4936D-6309-4DEC-83B3-42806ED1A477";
shapes = (
{
closed = 1;
nodes = (
(298,114,o),
(340,128,o),
(378,157,c),
(416,119,ls),
(418,117,o),
(425,118,o),
(442,134,cs),
(455,147,o),
(461,156,o),
(457,160,cs),
(419,198,l),
(448,235,o),
(462,277,o),
(462,326,cs),
(462,374,o),
(448,417,o),
(419,454,c),
(457,492,ls),
(459,495,o),
(458,502,o),
(442,518,cs),
(427,533,o),
(419,536,o),
(416,533,cs),
(378,495,l),
(340,524,o),
(298,538,o),
(250,538,cs),
(202,538,o),
(160,524,o),
(123,495,c),
(84,533,ls),
(82,536,o),
(74,534,o),
(58,518,cs),
(43,503,o),
(40,495,o),
(43,492,cs),
(82,453,l),
(53,417,o),
(39,375,o),
(39,326,cs),
(39,278,o),
(53,236,o),
(82,199,c),
(43,160,ls),
(39,156,o),
(43,148,o),
(59,134,cs),
(73,121,o),
(81,116,o),
(84,119,cs),
(123,158,l),
(162,128,o),
(204,114,o),
(251,114,cs)
);
},
{
closed = 1;
nodes = (
(156,157,o),
(82,233,o),
(82,326,cs),
(82,419,o),
(157,495,o),
(250,495,cs),
(343,495,o),
(420,418,o),
(420,325,cs),
(420,232,o),
(345,157,o),
(251,157,cs)
);
}
);
width = 500;
}
);
unicode = 164;
userData = {
KernOnSpecialSpacing = {
L = NoKerning;
R = NoKerning;
};
};
}
{
glyphname = ordfeminine;
kernLeft = KO_y;
layers = (
{
layerId = master01;
shapes = (
{
closed = 1;
nodes = (
(130,246,o),
(153,261,o),
(188,302,c),
(172,302,l),
(187,259,o),
(209,246,o),
(237,246,cs),
(262,246,o),
(281,258,o),
(297,285,cs),
(299,288,o),
(296,292,o),
(293,294,cs),
(291,297,o),
(286,298,o),
(285,297,cs),
(274,287,o),
(265,284,o),
(258,284,cs),
(244,284,o),
(235,297,o),
(235,324,cs),
(235,491,ls),
(235,521,o),
(228,533,o),
(211,544,cs),
(194,555,o),
(174,560,o),
(150,560,cs),
(87,560,o),
(26,519,o),
(26,468,cs),
(26,449,o),
(34,441,o),
(52,441,cs),
(71,441,o),
(80,459,o),
(81,481,cs),
(82,499,o),
(83,509,o),
(85,513,cs),
(94,524,o),
(106,530,o),
(126,530,cs),
(155,530,o),
(168,521,o),
(168,499,cs),
(168,437,ls),
(168,431,o),
(165,426,o),
(159,423,cs),
(104,395,ls),
(52,368,o),
(28,340,o),
(28,307,cs),
(28,274,o),
(52,246,o),
(97,246,cs)
);
},
{
closed = 1;
nodes = (
(109,284,o),
(96,305,o),
(96,329,cs),
(96,360,o),
(114,377,o),
(147,394,cs),
(157,399,o),
(161,401,o),
(163,401,cs),
(167,401,o),
(168,398,o),
(168,393,cs),
(168,323,ls),
(168,303,o),
(153,284,o),
(129,284,cs)
);
}
);
width = 293;
},
{
layerId = "75918100-ED89-42A8-B0FE-888EB9C86810";
shapes = (
{
closed = 1;
nodes = (
(120,246,o),
(155,253,o),
(176,286,c),
(167,285,l),
(199,251,o),
(226,246,o),
(247,246,cs),
(277,246,o),
(300,262,o),
(314,284,cs),
(316,288,o),
(316,290,o),
(310,294,cs),
(303,299,o),
(302,299,o),
(301,296,cs),
(295,286,o),
(286,285,o),
(277,285,cs),
(262,285,o),
(252,297,o),
(252,324,cs),
(252,487,ls),
(252,515,o),
(244,527,o),
(225,540,cs),
(207,552,o),
(184,560,o),
(154,560,cs),
(88,560,o),
(21,523,o),
(21,463,cs),
(21,437,o),
(32,427,o),
(57,427,cs),
(86,427,o),
(94,458,o),
(94,477,cs),
(94,494,o),
(96,505,o),
(99,508,cs),
(108,518,o),
(113,523,o),
(128,523,cs),
(153,523,o),
(162,513,o),
(162,491,cs),
(162,433,ls),
(162,426,o),
(157,418,o),
(147,414,cs),
(95,391,ls),
(43,369,o),
(21,338,o),
(21,307,cs),
(21,275,o),
(47,246,o),
(98,246,cs)
);
},
{
closed = 1;
nodes = (
(117,286,o),
(113,308,o),
(113,329,cs),
(113,362,o),
(128,375,o),
(149,386,cs),
(155,389,o),
(155,389,o),
(156,389,cs),
(160,389,o),
(162,386,o),
(162,381,cs),
(162,321,ls),
(162,297,o),
(155,286,o),
(133,286,cs)
);
}
);
width = 309;
},
{
layerId = "6ABD9449-5E80-4451-809E-12ADEB9E9AB4";
shapes = (
{
closed = 1;
nodes = (
(133,246,o),
(154,263,o),
(193,309,c),
(174,310,l),
(181,265,o),
(198,246,o),
(231,246,cs),
(256,246,o),
(271,257,o),
(288,284,cs),
(290,289,o),
(287,292,o),
(285,294,cs),
(284,295,o),
(278,299,o),
(276,297,cs),
(263,287,o),
(254,284,o),
(248,284,cs),
(235,284,o),
(227,297,o),
(227,324,cs),
(227,494,ls),
(227,524,o),
(219,536,o),
(203,546,cs),
(188,555,o),
(168,560,o),
(148,560,cs),
(85,560,o),
(28,516,o),
(28,470,cs),
(28,455,o),
(34,448,o),
(49,448,cs),
(62,448,o),
(72,460,o),
(74,483,cs),
(75,502,o),
(75,511,o),
(79,516,cs),
(87,527,o),
(103,533,o),
(125,533,cs),
(160,533,o),
(171,520,o),
(171,502,cs),
(171,439,ls),
(171,434,o),
(168,430,o),
(164,427,cs),
(106,396,ls),
(56,368,o),
(31,341,o),
(31,307,cs),
(31,274,o),
(54,246,o),
(97,246,cs)
);
},
{
closed = 1;
nodes = (
(104,282,o),
(87,304,o),
(87,329,cs),
(87,359,o),
(106,378,o),
(145,397,cs),
(158,404,o),
(164,407,o),
(166,407,cs),
(169,407,o),
(171,404,o),
(171,399,cs),
(171,324,ls),
(171,307,o),
(153,282,o),
(127,282,cs)
);
}
);
width = 286;
},
{
layerId = "70B83247-6FA0-4662-9656-C86DD2A17D3B";
shapes = (
{
closed = 1;
nodes = (
(103,246,o),
(125,259,o),
(148,297,c),
(138,297,l),
(155,257,o),
(174,246,o),
(194,246,cs),
(215,246,o),
(231,257,o),
(245,285,cs),
(246,288,o),
(245,292,o),
(242,294,cs),
(238,298,o),
(235,298,o),
(234,297,cs),
(229,288,o),
(222,285,o),
(214,285,cs),
(203,285,o),
(195,298,o),
(195,324,cs),
(195,490,ls),
(195,519,o),
(189,531,o),
(175,543,cs),
(162,554,o),
(144,560,o),
(123,560,cs),
(72,560,o),
(21,520,o),
(21,467,cs),
(21,445,o),
(29,437,o),
(45,437,cs),
(63,437,o),
(69,457,o),
(70,479,cs),
(71,496,o),
(72,509,o),
(75,512,cs),
(81,522,o),
(89,528,o),
(103,528,cs),
(126,528,o),
(134,517,o),
(134,496,cs),
(134,436,ls),
(134,430,o),
(131,424,o),
(125,420,cs),
(82,394,ls),
(42,369,o),
(22,340,o),
(22,307,cs),
(22,275,o),
(42,246,o),
(80,246,cs)
);
},
{
closed = 1;
nodes = (
(91,285,o),
(84,306,o),
(84,329,cs),
(84,362,o),
(99,377,o),
(120,391,cs),
(127,396,o),
(129,397,o),
(130,397,cs),
(133,397,o),
(134,395,o),
(134,389,cs),
(134,323,ls),
(134,301,o),
(125,285,o),
(106,285,cs)
);
}
);
width = 242;
},
{
layerId = "9E6FDE2E-55A6-44A9-9556-F1822294BF26";
shapes = (
{
closed = 1;
nodes = (
(158,246,o),
(182,263,o),
(228,307,c),
(206,308,l),
(219,262,o),
(244,246,o),
(279,246,cs),
(310,246,o),
(330,258,o),
(349,285,cs),
(352,288,o),
(347,293,o),
(345,294,cs),
(343,296,o),
(337,298,o),
(335,297,cs),
(320,286,o),
(307,284,o),
(302,284,cs),
(286,284,o),
(275,297,o),
(275,324,cs),
(275,493,ls),
(275,524,o),
(266,536,o),
(247,545,cs),
(227,556,o),
(204,560,o),
(178,560,cs),
(102,560,o),
(31,517,o),
(31,470,cs),
(31,453,o),
(40,445,o),
(59,445,cs),
(79,445,o),
(90,462,o),
(91,482,cs),
(92,501,o),
(93,510,o),
(96,514,cs),
(107,526,o),
(124,532,o),
(149,532,cs),
(183,532,o),
(203,525,o),
(203,501,cs),
(203,438,ls),
(203,433,o),
(199,429,o),
(192,426,cs),
(125,396,ls),
(63,367,o),
(35,340,o),
(35,307,cs),
(35,274,o),
(63,246,o),
(115,246,cs)
);
},
{
closed = 1;
nodes = (
(126,283,o),
(108,304,o),
(108,329,cs),
(108,358,o),
(130,377,o),
(174,396,cs),
(188,402,o),
(193,405,o),
(196,405,cs),
(200,405,o),
(203,402,o),
(203,397,cs),
(203,324,ls),
(203,305,o),
(182,283,o),
(152,283,cs)
);
}
);
width = 345;
},
{
layerId = "00F4936D-6309-4DEC-83B3-42806ED1A477";
shapes = (
{
closed = 1;
nodes = (
(130,246,o),
(153,261,o),
(188,302,c),
(172,302,l),
(187,259,o),
(209,246,o),
(237,246,cs),
(262,246,o),
(281,258,o),
(297,285,cs),
(299,288,o),
(296,292,o),
(293,294,cs),
(291,297,o),
(286,298,o),
(285,297,cs),
(274,287,o),
(265,284,o),
(258,284,cs),
(244,284,o),
(235,297,o),
(235,324,cs),
(235,491,ls),
(235,521,o),
(228,533,o),
(211,544,cs),
(194,555,o),
(174,560,o),
(150,560,cs),
(87,560,o),
(26,519,o),
(26,468,cs),
(26,449,o),
(34,441,o),
(52,441,cs),
(71,441,o),
(80,459,o),
(81,481,cs),
(82,499,o),
(83,509,o),
(85,513,cs),
(94,524,o),
(106,530,o),
(126,530,cs),
(155,530,o),
(168,521,o),
(168,499,cs),
(168,437,ls),
(168,431,o),
(165,426,o),
(159,423,cs),
(104,395,ls),
(52,368,o),
(28,340,o),
(28,307,cs),
(28,274,o),
(52,246,o),
(97,246,cs)
);
},
{
closed = 1;
nodes = (
(109,284,o),
(96,305,o),
(96,329,cs),
(96,360,o),
(114,377,o),
(147,394,cs),
(157,399,o),
(161,401,o),
(163,401,cs),
(167,401,o),
(168,398,o),
(168,393,cs),
(168,323,ls),
(168,303,o),
(153,284,o),
(129,284,cs)
);
}
);
width = 293;
}
);
unicode = 170;
userData = {
KernOnSpecialSpacing = {
L = superiors;
R = superiors;
};
};
}
{
glyphname = plusminus;
kernLeft = KO_colon;
layers = (
{
layerId = master01;
shapes = (
{
closed = 1;
nodes = (
(280,110,l),
(280,291,l),
(443,291,l),
(443,340,l),
(280,340,l),
(280,504,l),
(221,504,l),
(221,340,l),
(58,340,l),
(58,291,l),
(221,291,l),
(221,110,l)
);
},
{
closed = 1;
nodes = (
(443,1,l),
(443,50,l),
(58,50,l),
(58,1,l)
);
}
);
width = 500;
},
{
layerId = "75918100-ED89-42A8-B0FE-888EB9C86810";
shapes = (
{
closed = 1;
nodes = (
(305,140,l),
(305,307,l),
(451,307,l),
(451,379,l),
(305,379,l),
(305,528,l),
(217,528,l),
(217,379,l),
(70,379,l),
(70,307,l),
(217,307,l),
(217,140,l)
);
},
{
closed = 1;
nodes = (
(451,-3,l),
(451,69,l),
(70,69,l),
(70,-3,l)
);
}
);
width = 519;
},
{
layerId = "6ABD9449-5E80-4451-809E-12ADEB9E9AB4";
shapes = (
{
closed = 1;
nodes = (
(271,100,l),
(271,286,l),
(440,286,l),
(440,327,l),
(271,327,l),
(271,496,l),
(223,496,l),
(223,327,l),
(54,327,l),
(54,286,l),
(223,286,l),
(223,100,l)
);
},
{
closed = 1;
nodes = (
(440,2,l),
(440,43,l),
(54,43,l),
(54,2,l)
);
}
);
width = 494;
},
{
layerId = "70B83247-6FA0-4662-9656-C86DD2A17D3B";
shapes = (
{
closed = 1;
nodes = (
(228,119,l),
(228,296,l),
(354,296,l),
(354,352,l),
(228,352,l),
(228,511,l),
(172,511,l),
(172,352,l),
(46,352,l),
(46,296,l),
(172,296,l),
(172,119,l)
);
},
{
closed = 1;
nodes = (
(354,0,l),
(354,56,l),
(46,56,l),
(46,0,l)
);
}
);
width = 399;
},
{
layerId = "9E6FDE2E-55A6-44A9-9556-F1822294BF26";
shapes = (
{
closed = 1;
nodes = (
(332,101,l),
(332,286,l),
(532,286,l),
(532,328,l),
(332,328,l),
(332,497,l),
(271,497,l),
(271,328,l),
(70,328,l),
(70,286,l),
(271,286,l),
(271,101,l)
);
},
{
closed = 1;
nodes = (
(532,2,l),
(532,44,l),
(70,44,l),
(70,2,l)
);
}
);
width = 601;
},
{
layerId = "00F4936D-6309-4DEC-83B3-42806ED1A477";
shapes = (
{
closed = 1;
nodes = (
(280,110,l),
(280,291,l),
(443,291,l),
(443,340,l),
(280,340,l),
(280,504,l),
(221,504,l),
(221,340,l),
(58,340,l),
(58,291,l),
(221,291,l),
(221,110,l)
);
},
{
closed = 1;
nodes = (
(443,1,l),
(443,50,l),
(58,50,l),
(58,1,l)
);
}
);
width = 500;
}
);
unicode = 177;
userData = {
KernOnSpecialSpacing = {
L = math;
R = math;
};
};
}
{
glyphname = micro;
layers = (
{
layerId = master01;
shapes = (
{
closed = 1;
nodes = (
(138,-240,o),
(154,-223,o),
(154,-188,cs),
(154,-167,o),
(153,-147,o),
(152,-127,cs),
(150,-107,o),
(150,-84,o),
(150,-60,cs),
(150,-35,o),
(152,-9,o),
(154,11,c),
(172,-3,o),
(193,-11,o),
(215,-11,cs),
(261,-11,o),
(298,4,o),
(330,32,cs),
(335,37,o),
(339,40,o),
(343,40,cs),
(347,40,o),
(349,36,o),
(349,28,cs),
(349,6,ls),
(349,-9,o),
(351,-16,o),
(356,-16,cs),
(358,-16,o),
(359,-16,o),
(360,-16,cs),
(369,-12,o),
(392,-6,o),
(427,2,cs),
(462,10,o),
(484,14,o),
(494,15,cs),
(499,16,o),
(498,23,o),
(497,32,cs),
(496,38,o),
(493,44,o),
(489,43,cs),
(480,41,o),
(472,40,o),
(463,40,cs),
(431,40,o),
(423,65,o),
(423,111,cs),
(423,337,ls),
(423,354,o),
(424,377,o),
(426,405,c),
(426,414,o),
(423,418,o),
(417,418,cs),
(413,418,o),
(401,417,o),
(383,414,cs),
(364,411,o),
(334,410,o),
(294,410,cs),
(290,410,o),
(287,405,o),
(287,396,cs),
(287,387,o),
(290,382,o),
(294,382,cs),
(331,382,o),
(349,358,o),
(349,311,cs),
(349,123,ls),
(349,72,o),
(293,36,o),
(239,36,cs),
(180,36,o),
(161,98,o),
(161,163,cs),
(161,336,ls),
(161,346,o),
(162,371,o),
(165,411,c),
(165,416,o),
(162,418,o),
(155,418,cs),
(149,418,o),
(136,417,o),
(115,414,cs),
(94,411,o),
(66,410,o),
(32,410,cs),
(27,410,o),
(24,405,o),
(24,396,cs),
(24,387,o),
(27,382,o),
(32,382,cs),
(68,382,o),
(86,358,o),
(86,311,cs),
(86,146,ls),
(86,57,o),
(83,-14,o),
(74,-67,cs),
(66,-120,o),
(62,-162,o),
(62,-193,cs),
(62,-225,o),
(76,-240,o),
(105,-240,cs)
);
}
);
width = 512;
},
{
layerId = "75918100-ED89-42A8-B0FE-888EB9C86810";
shapes = (
{
closed = 1;
nodes = (
(134,-240,o),
(155,-223,o),
(155,-188,cs),
(155,-167,o),
(154,-147,o),
(152,-127,cs),
(150,-107,o),
(149,-84,o),
(149,-60,cs),
(149,-37,o),
(151,-17,o),
(154,2,c),
(175,-7,o),
(198,-11,o),
(221,-11,cs),
(271,-11,o),
(312,3,o),
(341,32,cs),
(346,37,o),
(351,39,o),
(354,39,cs),
(358,39,o),
(360,35,o),
(360,28,cs),
(360,5,ls),
(360,-10,o),
(363,-17,o),
(367,-17,cs),
(372,-17,o),
(375,-17,o),
(379,-15,cs),
(399,-9,o),
(417,-4,o),
(436,0,cs),
(441,1,o),
(507,14,o),
(511,15,cs),
(516,17,o),
(515,29,o),
(513,35,cs),
(510,47,o),
(506,52,o),
(500,51,cs),
(493,49,o),
(487,48,o),
(483,48,cs),
(454,48,o),
(454,86,o),
(454,125,cs),
(454,323,ls),
(454,343,o),
(455,368,o),
(457,399,c),
(457,411,o),
(448,417,o),
(431,417,cs),
(427,417,o),
(421,417,o),
(413,415,cs),
(374,409,o),
(336,406,o),
(300,406,cs),
(295,406,o),
(292,400,o),
(292,388,cs),
(292,376,o),
(295,370,o),
(300,370,cs),
(328,370,o),
(341,353,o),
(341,320,cs),
(341,117,ls),
(341,80,o),
(288,45,o),
(250,45,cs),
(197,45,o),
(178,81,o),
(178,150,cs),
(178,317,ls),
(178,338,o),
(179,364,o),
(181,396,c),
(181,410,o),
(174,417,o),
(159,417,cs),
(153,417,o),
(145,417,o),
(134,415,cs),
(99,409,o),
(62,406,o),
(25,406,cs),
(21,406,o),
(19,400,o),
(19,388,cs),
(19,376,o),
(21,370,o),
(25,370,cs),
(53,370,o),
(66,353,o),
(66,320,cs),
(66,146,ls),
(66,57,o),
(62,-14,o),
(51,-67,cs),
(41,-120,o),
(36,-162,o),
(36,-193,cs),
(36,-225,o),
(54,-240,o),
(91,-240,cs)
);
}
);
width = 526;
},
{
layerId = "6ABD9449-5E80-4451-809E-12ADEB9E9AB4";
shapes = (
{
closed = 1;
nodes = (
(139,-240,o),
(153,-223,o),
(153,-188,cs),
(153,-167,o),
(153,-147,o),
(151,-127,cs),
(150,-107,o),
(150,-84,o),
(150,-60,cs),
(150,-34,o),
(152,-7,o),
(154,14,c),
(171,-1,o),
(191,-11,o),
(213,-11,cs),
(257,-11,o),
(293,4,o),
(325,32,cs),
(331,37,o),
(335,40,o),
(339,40,cs),
(342,40,o),
(344,36,o),
(344,28,cs),
(344,6,ls),
(344,-8,o),
(347,-16,o),
(353,-16,cs),
(355,-16,o),
(358,-15,o),
(360,-14,cs),
(366,-11,o),
(383,-7,o),
(424,2,cs),
(469,13,o),
(477,14,o),
(487,15,cs),
(493,15,o),
(492,21,o),
(491,31,cs),
(491,35,o),
(488,41,o),
(484,41,cs),
(476,39,o),
(467,38,o),
(457,38,cs),
(423,38,o),
(413,58,o),
(413,106,cs),
(413,342,ls),
(413,358,o),
(414,380,o),
(416,407,c),
(416,415,o),
(414,419,o),
(411,419,cs),
(408,419,o),
(395,417,o),
(373,415,cs),
(360,414,o),
(333,411,o),
(292,411,cs),
(288,411,o),
(285,407,o),
(285,398,cs),
(285,390,o),
(288,386,o),
(292,386,cs),
(331,386,o),
(351,360,o),
(351,308,cs),
(351,125,ls),
(351,69,o),
(295,33,o),
(235,33,cs),
(174,33,o),
(154,104,o),
(154,167,cs),
(154,343,ls),
(154,368,o),
(156,387,o),
(159,416,c),
(159,418,o),
(157,419,o),
(154,419,cs),
(147,419,o),
(132,417,o),
(108,414,cs),
(87,411,o),
(67,411,o),
(34,411,cs),
(28,411,o),
(26,407,o),
(26,398,cs),
(26,390,o),
(28,386,o),
(34,386,cs),
(73,386,o),
(92,360,o),
(92,308,cs),
(92,146,ls),
(92,57,o),
(89,-14,o),
(82,-67,cs),
(74,-120,o),
(70,-162,o),
(70,-193,cs),
(70,-225,o),
(83,-240,o),
(109,-240,cs)
);
}
);
width = 508;
},
{
guides = (
{
pos = (1051,446);
showMeasurement = 1;
}
);
layerId = "70B83247-6FA0-4662-9656-C86DD2A17D3B";
shapes = (
{
closed = 1;
nodes = (
(112,-240,o),
(126,-222,o),
(126,-188,cs),
(126,-167,o),
(126,-147,o),
(125,-127,cs),
(124,-114,o),
(123,-89,o),
(123,-59,cs),
(123,-37,o),
(125,-13,o),
(127,8,c),
(143,-4,o),
(160,-11,o),
(178,-11,cs),
(217,-11,o),
(248,4,o),
(271,32,cs),
(274,35,o),
(278,40,o),
(283,40,cs),
(286,40,o),
(288,35,o),
(288,28,cs),
(288,6,ls),
(288,-9,o),
(290,-16,o),
(293,-16,cs),
(295,-16,o),
(296,-16,o),
(298,-15,cs),
(310,-10,o),
(332,-4,o),
(348,1,cs),
(367,7,o),
(398,14,o),
(405,16,cs),
(409,17,o),
(409,29,o),
(408,33,cs),
(406,40,o),
(403,48,o),
(399,46,cs),
(391,44,o),
(387,43,o),
(382,43,cs),
(354,43,o),
(354,84,o),
(354,117,cs),
(354,332,ls),
(354,345,o),
(355,364,o),
(357,403,c),
(357,413,o),
(352,418,o),
(343,418,cs),
(339,418,o),
(330,417,o),
(323,415,cs),
(298,410,o),
(275,409,o),
(241,409,cs),
(237,409,o),
(235,403,o),
(235,393,cs),
(235,384,o),
(237,378,o),
(241,378,cs),
(267,378,o),
(280,356,o),
(280,315,cs),
(280,121,ls),
(280,76,o),
(236,40,o),
(199,40,cs),
(155,40,o),
(139,92,o),
(139,158,cs),
(139,329,ls),
(139,339,o),
(140,366,o),
(142,405,c),
(142,414,o),
(138,418,o),
(129,418,cs),
(125,418,o),
(113,417,o),
(104,415,cs),
(76,410,o),
(49,409,o),
(26,409,cs),
(22,409,o),
(21,403,o),
(21,393,cs),
(21,383,o),
(22,378,o),
(26,378,cs),
(52,378,o),
(64,356,o),
(64,315,cs),
(64,146,ls),
(64,88,o),
(64,2,o),
(53,-69,cs),
(46,-120,o),
(42,-161,o),
(42,-193,cs),
(42,-224,o),
(56,-240,o),
(82,-240,cs)
);
}
);
width = 420;
},
{
layerId = "9E6FDE2E-55A6-44A9-9556-F1822294BF26";
shapes = (
{
closed = 1;
nodes = (
(166,-241,o),
(183,-223,o),
(183,-188,cs),
(183,-167,o),
(182,-147,o),
(181,-127,cs),
(179,-100,o),
(179,-80,o),
(179,-60,cs),
(179,-32,o),
(181,-5,o),
(184,14,c),
(204,-1,o),
(228,-12,o),
(255,-12,cs),
(306,-12,o),
(351,3,o),
(390,32,cs),
(398,39,o),
(402,39,o),
(406,39,cs),
(410,39,o),
(412,37,o),
(412,27,cs),
(412,6,ls),
(412,-8,o),
(415,-16,o),
(422,-16,cs),
(423,-16,o),
(423,-16,o),
(423,-16,cs),
(430,-13,o),
(454,-9,o),
(508,2,cs),
(560,13,o),
(572,14,o),
(584,15,cs),
(590,15,o),
(589,18,o),
(587,31,cs),
(587,36,o),
(584,40,o),
(581,40,cs),
(572,38,o),
(559,37,o),
(546,37,cs),
(509,37,o),
(494,45,o),
(494,104,cs),
(494,343,ls),
(494,364,o),
(496,390,o),
(497,408,c),
(497,415,o),
(496,419,o),
(492,419,cs),
(488,419,o),
(475,417,o),
(445,413,cs),
(431,412,o),
(396,411,o),
(350,411,cs),
(344,411,o),
(341,408,o),
(341,399,cs),
(341,390,o),
(344,387,o),
(350,387,cs),
(397,387,o),
(419,360,o),
(419,306,cs),
(419,125,ls),
(419,68,o),
(353,32,o),
(281,32,cs),
(208,32,o),
(184,104,o),
(184,168,cs),
(184,344,ls),
(184,352,o),
(186,375,o),
(189,416,c),
(189,418,o),
(188,419,o),
(183,419,cs),
(174,419,o),
(160,417,o),
(128,413,cs),
(113,413,o),
(84,411,o),
(39,411,cs),
(33,411,o),
(30,408,o),
(30,399,cs),
(30,390,o),
(33,387,o),
(39,387,cs),
(86,387,o),
(109,360,o),
(109,306,cs),
(109,146,ls),
(109,26,o),
(103,-30,o),
(97,-64,cs),
(88,-121,o),
(84,-163,o),
(84,-194,cs),
(84,-226,o),
(99,-241,o),
(130,-241,cs)
);
}
);
width = 607;
},
{
layerId = "00F4936D-6309-4DEC-83B3-42806ED1A477";
metricLeft = "=24";
metricRight = "=14";
shapes = (
{
closed = 1;
nodes = (
(138,-240,o),
(154,-223,o),
(154,-188,cs),
(154,-167,o),
(153,-147,o),
(152,-127,cs),
(150,-107,o),
(150,-84,o),
(150,-60,cs),
(150,-35,o),
(152,-9,o),
(154,11,c),
(172,-3,o),
(193,-11,o),
(215,-11,cs),
(261,-11,o),
(298,4,o),
(330,32,cs),
(335,37,o),
(339,40,o),
(343,40,cs),
(347,40,o),
(349,36,o),
(349,28,cs),
(349,6,ls),
(349,-9,o),
(351,-16,o),
(356,-16,cs),
(358,-16,o),
(359,-16,o),
(360,-16,cs),
(369,-12,o),
(392,-6,o),
(427,2,cs),
(462,10,o),
(484,14,o),
(494,15,cs),
(499,16,o),
(498,23,o),
(497,32,cs),
(496,38,o),
(493,44,o),
(489,43,cs),
(480,41,o),
(472,40,o),
(463,40,cs),
(431,40,o),
(423,65,o),
(423,111,cs),
(423,337,ls),
(423,354,o),
(424,377,o),
(426,405,c),
(426,414,o),
(423,418,o),
(417,418,cs),
(413,418,o),
(401,417,o),
(383,414,cs),
(364,411,o),
(334,410,o),
(294,410,cs),
(290,410,o),
(287,405,o),
(287,396,cs),
(287,387,o),
(290,382,o),
(294,382,cs),
(331,382,o),
(349,358,o),
(349,311,cs),
(349,123,ls),
(349,72,o),
(293,36,o),
(239,36,cs),
(180,36,o),
(161,98,o),
(161,163,cs),
(161,336,ls),
(161,346,o),
(162,371,o),
(165,411,c),
(165,416,o),
(162,418,o),
(155,418,cs),
(149,418,o),
(136,417,o),
(115,414,cs),
(94,411,o),
(66,410,o),
(32,410,cs),
(27,410,o),
(24,405,o),
(24,396,cs),
(24,387,o),
(27,382,o),
(32,382,cs),
(68,382,o),
(86,358,o),
(86,311,cs),
(86,146,ls),
(86,57,o),
(83,-14,o),
(74,-67,cs),
(66,-120,o),
(62,-162,o),
(62,-193,cs),
(62,-225,o),
(76,-240,o),
(105,-240,cs)
);
}
);
width = 512;
}
);
metricLeft = u;
metricRight = u;
unicode = 181;
userData = {
KernOnSpecialSpacing = {
L = NoKerning;
R = NoKerning;
};
};
}
{
glyphname = Oslash;
kernLeft = KO_dinsular.alt;
kernRight = KO_O;
layers = (
{
anchors = (
{
name = bottom;
pos = (353,0);
},
{
name = ogonek;
pos = (430,8);
},
{
name = ogonek_above;
pos = (353,653);
},
{
name = top;
pos = (353,663);
}
);
layerId = master01;
shapes = (
{
closed = 1;
nodes = (
(532,-13,o),
(671,140,o),
(671,332,cs),
(671,523,o),
(532,676,o),
(356,676,cs),
(180,676,o),
(40,523,o),
(40,332,cs),
(40,140,o),
(180,-13,o),
(356,-13,cs)
);
},
{
closed = 1;
nodes = (
(229,23,o),
(134,156,o),
(134,333,cs),
(134,509,o),
(229,642,o),
(356,642,cs),
(483,642,o),
(578,509,o),
(578,333,cs),
(578,156,o),
(483,23,o),
(356,23,cs)
);
},
{
closed = 1;
nodes = (
(632,620,ls),
(642,630,o),
(606,655,o),
(600,647,cs),
(79,26,ls),
(71,17,o),
(103,-10,o),
(109,-3,cs)
);
}
);
width = 711;
},
{
anchors = (
{
name = bottom;
pos = (373,0);
},
{
name = ogonek;
pos = (434,8);
},
{
name = ogonek_above;
pos = (347,653);
},
{
name = top;
pos = (373,663);
}
);
layerId = "75918100-ED89-42A8-B0FE-888EB9C86810";
shapes = (
{
closed = 1;
nodes = (
(555,-13,o),
(699,135,o),
(699,332,cs),
(699,528,o),
(555,676,o),
(364,676,cs),
(172,676,o),
(28,528,o),
(28,332,cs),
(28,135,o),
(172,-13,o),
(364,-13,cs)
);
},
{
closed = 1;
nodes = (
(248,33,o),
(161,162,o),
(161,333,cs),
(161,504,o),
(248,633,o),
(364,633,cs),
(479,633,o),
(566,504,o),
(566,333,cs),
(566,162,o),
(479,33,o),
(364,33,cs)
);
},
{
closed = 1;
nodes = (
(634,660,ls),
(642,672,o),
(588,708,o),
(579,697,cs),
(86,-7,ls),
(76,-21,o),
(132,-61,o),
(142,-45,cs)
);
}
);
width = 727;
},
{
anchors = (
{
name = bottom;
pos = (346,0);
},
{
name = ogonek;
pos = (408,8);
},
{
name = ogonek_above;
pos = (343,653);
},
{
name = top;
pos = (346,663);
}
);
layerId = "6ABD9449-5E80-4451-809E-12ADEB9E9AB4";
shapes = (
{
closed = 1;
nodes = (
(523,-13,o),
(661,141,o),
(661,332,cs),
(661,522,o),
(523,676,o),
(352,676,cs),
(182,676,o),
(44,522,o),
(44,332,cs),
(44,141,o),
(182,-13,o),
(352,-13,cs)
);
},
{
closed = 1;
nodes = (
(222,20,o),
(124,154,o),
(124,333,cs),
(124,511,o),
(222,645,o),
(352,645,cs),
(483,645,o),
(581,511,o),
(581,333,cs),
(581,154,o),
(483,20,o),
(352,20,cs)
);
},
{
closed = 1;
nodes = (
(616,618,ls),
(625,628,o),
(597,649,o),
(590,642,cs),
(83,28,ls),
(77,21,o),
(102,-2,o),
(106,3,cs)
);
}
);
width = 705;
},
{
anchors = (
{
name = bottom;
pos = (293,0);
},
{
name = ogonek;
pos = (352,8);
},
{
name = ogonek_above;
pos = (288,653);
},
{
name = top;
pos = (293,663);
}
);
layerId = "70B83247-6FA0-4662-9656-C86DD2A17D3B";
shapes = (
{
closed = 1;
nodes = (
(436,-13,o),
(550,140,o),
(550,332,cs),
(550,523,o),
(436,676,o),
(292,676,cs),
(148,676,o),
(34,523,o),
(34,332,cs),
(34,140,o),
(148,-13,o),
(292,-13,cs)
);
},
{
closed = 1;
nodes = (
(195,23,o),
(127,151,o),
(127,333,cs),
(127,514,o),
(195,642,o),
(292,642,cs),
(389,642,o),
(457,514,o),
(457,333,cs),
(457,151,o),
(389,23,o),
(292,23,cs)
);
},
{
closed = 1;
nodes = (
(513,635,ls),
(519,645,o),
(482,667,o),
(476,658,cs),
(66,10,ls),
(59,0,o),
(96,-25,o),
(102,-16,cs)
);
}
);
width = 584;
},
{
anchors = (
{
name = bottom;
pos = (405,0);
},
{
name = ogonek;
pos = (500,8);
},
{
name = ogonek_above;
pos = (412,653);
},
{
name = top;
pos = (405,663);
}
);
layerId = "9E6FDE2E-55A6-44A9-9556-F1822294BF26";
shapes = (
{
closed = 1;
nodes = (
(620,-13,o),
(785,140,o),
(785,332,cs),
(785,523,o),
(620,676,o),
(413,676,cs),
(205,676,o),
(40,523,o),
(40,332,cs),
(40,140,o),
(205,-13,o),
(413,-13,cs)
);
},
{
closed = 1;
nodes = (
(257,23,o),
(133,160,o),
(133,333,cs),
(133,505,o),
(257,642,o),
(413,642,cs),
(569,642,o),
(692,505,o),
(692,333,cs),
(692,160,o),
(569,23,o),
(413,23,cs)
);
},
{
closed = 1;
nodes = (
(744,604,ls),
(757,615,o),
(724,643,o),
(716,636,cs),
(84,42,ls),
(76,34,o),
(104,5,o),
(109,10,cs)
);
}
);
width = 825;
},
{
anchors = (
{
name = bottom;
pos = (353,0);
},
{
name = ogonek;
pos = (430,8);
},
{
name = ogonek_above;
pos = (353,653);
},
{
name = top;
pos = (353,663);
}
);
layerId = "00F4936D-6309-4DEC-83B3-42806ED1A477";
shapes = (
{
closed = 1;
nodes = (
(532,-13,o),
(671,140,o),
(671,332,cs),
(671,523,o),
(532,676,o),
(356,676,cs),
(180,676,o),
(40,523,o),
(40,332,cs),
(40,140,o),
(180,-13,o),
(356,-13,cs)
);
},
{
closed = 1;
nodes = (
(229,23,o),
(134,156,o),
(134,333,cs),
(134,509,o),
(229,642,o),
(356,642,cs),
(483,642,o),
(578,509,o),
(578,333,cs),
(578,156,o),
(483,23,o),
(356,23,cs)
);
},
{
closed = 1;
nodes = (
(632,620,ls),
(642,630,o),
(606,655,o),
(600,647,cs),
(79,26,ls),
(71,17,o),
(103,-10,o),
(109,-3,cs)
);
}
);
width = 711;
}
);
metricLeft = O;
metricWidth = O;
unicode = 216;
}
{
glyphname = germandbls;
kernLeft = KO_f;
kernRight = KO_L;
layers = (
{
anchors = (
{
name = us;
pos = (556,415);
}
);
layerId = master01;
shapes = (
{
closed = 1;
nodes = (
(438,-12,o),
(500,43,o),
(500,130,cs),
(500,199,o),
(467,235,o),
(400,269,cs),
(349,294,o),
(323,312,o),
(323,355,cs),
(323,381,o),
(348,416,o),
(397,459,cs),
(446,503,o),
(471,544,o),
(471,584,cs),
(471,665,o),
(412,726,o),
(329,726,cs),
(192,726,o),
(98,603,o),
(98,451,cs),
(98,417,o),
(80,375,o),
(43,375,cs),
(39,375,o),
(36,371,o),
(36,362,cs),
(36,353,o),
(39,348,o),
(43,348,cs),
(85,348,ls),
(94,348,o),
(98,345,o),
(98,338,cs),
(98,64,l),
(172,64,l),
(172,440,ls),
(172,492,o),
(174,534,o),
(177,567,cs),
(183,632,o),
(222,686,o),
(290,686,cs),
(357,686,o),
(399,647,o),
(399,579,cs),
(399,526,o),
(386,494,o),
(346,455,cs),
(277,388,o),
(267,371,o),
(267,331,cs),
(267,264,o),
(314,230,o),
(369,201,cs),
(423,171,o),
(443,139,o),
(443,95,cs),
(443,61,o),
(409,19,o),
(372,19,cs),
(332,19,o),
(292,54,o),
(292,96,cs),
(292,101,o),
(286,103,o),
(280,103,cs),
(273,103,o),
(270,101,o),
(270,96,cs),
(270,62,o),
(272,36,o),
(277,17,c),
(306,-2,o),
(333,-12,o),
(358,-12,cs)
);
},
{
closed = 1;
nodes = (
(82,0,o),
(102,0,o),
(136,0,cs),
(170,0,o),
(189,0,o),
(230,-4,c),
(235,-4,o),
(237,1,o),
(237,10,cs),
(237,20,o),
(235,24,o),
(230,24,cs),
(192,24,o),
(172,32,o),
(172,62,cs),
(172,98,l),
(98,98,l),
(98,62,ls),
(98,32,o),
(79,24,o),
(41,24,cs),
(36,24,o),
(34,20,o),
(34,10,cs),
(34,1,o),
(36,-4,o),
(41,-4,c)
);
}
);
width = 542;
},
{
anchors = (
{
name = us;
pos = (591,415);
}
);
layerId = "75918100-ED89-42A8-B0FE-888EB9C86810";
shapes = (
{
closed = 1;
nodes = (
(491,-12,o),
(555,39,o),
(555,126,cs),
(555,192,o),
(509,241,o),
(438,280,cs),
(394,304,o),
(372,330,o),
(372,359,cs),
(372,389,o),
(390,417,o),
(427,443,cs),
(491,488,o),
(523,533,o),
(523,575,cs),
(523,666,o),
(443,726,o),
(335,726,cs),
(186,726,o),
(86,601,o),
(86,435,cs),
(86,398,o),
(71,380,o),
(42,380,cs),
(36,380,o),
(34,374,o),
(34,362,cs),
(34,350,o),
(36,344,o),
(42,344,cs),
(71,344,ls),
(82,344,o),
(86,338,o),
(86,327,cs),
(86,64,l),
(199,64,l),
(199,436,ls),
(199,486,o),
(205,529,o),
(215,566,cs),
(229,615,o),
(263,679,o),
(322,679,cs),
(385,679,o),
(417,614,o),
(417,556,cs),
(417,512,o),
(399,477,o),
(359,448,cs),
(306,410,o),
(279,371,o),
(279,329,cs),
(279,276,o),
(318,229,o),
(395,186,cs),
(439,161,o),
(461,127,o),
(461,85,cs),
(461,47,o),
(446,28,o),
(416,28,cs),
(376,28,o),
(332,74,o),
(332,107,cs),
(332,112,o),
(325,115,o),
(312,115,cs),
(300,115,o),
(294,112,o),
(294,106,cs),
(294,71,o),
(299,42,o),
(308,18,c),
(336,-2,o),
(368,-12,o),
(403,-12,cs)
);
},
{
closed = 1;
nodes = (
(88,0,o),
(108,0,o),
(142,0,cs),
(176,0,o),
(196,0,o),
(249,-4,c),
(253,-4,o),
(256,2,o),
(256,15,cs),
(256,27,o),
(253,33,o),
(249,33,cs),
(215,33,o),
(199,41,o),
(199,66,cs),
(199,99,l),
(86,99,l),
(86,66,ls),
(86,41,o),
(69,33,o),
(35,33,cs),
(30,33,o),
(28,27,o),
(28,15,cs),
(28,2,o),
(31,-4,o),
(35,-4,c)
);
}
);
width = 578;
},
{
anchors = (
{
name = us;
pos = (545,415);
}
);
layerId = "6ABD9449-5E80-4451-809E-12ADEB9E9AB4";
shapes = (
{
closed = 1;
nodes = (
(422,-12,o),
(483,45,o),
(483,131,cs),
(483,202,o),
(454,233,o),
(388,265,cs),
(335,291,o),
(308,306,o),
(308,354,cs),
(308,379,o),
(336,415,o),
(388,465,cs),
(433,508,o),
(455,548,o),
(455,587,cs),
(455,665,o),
(403,726,o),
(328,726,cs),
(195,726,o),
(104,603,o),
(104,457,cs),
(104,423,o),
(85,374,o),
(47,374,cs),
(42,374,o),
(40,370,o),
(40,362,cs),
(40,354,o),
(42,350,o),
(47,350,cs),
(93,350,ls),
(101,350,o),
(104,347,o),
(104,341,cs),
(104,64,l),
(166,64,l),
(166,441,ls),
(166,494,o),
(167,536,o),
(169,567,cs),
(176,638,o),
(209,688,o),
(281,688,cs),
(350,688,o),
(395,658,o),
(395,587,cs),
(395,530,o),
(383,500,o),
(342,458,cs),
(269,380,o),
(264,371,o),
(264,332,cs),
(264,259,o),
(314,230,o),
(361,206,cs),
(419,174,o),
(438,143,o),
(438,99,cs),
(438,66,o),
(398,16,o),
(358,16,cs),
(319,16,o),
(281,47,o),
(281,93,cs),
(281,97,o),
(274,99,o),
(271,99,cs),
(265,99,o),
(263,97,o),
(263,93,cs),
(263,59,o),
(264,34,o),
(269,17,c),
(297,-2,o),
(323,-12,o),
(345,-12,cs)
);
},
{
closed = 1;
nodes = (
(82,0,o),
(102,0,o),
(136,0,cs),
(170,0,o),
(189,0,o),
(227,-4,c),
(231,-4,o),
(233,0,o),
(233,9,cs),
(233,17,o),
(231,21,o),
(227,21,cs),
(187,21,o),
(166,29,o),
(166,61,cs),
(166,98,l),
(104,98,l),
(104,61,ls),
(104,29,o),
(84,21,o),
(45,21,cs),
(41,21,o),
(38,17,o),
(38,9,cs),
(38,0,o),
(41,-4,o),
(45,-4,c)
);
}
);
width = 514;
},
{
anchors = (
{
name = us;
pos = (466,415);
}
);
layerId = "70B83247-6FA0-4662-9656-C86DD2A17D3B";
shapes = (
{
closed = 1;
nodes = (
(378,-12,o),
(429,42,o),
(429,128,cs),
(429,198,o),
(396,238,o),
(342,273,cs),
(306,297,o),
(285,318,o),
(285,356,cs),
(285,384,o),
(299,414,o),
(337,452,cs),
(379,495,o),
(404,539,o),
(404,581,cs),
(404,665,o),
(348,726,o),
(272,726,cs),
(157,726,o),
(81,601,o),
(81,444,cs),
(81,410,o),
(67,377,o),
(41,377,cs),
(37,377,o),
(35,372,o),
(35,362,cs),
(35,351,o),
(37,347,o),
(41,347,cs),
(69,347,ls),
(77,347,o),
(81,342,o),
(81,333,cs),
(81,64,l),
(155,64,l),
(155,438,ls),
(155,479,o),
(157,518,o),
(163,567,cs),
(170,626,o),
(201,683,o),
(251,683,cs),
(304,683,o),
(333,633,o),
(333,570,cs),
(333,521,o),
(320,487,o),
(289,452,cs),
(240,397,o),
(225,372,o),
(225,331,cs),
(225,270,o),
(259,230,o),
(311,195,cs),
(350,168,o),
(369,136,o),
(369,91,cs),
(369,56,o),
(349,22,o),
(322,22,cs),
(291,22,o),
(256,63,o),
(256,101,cs),
(256,106,o),
(250,108,o),
(244,108,cs),
(236,108,o),
(232,105,o),
(232,100,cs),
(232,67,o),
(235,39,o),
(241,18,c),
(265,-3,o),
(289,-12,o),
(312,-12,cs)
);
},
{
closed = 1;
nodes = (
(70,0,o),
(89,0,o),
(119,0,cs),
(148,0,o),
(167,0,o),
(201,-4,c),
(205,-4,o),
(208,1,o),
(208,10,cs),
(208,20,o),
(205,24,o),
(201,24,cs),
(170,24,o),
(155,32,o),
(155,62,cs),
(155,98,l),
(81,98,l),
(81,62,ls),
(81,32,o),
(66,24,o),
(36,24,cs),
(32,24,o),
(29,20,o),
(29,10,cs),
(29,1,o),
(32,-4,o),
(36,-4,c)
);
}
);
width = 453;
},
{
anchors = (
{
name = us;
pos = (649,415);
}
);
layerId = "9E6FDE2E-55A6-44A9-9556-F1822294BF26";
shapes = (
{
closed = 1;
nodes = (
(501,-12,o),
(575,45,o),
(575,131,cs),
(575,201,o),
(541,231,o),
(461,264,cs),
(395,292,o),
(364,306,o),
(364,354,cs),
(364,378,o),
(399,418,o),
(460,467,cs),
(516,511,o),
(540,550,o),
(540,588,cs),
(540,665,o),
(479,726,o),
(388,726,cs),
(229,726,o),
(118,604,o),
(118,458,cs),
(118,424,o),
(96,373,o),
(49,373,cs),
(43,373,o),
(41,370,o),
(41,362,cs),
(41,354,o),
(43,350,o),
(49,350,cs),
(104,350,ls),
(114,350,o),
(118,348,o),
(118,342,cs),
(118,64,l),
(192,64,l),
(192,441,ls),
(192,504,o),
(194,551,o),
(193,567,cs),
(198,639,o),
(246,689,o),
(332,689,cs),
(414,689,o),
(468,661,o),
(468,588,cs),
(468,531,o),
(454,501,o),
(405,458,cs),
(317,378,o),
(311,370,o),
(311,332,cs),
(311,258,o),
(373,229,o),
(429,207,cs),
(499,174,o),
(521,141,o),
(521,99,cs),
(521,66,o),
(472,16,o),
(424,16,cs),
(377,16,o),
(332,45,o),
(332,92,cs),
(332,96,o),
(325,98,o),
(319,98,cs),
(313,98,o),
(310,96,o),
(310,92,cs),
(310,57,o),
(312,32,o),
(316,17,c),
(350,-1,o),
(381,-12,o),
(408,-12,cs)
);
},
{
closed = 1;
nodes = (
(97,0,o),
(117,0,o),
(156,0,cs),
(195,0,o),
(214,0,o),
(263,-4,c),
(268,-4,o),
(270,1,o),
(270,10,cs),
(270,20,o),
(268,24,o),
(263,24,cs),
(216,24,o),
(192,32,o),
(192,62,cs),
(192,98,l),
(118,98,l),
(118,62,ls),
(118,32,o),
(94,24,o),
(48,24,cs),
(43,24,o),
(41,20,o),
(41,10,cs),
(41,1,o),
(43,-4,o),
(48,-4,c)
);
}
);
width = 609;
},
{
anchors = (
{
name = us;
pos = (556,415);
}
);
layerId = "00F4936D-6309-4DEC-83B3-42806ED1A477";
metricLeft = "=34";
metricRight = "=42";
shapes = (
{
closed = 1;
nodes = (
(438,-12,o),
(500,43,o),
(500,130,cs),
(500,199,o),
(467,235,o),
(400,269,cs),
(349,294,o),
(323,312,o),
(323,355,cs),
(323,381,o),
(348,416,o),
(397,459,cs),
(446,503,o),
(471,544,o),
(471,584,cs),
(471,665,o),
(412,726,o),
(329,726,cs),
(192,726,o),
(98,603,o),
(98,451,cs),
(98,417,o),
(80,375,o),
(43,375,cs),
(39,375,o),
(36,371,o),
(36,362,cs),
(36,353,o),
(39,348,o),
(43,348,cs),
(85,348,ls),
(94,348,o),
(98,345,o),
(98,338,cs),
(98,64,l),
(172,64,l),
(172,440,ls),
(172,492,o),
(174,534,o),
(177,567,cs),
(183,632,o),
(222,686,o),
(290,686,cs),
(357,686,o),
(399,647,o),
(399,579,cs),
(399,526,o),
(386,494,o),
(346,455,cs),
(277,388,o),
(267,371,o),
(267,331,cs),
(267,264,o),
(314,230,o),
(369,201,cs),
(423,171,o),
(443,139,o),
(443,95,cs),
(443,61,o),
(409,19,o),
(372,19,cs),
(332,19,o),
(292,54,o),
(292,96,cs),
(292,101,o),
(286,103,o),
(280,103,cs),
(273,103,o),
(270,101,o),
(270,96,cs),
(270,62,o),
(272,36,o),
(277,17,c),
(306,-2,o),
(333,-12,o),
(358,-12,cs)
);
},
{
closed = 1;
nodes = (
(82,0,o),
(102,0,o),
(136,0,cs),
(170,0,o),
(189,0,o),
(230,-4,c),
(235,-4,o),
(237,1,o),
(237,10,cs),
(237,20,o),
(235,24,o),
(230,24,cs),
(192,24,o),
(172,32,o),
(172,62,cs),
(172,98,l),
(98,98,l),
(98,62,ls),
(98,32,o),
(79,24,o),
(41,24,cs),
(36,24,o),
(34,20,o),
(34,10,cs),
(34,1,o),
(36,-4,o),
(41,-4,c)
);
}
);
width = 542;
}
);
metricLeft = f;
metricRight = s;
unicode = 223;
}
{
color = 9;
glyphname = eth;
kernLeft = KO_g_eth.hlig;
kernRight = KO_s;
layers = (
{
anchors = (
{
name = bottom;
pos = (248,13);
},
{
name = top;
pos = (248,710);
},
{
name = topxheight;
pos = (432,415);
}
);
layerId = master01;
shapes = (
{
closed = 1;
nodes = (
(370,-11,o),
(451,91,o),
(451,249,cs),
(451,428,o),
(342,587,o),
(127,725,cs),
(121,729,o),
(106,706,o),
(113,701,cs),
(275,581,o),
(372,405,o),
(372,234,cs),
(372,105,o),
(321,21,o),
(242,21,cs),
(168,21,o),
(121,94,o),
(121,206,cs),
(121,321,o),
(172,396,o),
(252,396,cs),
(301,396,o),
(341,369,o),
(383,307,c),
(367,381,l),
(331,411,o),
(292,425,o),
(246,425,cs),
(127,425,o),
(41,334,o),
(41,209,cs),
(41,82,o),
(126,-11,o),
(244,-11,cs)
);
},
{
closed = 1;
nodes = (
(404,650,ls),
(410,654,o),
(392,681,o),
(386,677,cs),
(143,501,ls),
(136,496,o),
(155,469,o),
(161,474,cs)
);
}
);
width = 484;
},
{
anchors = (
{
name = bottom;
pos = (248,13);
},
{
name = top;
pos = (259,710);
},
{
name = topxheight;
pos = (452,415);
}
);
layerId = "75918100-ED89-42A8-B0FE-888EB9C86810";
shapes = (
{
closed = 1;
nodes = (
(391,-11,o),
(474,84,o),
(474,242,cs),
(474,426,o),
(351,608,o),
(149,725,cs),
(139,731,o),
(115,696,o),
(125,687,cs),
(268,567,o),
(350,400,o),
(350,227,cs),
(350,104,o),
(312,30,o),
(250,30,cs),
(192,30,o),
(156,97,o),
(156,208,cs),
(156,325,o),
(195,387,o),
(267,387,cs),
(308,387,o),
(341,367,o),
(353,335,c),
(352,402,l),
(326,417,o),
(293,425,o),
(254,425,cs),
(126,425,o),
(33,332,o),
(33,205,cs),
(33,80,o),
(126,-11,o),
(254,-11,cs)
);
},
{
closed = 1;
nodes = (
(406,650,ls),
(415,656,o),
(388,693,o),
(379,687,cs),
(133,510,ls),
(122,502,o),
(149,465,o),
(161,473,cs)
);
}
);
width = 500;
},
{
anchors = (
{
name = bottom;
pos = (249,13);
},
{
name = top;
pos = (245,710);
},
{
name = topxheight;
pos = (426,415);
}
);
layerId = "6ABD9449-5E80-4451-809E-12ADEB9E9AB4";
shapes = (
{
closed = 1;
nodes = (
(364,-11,o),
(445,93,o),
(445,250,cs),
(445,428,o),
(340,581,o),
(121,725,cs),
(116,728,o),
(104,709,o),
(110,705,cs),
(279,585,o),
(380,407,o),
(380,237,cs),
(380,105,o),
(325,18,o),
(241,18,cs),
(162,18,o),
(110,93,o),
(110,205,cs),
(110,320,o),
(166,399,o),
(248,399,cs),
(299,399,o),
(342,369,o),
(394,298,c),
(374,375,l),
(334,409,o),
(293,425,o),
(245,425,cs),
(129,425,o),
(45,334,o),
(45,211,cs),
(45,82,o),
(128,-11,o),
(242,-11,cs)
);
},
{
closed = 1;
nodes = (
(405,650,ls),
(410,653,o),
(394,677,o),
(389,673,cs),
(147,498,ls),
(142,494,o),
(158,471,o),
(163,475,cs)
);
}
);
width = 481;
},
{
anchors = (
{
name = bottom;
pos = (203,13);
},
{
name = top;
pos = (202,710);
},
{
name = topxheight;
pos = (351,415);
}
);
layerId = "70B83247-6FA0-4662-9656-C86DD2A17D3B";
shapes = (
{
closed = 1;
nodes = (
(304,-11,o),
(372,91,o),
(372,248,cs),
(372,432,o),
(289,585,o),
(113,725,cs),
(105,731,o),
(87,708,o),
(95,701,cs),
(225,572,o),
(295,407,o),
(295,229,cs),
(295,104,o),
(259,23,o),
(203,23,cs),
(149,23,o),
(112,101,o),
(112,214,cs),
(112,323,o),
(151,394,o),
(211,394,cs),
(248,394,o),
(279,368,o),
(313,309,c),
(294,383,l),
(269,411,o),
(235,425,o),
(196,425,cs),
(100,425,o),
(35,337,o),
(35,208,cs),
(35,78,o),
(101,-11,o),
(198,-11,cs)
);
},
{
closed = 1;
nodes = (
(330,651,ls),
(335,656,o),
(313,682,o),
(307,676,cs),
(114,502,ls),
(107,496,o),
(131,472,o),
(137,477,cs)
);
}
);
width = 400;
},
{
anchors = (
{
name = bottom;
pos = (294,13);
},
{
name = top;
pos = (292,710);
},
{
name = topxheight;
pos = (515,415);
}
);
layerId = "9E6FDE2E-55A6-44A9-9556-F1822294BF26";
shapes = (
{
closed = 1;
nodes = (
(438,-11,o),
(532,87,o),
(532,239,cs),
(532,422,o),
(413,571,o),
(144,725,cs),
(138,728,o),
(126,705,o),
(133,701,cs),
(339,574,o),
(450,410,o),
(450,233,cs),
(450,109,o),
(381,19,o),
(287,19,cs),
(199,19,o),
(131,100,o),
(131,206,cs),
(131,314,o),
(203,398,o),
(296,398,cs),
(353,398,o),
(406,368,o),
(462,304,c),
(442,377,l),
(399,408,o),
(345,425,o),
(288,425,cs),
(150,425,o),
(49,334,o),
(49,210,cs),
(49,85,o),
(155,-11,o),
(292,-11,cs)
);
},
{
closed = 1;
nodes = (
(482,650,ls),
(488,653,o),
(472,680,o),
(466,677,cs),
(171,499,ls),
(165,495,o),
(181,468,o),
(188,472,cs)
);
}
);
width = 572;
},
{
anchors = (
{
name = bottom;
pos = (315,0);
},
{
name = top;
pos = (313,710);
},
{
name = topxheight;
pos = (586,590);
}
);
guides = (
{
pos = (646,0);
}
);
layerId = "00F4936D-6309-4DEC-83B3-42806ED1A477";
shapes = (
{
closed = 1;
nodes = (
(480,-13,o),
(583,130,o),
(583,333,cs),
(583,447,o),
(562,577,o),
(457,725,cs),
(452,733,o),
(406,710,o),
(410,702,cs),
(465,600,o),
(490,431,o),
(490,329,cs),
(490,151,o),
(419,29,o),
(314,29,cs),
(211,29,o),
(136,153,o),
(136,293,cs),
(136,429,o),
(205,560,o),
(319,560,cs),
(372,560,o),
(440,530,o),
(518,416,c),
(479,520,l),
(432,573,o),
(372,598,o),
(309,598,cs),
(163,598,o),
(43,461,o),
(43,297,cs),
(43,128,o),
(163,-13,o),
(315,-13,cs)
);
},
{
closed = 1;
nodes = (
(593,633,ls),
(600,634,o),
(597,668,o),
(589,667,cs),
(375,633,ls),
(368,632,o),
(374,597,o),
(379,598,cs)
);
}
);
width = 630;
},
{
anchors = (
{
name = bottom;
pos = (295,4);
},
{
name = top;
pos = (294,710);
},
{
name = topxheight;
pos = (540,538);
}
);
associatedMasterId = "00F4936D-6309-4DEC-83B3-42806ED1A477";
attr = {
coordinates = (
400,
100,
47
);
};
layerId = "6305086C-6F2E-4201-870B-9B91E80191B4";
name = "{400, 100, 47}";
shapes = (
{
closed = 1;
nodes = (
(447,-13,o),
(543,118,o),
(543,308,cs),
(543,441,o),
(496,580,o),
(358,725,cs),
(352,731,o),
(315,708,o),
(321,702,cs),
(408,594,o),
(454,423,o),
(454,301,cs),
(454,137,o),
(390,27,o),
(292,27,cs),
(199,27,o),
(131,135,o),
(131,267,cs),
(131,396,o),
(195,511,o),
(299,511,cs),
(351,511,o),
(410,482,o),
(477,383,c),
(445,479,l),
(401,524,o),
(348,546,o),
(290,546,cs),
(152,546,o),
(42,423,o),
(42,271,cs),
(42,114,o),
(152,-13,o),
(294,-13,cs)
);
},
{
closed = 1;
nodes = (
(537,638,ls),
(543,640,o),
(535,672,o),
(528,670,cs),
(306,594,ls),
(298,591,o),
(308,559,o),
(314,561,cs)
);
}
);
width = 586;
}
);
unicode = 240;
userData = {
KernOnName = eth;
};
}
{
glyphname = hbar;
layers = (
{
anchors = (
{
name = bottom;
pos = (267,0);
},
{
name = top;
pos = (302,707);
},
{
name = topxheight;
pos = (302,555);
}
);
layerId = master01;
shapes = (
{
closed = 1;
nodes = (
(65,-1,o),
(94,0,o),
(133,0,cs),
(172,0,o),
(201,-1,o),
(227,-4,c),
(236,-4,o),
(236,24,o),
(227,24,cs),
(191,24,o),
(173,37,o),
(173,62,cs),
(173,307,ls),
(173,351,o),
(211,381,o),
(266,381,cs),
(309,381,o),
(341,364,o),
(355,334,cs),
(368,304,o),
(375,250,o),
(375,173,cs),
(375,62,ls),
(375,37,o),
(356,24,o),
(320,24,cs),
(311,24,o),
(311,-4,o),
(320,-4,c),
(347,-1,o),
(377,0,o),
(416,0,cs),
(456,0,o),
(485,-1,o),
(512,-4,c),
(521,-4,o),
(521,24,o),
(512,24,cs),
(471,24,o),
(450,37,o),
(450,62,cs),
(450,224,ls),
(450,295,o),
(441,335,o),
(418,367,cs),
(391,406,o),
(354,425,o),
(302,425,cs),
(252,425,o),
(214,407,o),
(180,368,c),
(173,370,l),
(173,636,ls),
(173,658,o),
(174,676,o),
(176,711,c),
(176,720,o),
(174,725,o),
(170,725,cs),
(165,725,o),
(158,721,o),
(148,713,cs),
(122,692,o),
(71,667,o),
(53,667,cs),
(44,667,o),
(44,640,o),
(53,640,cs),
(83,640,o),
(98,618,o),
(98,573,cs),
(98,62,ls),
(98,37,o),
(78,24,o),
(39,24,cs),
(30,24,o),
(30,-4,o),
(39,-4,c)
);
},
{
closed = 1;
nodes = (
(281,509,ls),
(289,509,o),
(289,555,o),
(282,555,cs),
(40,555,ls),
(31,555,o),
(31,509,o),
(40,509,cs)
);
}
);
width = 535;
},
{
anchors = (
{
name = bottom;
pos = (274,0);
},
{
name = top;
pos = (316,707);
},
{
name = topxheight;
pos = (316,557);
}
);
layerId = "75918100-ED89-42A8-B0FE-888EB9C86810";
shapes = (
{
closed = 1;
nodes = (
(63,-1,o),
(98,0,o),
(142,0,cs),
(187,0,o),
(221,-1,o),
(250,-4,c),
(259,-4,o),
(259,33,o),
(250,33,cs),
(216,33,o),
(200,45,o),
(200,70,cs),
(200,302,ls),
(200,343,o),
(231,372,o),
(276,372,cs),
(311,372,o),
(338,356,o),
(350,327,cs),
(361,301,o),
(366,252,o),
(366,173,cs),
(366,64,ls),
(366,43,o),
(349,33,o),
(315,33,cs),
(306,33,o),
(306,-4,o),
(315,-4,c),
(346,-1,o),
(380,0,o),
(425,0,cs),
(470,0,o),
(505,-1,o),
(535,-4,c),
(543,-4,o),
(543,33,o),
(535,33,cs),
(498,33,o),
(478,46,o),
(478,70,cs),
(478,223,ls),
(478,293,o),
(471,325,o),
(451,357,cs),
(421,403,o),
(377,425,o),
(316,425,cs),
(275,425,o),
(238,413,o),
(208,389,c),
(200,392,l),
(200,636,ls),
(200,658,o),
(201,676,o),
(204,712,c),
(204,720,o),
(200,725,o),
(192,725,cs),
(185,725,o),
(180,723,o),
(171,716,cs),
(139,690,o),
(75,663,o),
(43,663,cs),
(34,663,o),
(34,627,o),
(43,627,cs),
(73,627,o),
(88,605,o),
(88,560,cs),
(88,67,ls),
(88,44,o),
(70,33,o),
(34,33,cs),
(25,33,o),
(25,-4,o),
(34,-4,c)
);
},
{
closed = 1;
nodes = (
(311,506,ls),
(320,506,o),
(320,557,o),
(312,557,cs),
(35,557,ls),
(26,557,o),
(26,506,o),
(35,506,cs)
);
}
);
width = 554;
},
{
anchors = (
{
name = bottom;
pos = (266,0);
},
{
name = top;
pos = (299,705);
},
{
name = topxheight;
pos = (299,551);
}
);
guides = (
{
angle = 90;
pos = (34,10);
}
);
layerId = "6ABD9449-5E80-4451-809E-12ADEB9E9AB4";
shapes = (
{
closed = 1;
nodes = (
(67,-1,o),
(95,0,o),
(132,0,cs),
(168,0,o),
(196,-1,o),
(221,-4,c),
(229,-4,o),
(229,21,o),
(221,21,cs),
(184,21,o),
(165,34,o),
(165,60,cs),
(165,309,ls),
(165,353,o),
(205,384,o),
(264,384,cs),
(310,384,o),
(343,367,o),
(358,336,cs),
(373,306,o),
(379,258,o),
(379,173,cs),
(379,62,ls),
(379,35,o),
(360,21,o),
(323,21,cs),
(314,21,o),
(314,-4,o),
(323,-4,c),
(348,-1,o),
(376,0,o),
(414,0,cs),
(452,0,o),
(480,-1,o),
(505,-4,c),
(514,-4,o),
(514,21,o),
(505,21,cs),
(462,21,o),
(441,34,o),
(441,60,cs),
(441,225,ls),
(441,294,o),
(431,336,o),
(408,371,cs),
(383,407,o),
(347,425,o),
(299,425,cs),
(248,425,o),
(210,408,o),
(172,368,c),
(165,370,l),
(165,636,ls),
(165,658,o),
(165,676,o),
(167,711,c),
(168,721,o),
(166,725,o),
(163,725,cs),
(159,725,o),
(151,720,o),
(142,712,cs),
(122,694,o),
(73,669,o),
(58,669,cs),
(49,669,o),
(49,645,o),
(58,645,cs),
(88,645,o),
(103,623,o),
(103,578,cs),
(103,61,ls),
(103,34,o),
(83,21,o),
(42,21,cs),
(34,21,o),
(34,-4,o),
(42,-4,c)
);
},
{
closed = 1;
nodes = (
(270,514,ls),
(279,514,o),
(279,551,o),
(270,551,cs),
(45,551,ls),
(36,551,o),
(36,514,o),
(45,514,cs)
);
}
);
width = 529;
},
{
anchors = (
{
name = bottom;
pos = (225,0);
},
{
name = top;
pos = (253,707);
},
{
name = topxheight;
pos = (253,555);
}
);
layerId = "70B83247-6FA0-4662-9656-C86DD2A17D3B";
shapes = (
{
closed = 1;
nodes = (
(55,-1,o),
(81,0,o),
(115,0,cs),
(148,0,o),
(172,-1,o),
(195,-4,c),
(204,-4,o),
(203,24,o),
(195,24,cs),
(167,24,o),
(154,36,o),
(154,62,cs),
(154,307,ls),
(154,351,o),
(182,381,o),
(222,381,cs),
(253,381,o),
(276,364,o),
(286,334,cs),
(296,303,o),
(301,249,o),
(301,173,cs),
(301,59,ls),
(301,36,o),
(287,24,o),
(259,24,cs),
(250,24,o),
(250,-4,o),
(259,-4,c),
(282,-1,o),
(308,0,o),
(341,0,cs),
(375,0,o),
(401,-1,o),
(423,-4,c),
(432,-4,o),
(432,24,o),
(423,24,cs),
(392,24,o),
(376,37,o),
(376,62,cs),
(376,224,ls),
(376,296,o),
(370,333,o),
(353,364,cs),
(331,405,o),
(297,425,o),
(254,425,cs),
(217,425,o),
(187,409,o),
(160,376,c),
(154,377,l),
(154,636,ls),
(154,658,o),
(155,676,o),
(157,711,c),
(157,719,o),
(154,725,o),
(150,725,cs),
(146,725,o),
(141,722,o),
(133,715,cs),
(110,693,o),
(61,667,o),
(43,667,cs),
(35,667,o),
(35,640,o),
(43,640,cs),
(67,640,o),
(79,618,o),
(79,573,cs),
(79,60,ls),
(79,36,o),
(63,24,o),
(33,24,cs),
(24,24,o),
(24,-4,o),
(33,-4,c)
);
},
{
closed = 1;
nodes = (
(236,509,ls),
(245,509,o),
(245,555,o),
(237,555,cs),
(35,555,ls),
(26,555,o),
(26,509,o),
(35,509,cs)
);
}
);
width = 443;
},
{
anchors = (
{
name = bottom;
pos = (311,0);
},
{
name = top;
pos = (352,707);
},
{
name = topxheight;
pos = (352,559);
}
);
layerId = "9E6FDE2E-55A6-44A9-9556-F1822294BF26";
shapes = (
{
closed = 1;
nodes = (
(74,-1,o),
(109,0,o),
(153,0,cs),
(198,0,o),
(232,-1,o),
(260,-4,c),
(269,-4,o),
(270,24,o),
(260,24,cs),
(216,24,o),
(193,37,o),
(193,63,cs),
(193,307,ls),
(193,351,o),
(241,381,o),
(311,381,cs),
(365,381,o),
(406,364,o),
(425,334,cs),
(443,305,o),
(450,259,o),
(450,173,cs),
(450,65,ls),
(450,38,o),
(427,24,o),
(382,24,cs),
(373,24,o),
(373,-4,o),
(382,-4,c),
(413,-1,o),
(447,0,o),
(492,0,cs),
(537,0,o),
(572,-1,o),
(602,-4,c),
(610,-4,o),
(610,24,o),
(602,24,cs),
(550,24,o),
(525,37,o),
(525,63,cs),
(525,225,ls),
(525,293,o),
(514,336,o),
(488,367,cs),
(455,406,o),
(410,425,o),
(348,425,cs),
(288,425,o),
(245,408,o),
(201,368,c),
(193,371,l),
(193,636,ls),
(193,658,o),
(194,676,o),
(196,711,c),
(196,722,o),
(195,725,o),
(192,725,cs),
(188,725,o),
(181,721,o),
(166,710,cs),
(139,692,o),
(81,667,o),
(64,667,cs),
(55,667,o),
(55,640,o),
(64,640,cs),
(100,640,o),
(118,618,o),
(118,573,cs),
(118,64,ls),
(118,37,o),
(94,24,o),
(45,24,cs),
(37,24,o),
(37,-4,o),
(45,-4,c)
);
},
{
closed = 1;
nodes = (
(326,513,ls),
(335,513,o),
(335,559,o),
(327,559,cs),
(48,559,ls),
(39,559,o),
(39,513,o),
(48,513,cs)
);
}
);
width = 627;
},
{
anchors = (
{
name = bottom;
pos = (342,1);
},
{
name = top;
pos = (358,705);
},
{
name = topxheight;
pos = (358,651);
}
);
guides = (
{
angle = 90;
pos = (31,10);
}
);
layerId = "00F4936D-6309-4DEC-83B3-42806ED1A477";
shapes = (
{
closed = 1;
nodes = (
(73,-1,o),
(104,0,o),
(155,0,cs),
(208,0,o),
(239,-1,o),
(271,-3,c),
(281,-3,o),
(281,29,o),
(271,29,cs),
(223,29,o),
(198,47,o),
(198,83,cs),
(198,436,ls),
(198,495,o),
(256,543,o),
(327,543,cs),
(381,543,o),
(411,530,o),
(437,494,cs),
(464,457,o),
(479,396,o),
(479,324,cs),
(479,87,ls),
(479,49,o),
(454,29,o),
(405,29,cs),
(395,29,o),
(394,-3,o),
(405,-3,c),
(437,-1,o),
(469,0,o),
(523,0,cs),
(577,0,o),
(608,-1,o),
(640,-3,c),
(650,-3,o),
(650,29,o),
(640,29,cs),
(585,29,o),
(557,47,o),
(557,83,cs),
(557,317,ls),
(557,416,o),
(544,478,o),
(514,524,cs),
(482,574,o),
(436,598,o),
(373,598,cs),
(305,598,o),
(255,572,o),
(206,512,c),
(198,514,l),
(198,636,ls),
(198,658,o),
(199,676,o),
(201,711,c),
(201,722,o),
(200,725,o),
(196,725,cs),
(193,725,o),
(184,724,o),
(173,721,cs),
(140,715,o),
(90,708,o),
(75,708,cs),
(65,708,o),
(65,684,o),
(75,684,cs),
(105,684,o),
(120,662,o),
(120,617,cs),
(120,85,ls),
(120,48,o),
(94,29,o),
(41,29,cs),
(31,29,o),
(31,-3,o),
(41,-3,c)
);
},
{
closed = 1;
nodes = (
(291,611,ls),
(299,611,o),
(299,651,o),
(292,651,cs),
(42,651,ls),
(33,651,o),
(33,611,o),
(42,611,cs)
);
}
);
width = 665;
},
{
anchors = (
{
name = bottom;
pos = (318,0);
},
{
name = top;
pos = (340,705);
},
{
name = topxheight;
pos = (340,616);
}
);
associatedMasterId = "00F4936D-6309-4DEC-83B3-42806ED1A477";
attr = {
coordinates = (
400,
100,
47
);
};
guides = (
{
angle = 90;
pos = (31,12);
}
);
layerId = "3C8DACB7-B675-40B7-ADFB-6E5CB1184504";
name = "{400, 100, 47}";
shapes = (
{
closed = 1;
nodes = (
(71,-1,o),
(99,0,o),
(148,0,cs),
(198,0,o),
(227,-1,o),
(257,-3,c),
(267,-3,o),
(267,27,o),
(257,27,cs),
(212,27,o),
(190,44,o),
(190,77,cs),
(190,396,ls),
(190,453,o),
(238,492,o),
(307,492,cs),
(362,492,o),
(401,475,o),
(420,443,cs),
(437,414,o),
(445,362,o),
(445,275,cs),
(445,79,ls),
(445,44,o),
(422,27,o),
(377,27,cs),
(368,27,o),
(368,-3,o),
(377,-3,c),
(415,0,o),
(451,0,o),
(489,0,cs),
(539,0,o),
(568,-1,o),
(599,-3,c),
(609,-3,o),
(609,27,o),
(599,27,cs),
(548,27,o),
(522,44,o),
(522,77,cs),
(522,287,ls),
(522,374,o),
(510,431,o),
(483,474,cs),
(453,520,o),
(409,543,o),
(350,543,cs),
(288,543,o),
(241,519,o),
(198,466,c),
(190,468,l),
(190,636,ls),
(190,658,o),
(191,676,o),
(193,711,c),
(193,721,o),
(192,725,o),
(188,725,cs),
(184,725,o),
(176,722,o),
(165,715,cs),
(136,697,o),
(85,677,o),
(69,677,cs),
(59,677,o),
(59,652,o),
(69,652,cs),
(98,652,o),
(113,630,o),
(113,585,cs),
(113,78,ls),
(113,44,o),
(89,27,o),
(41,27,cs),
(31,27,o),
(31,-3,o),
(41,-3,c)
);
},
{
closed = 1;
nodes = (
(291,572,ls),
(299,572,o),
(299,616,o),
(292,616,cs),
(42,616,ls),
(33,616,o),
(33,572,o),
(42,572,cs)
);
}
);
width = 665;
},
{
anchors = (
{
name = bottom;
pos = (260,1);
},
{
name = top;
pos = (279,707);
},
{
name = topxheight;
pos = (279,607);
}
);
associatedMasterId = "00F4936D-6309-4DEC-83B3-42806ED1A477";
attr = {
coordinates = (
400,
75,
78
);
};
guides = (
{
angle = 90;
pos = (31,10);
},
{
pos = (596,506);
}
);
layerId = "888A2E9E-2685-46F4-9E4B-64E2AFC035C7";
name = "Nov 26, 23 at 22:59";
shapes = (
{
closed = 1;
nodes = (
(58,-1,o),
(88,0,o),
(125,0,cs),
(163,0,o),
(190,-1,o),
(216,-4,c),
(225,-4,o),
(224,27,o),
(216,27,cs),
(183,27,o),
(166,40,o),
(166,71,cs),
(166,366,ls),
(166,413,o),
(208,456,o),
(251,456,cs),
(281,456,o),
(312,446,o),
(330,409,cs),
(351,366,o),
(351,299,o),
(351,245,cs),
(351,71,ls),
(351,43,o),
(334,27,o),
(300,27,cs),
(290,27,o),
(288,-4,o),
(300,-4,c),
(314,-2,o),
(334,0,o),
(391,0,cs),
(431,0,o),
(460,-1,o),
(483,-4,c),
(492,-4,o),
(492,27,o),
(483,27,cs),
(446,27,o),
(428,41,o),
(428,71,cs),
(428,268,ls),
(428,358,o),
(419,401,o),
(399,438,cs),
(374,484,o),
(337,506,o),
(288,506,cs),
(242,506,o),
(208,487,o),
(172,444,c),
(166,445,l),
(166,636,ls),
(166,658,o),
(167,676,o),
(169,711,c),
(169,720,o),
(166,725,o),
(162,725,cs),
(159,725,o),
(153,725,o),
(145,724,cs),
(116,719,o),
(68,713,o),
(52,713,cs),
(44,713,o),
(44,687,o),
(52,687,cs),
(77,687,o),
(89,665,o),
(89,620,cs),
(89,70,ls),
(89,42,o),
(70,27,o),
(33,27,cs),
(24,27,o),
(24,-4,o),
(33,-4,c)
);
},
{
closed = 1;
nodes = (
(236,566,ls),
(245,566,o),
(245,607,o),
(237,607,cs),
(35,607,ls),
(26,607,o),
(26,566,o),
(35,566,cs)
);
}
);
width = 443;
}
);
unicode = 295;
userData = {
KernOnSpecialSpacing = {
L = NoKerning;
R = NoKerning;
};
};
}
{
color = 9;
glyphname = dotlessi;
kernLeft = KO_n;
kernRight = KO_i.lf;
layers = (
{
anchors = (
{
name = bottom;
pos = (135,0);
},
{
name = ogonek;
pos = (202,5);
},
{
name = ogonek_above;
pos = (153,405);
},
{
name = top;
pos = (129,415);
},
{
name = us;
pos = (249,415);
},
{
name = zzcurly;
pos = (133,378);
}
);
layerId = master01;
shapes = (
{
closed = 1;
nodes = (
(73,-1,o),
(104,0,o),
(136,0,cs),
(167,0,o),
(199,-1,o),
(231,-3,c),
(240,-3,o),
(240,24,o),
(231,24,cs),
(188,24,o),
(173,34,o),
(173,62,cs),
(173,342,ls),
(173,364,o),
(174,382,o),
(176,417,c),
(176,426,o),
(174,431,o),
(170,431,cs),
(165,431,o),
(158,427,o),
(148,419,cs),
(122,398,o),
(71,373,o),
(53,373,cs),
(44,373,o),
(44,346,o),
(53,346,cs),
(83,346,o),
(98,324,o),
(98,279,cs),
(98,62,ls),
(98,34,o),
(83,24,o),
(41,24,cs),
(32,24,o),
(32,-3,o),
(41,-3,c)
);
}
);
width = 256;
},
{
anchors = (
{
name = bottom;
pos = (140,0);
},
{
name = ogonek;
pos = (216,5);
},
{
name = ogonek_above;
pos = (178,405);
},
{
name = top;
pos = (130,415);
},
{
name = us;
pos = (293,415);
},
{
name = zzcurly;
pos = (128,378);
}
);
layerId = "75918100-ED89-42A8-B0FE-888EB9C86810";
shapes = (
{
closed = 1;
nodes = (
(70,-1,o),
(105,0,o),
(140,0,cs),
(176,0,o),
(211,-1,o),
(247,-4,c),
(256,-4,o),
(256,33,o),
(247,33,cs),
(210,33,o),
(197,41,o),
(197,66,cs),
(197,342,ls),
(197,364,o),
(198,382,o),
(201,418,c),
(201,426,o),
(197,431,o),
(189,431,cs),
(182,431,o),
(177,429,o),
(168,422,cs),
(136,396,o),
(72,369,o),
(40,369,cs),
(31,369,o),
(31,333,o),
(40,333,cs),
(70,333,o),
(85,311,o),
(85,266,cs),
(85,66,ls),
(85,41,o),
(72,33,o),
(33,33,cs),
(24,33,o),
(24,-4,o),
(33,-4,c)
);
}
);
width = 269;
},
{
anchors = (
{
name = bottom;
pos = (127,0);
},
{
name = ogonek;
pos = (191,5);
},
{
name = ogonek_above;
pos = (151,405);
},
{
name = top;
pos = (129,415);
},
{
name = us;
pos = (257,415);
},
{
name = zzcurly;
pos = (122,378);
}
);
layerId = "6ABD9449-5E80-4451-809E-12ADEB9E9AB4";
shapes = (
{
closed = 1;
nodes = (
(75,-1,o),
(105,0,o),
(127,0,cs),
(166,0,o),
(196,-1,o),
(226,-4,c),
(235,-4,o),
(235,21,o),
(226,21,cs),
(181,21,o),
(166,31,o),
(166,61,cs),
(166,342,ls),
(166,364,o),
(166,382,o),
(168,417,c),
(168,427,o),
(167,431,o),
(164,431,cs),
(160,431,o),
(152,426,o),
(143,418,cs),
(123,400,o),
(74,375,o),
(59,375,cs),
(50,375,o),
(50,351,o),
(59,351,cs),
(89,351,o),
(104,329,o),
(104,284,cs),
(104,61,ls),
(104,31,o),
(89,21,o),
(44,21,cs),
(36,21,o),
(36,-4,o),
(44,-4,c)
);
}
);
width = 253;
},
{
anchors = (
{
name = bottom;
pos = (120,0);
},
{
name = ogonek;
pos = (165,5);
},
{
name = ogonek_above;
pos = (135,405);
},
{
name = top;
pos = (111,415);
},
{
name = us;
pos = (208,415);
},
{
name = zzcurly;
pos = (104,378);
}
);
layerId = "70B83247-6FA0-4662-9656-C86DD2A17D3B";
shapes = (
{
closed = 1;
nodes = (
(63,-1,o),
(92,0,o),
(120,0,cs),
(147,0,o),
(174,-1,o),
(202,-4,c),
(210,-4,o),
(210,24,o),
(202,24,cs),
(168,24,o),
(156,34,o),
(156,62,cs),
(156,342,ls),
(156,364,o),
(157,382,o),
(159,417,c),
(159,425,o),
(156,431,o),
(152,431,cs),
(148,431,o),
(143,428,o),
(135,421,cs),
(112,399,o),
(63,373,o),
(45,373,cs),
(37,373,o),
(37,346,o),
(45,346,cs),
(69,346,o),
(81,324,o),
(81,279,cs),
(81,62,ls),
(81,34,o),
(69,24,o),
(36,24,cs),
(27,24,o),
(27,-4,o),
(36,-4,c)
);
}
);
width = 223;
},
{
anchors = (
{
name = bottom;
pos = (157,0);
},
{
name = ogonek;
pos = (239,0);
},
{
name = ogonek_above;
pos = (172,405);
},
{
name = top;
pos = (148,415);
},
{
name = us;
pos = (290,415);
},
{
name = zzcurly;
pos = (163,378);
}
);
layerId = "9E6FDE2E-55A6-44A9-9556-F1822294BF26";
shapes = (
{
closed = 1;
nodes = (
(84,-1,o),
(121,0,o),
(157,0,cs),
(192,0,o),
(227,-1,o),
(263,-4,c),
(272,-4,o),
(272,24,o),
(263,24,cs),
(210,24,o),
(193,34,o),
(193,62,cs),
(193,342,ls),
(193,364,o),
(194,382,o),
(196,417,c),
(196,428,o),
(195,431,o),
(192,431,cs),
(188,431,o),
(181,427,o),
(166,416,cs),
(139,398,o),
(81,373,o),
(64,373,cs),
(55,373,o),
(55,346,o),
(64,346,cs),
(100,346,o),
(118,324,o),
(118,279,cs),
(118,62,ls),
(118,34,o),
(100,24,o),
(48,24,cs),
(39,24,o),
(39,-4,o),
(48,-4,c)
);
}
);
width = 292;
},
{
anchors = (
{
name = bottom;
pos = (169,0);
},
{
name = ogonek;
pos = (261,6);
},
{
name = ogonek_above;
pos = (169,629);
},
{
name = top;
pos = (162,660);
},
{
name = us;
pos = (315,641);
},
{
name = zzcurly;
pos = (156,597);
}
);
guides = (
{
pos = (316,1385);
}
);
layerId = "00F4936D-6309-4DEC-83B3-42806ED1A477";
shapes = (
{
closed = 1;
nodes = (
(87,-1,o),
(128,0,o),
(169,0,cs),
(211,0,o),
(255,-1,o),
(298,-3,c),
(310,-3,o),
(310,31,o),
(298,31,cs),
(232,31,o),
(209,47,o),
(209,93,cs),
(209,587,ls),
(209,609,o),
(210,627,o),
(212,662,c),
(212,673,o),
(211,676,o),
(207,676,cs),
(204,676,o),
(195,671,o),
(184,663,cs),
(151,641,o),
(101,619,o),
(86,619,cs),
(76,619,o),
(76,592,o),
(86,592,cs),
(116,592,o),
(131,570,o),
(131,528,cs),
(131,93,ls),
(131,47,o),
(109,31,o),
(44,31,cs),
(32,31,o),
(32,-3,o),
(44,-3,c)
);
}
);
width = 325;
}
);
unicode = 305;
}
{
glyphname = kgreenlandic;
kernLeft = KO_z;
kernRight = KO_t;
layers = (
{
anchors = (
{
name = bottom;
pos = (239,0);
},
{
name = top;
pos = (239,415);
},
{
name = us;
pos = (430,415);
}
);
layerId = master01;
shapes = (
{
closed = 1;
nodes = (
(441,-11,o),
(473,26,o),
(479,33,cs),
(480,35,o),
(477,42,o),
(475,45,cs),
(472,48,o),
(467,53,o),
(464,50,cs),
(455,41,o),
(438,28,o),
(415,28,cs),
(394,28,o),
(376,43,o),
(360,75,cs),
(319,155,ls),
(309,174,o),
(290,198,o),
(262,226,cs),
(247,241,o),
(239,250,o),
(239,254,cs),
(239,257,o),
(241,261,o),
(246,267,cs),
(282,309,ls),
(306,337,o),
(323,351,o),
(332,351,cs),
(345,351,o),
(354,348,o),
(369,339,cs),
(384,331,o),
(390,327,o),
(399,327,cs),
(419,327,o),
(440,347,o),
(440,376,cs),
(440,400,o),
(417,425,o),
(386,425,cs),
(349,425,o),
(314,410,o),
(289,381,cs),
(201,276,ls),
(190,263,o),
(180,257,o),
(169,257,cs),
(163,257,o),
(160,260,o),
(160,267,cs),
(160,352,l),
(85,352,l),
(85,68,l),
(160,68,l),
(160,191,ls),
(160,200,o),
(164,204,o),
(171,204,cs),
(178,204,o),
(186,201,o),
(195,195,cs),
(226,174,o),
(250,146,o),
(269,108,cs),
(295,57,ls),
(317,13,o),
(336,-11,o),
(396,-11,cs)
);
},
{
closed = 1;
nodes = (
(70,-1,o),
(89,0,o),
(124,0,cs),
(158,0,o),
(177,-1,o),
(218,-4,c),
(223,-4,o),
(225,1,o),
(225,10,cs),
(225,20,o),
(223,24,o),
(218,24,cs),
(180,24,o),
(160,37,o),
(160,62,cs),
(160,98,l),
(85,98,l),
(85,62,ls),
(85,37,o),
(66,24,o),
(28,24,cs),
(24,24,o),
(21,20,o),
(21,10,cs),
(21,1,o),
(24,-4,o),
(28,-4,c)
);
},
{
closed = 1;
nodes = (
(160,317,l),
(160,353,ls),
(160,378,o),
(179,391,o),
(217,391,cs),
(222,391,o),
(224,395,o),
(224,404,cs),
(224,414,o),
(222,418,o),
(217,418,c),
(176,416,o),
(156,415,o),
(122,415,cs),
(88,415,o),
(68,416,o),
(27,418,c),
(23,418,o),
(21,414,o),
(21,404,cs),
(21,395,o),
(23,391,o),
(27,391,cs),
(66,391,o),
(85,378,o),
(85,353,cs),
(85,317,l)
);
}
);
width = 482;
},
{
anchors = (
{
name = bottom;
pos = (267,0);
},
{
name = top;
pos = (267,415);
},
{
name = us;
pos = (457,415);
}
);
layerId = "75918100-ED89-42A8-B0FE-888EB9C86810";
shapes = (
{
closed = 1;
nodes = (
(469,-11,o),
(501,26,o),
(507,33,cs),
(508,35,o),
(507,41,o),
(501,47,cs),
(497,53,o),
(491,56,o),
(488,53,cs),
(481,46,o),
(466,37,o),
(442,37,cs),
(427,37,o),
(415,50,o),
(402,75,cs),
(361,155,ls),
(351,174,o),
(332,198,o),
(304,226,cs),
(289,241,o),
(272,258,o),
(272,261,cs),
(272,265,o),
(274,268,o),
(279,273,cs),
(315,315,ls),
(331,334,o),
(353,336,o),
(359,336,cs),
(372,336,o),
(380,333,o),
(396,324,cs),
(411,316,o),
(417,313,o),
(426,313,cs),
(451,313,o),
(477,338,o),
(477,376,cs),
(477,400,o),
(451,425,o),
(413,425,cs),
(375,425,o),
(336,411,o),
(312,381,cs),
(224,276,ls),
(214,264,o),
(206,257,o),
(196,257,cs),
(190,257,o),
(188,260,o),
(188,267,cs),
(188,343,l),
(75,343,l),
(75,73,l),
(188,73,l),
(188,191,ls),
(188,200,o),
(191,204,o),
(198,204,cs),
(204,204,o),
(210,200,o),
(218,195,cs),
(248,174,o),
(271,146,o),
(292,108,cs),
(318,57,ls),
(341,12,o),
(361,-11,o),
(424,-11,cs)
);
},
{
closed = 1;
nodes = (
(77,-1,o),
(97,0,o),
(131,0,cs),
(165,0,o),
(185,-1,o),
(238,-4,c),
(242,-4,o),
(245,2,o),
(245,15,cs),
(245,27,o),
(242,33,o),
(238,33,cs),
(204,33,o),
(188,44,o),
(188,66,cs),
(188,99,l),
(75,99,l),
(75,66,ls),
(75,44,o),
(58,33,o),
(24,33,cs),
(19,33,o),
(17,27,o),
(17,15,cs),
(17,2,o),
(20,-4,o),
(24,-4,c)
);
},
{
closed = 1;
nodes = (
(188,316,l),
(188,349,ls),
(188,371,o),
(205,382,o),
(239,382,cs),
(244,382,o),
(246,388,o),
(246,400,cs),
(246,412,o),
(243,418,o),
(239,418,c),
(186,416,o),
(166,415,o),
(132,415,cs),
(98,415,o),
(78,416,o),
(25,418,c),
(21,418,o),
(18,412,o),
(18,400,cs),
(18,388,o),
(21,382,o),
(25,382,cs),
(59,382,o),
(75,371,o),
(75,349,cs),
(75,316,l)
);
}
);
width = 509;
},
{
anchors = (
{
name = bottom;
pos = (231,0);
},
{
name = top;
pos = (231,415);
},
{
name = us;
pos = (421,415);
}
);
layerId = "6ABD9449-5E80-4451-809E-12ADEB9E9AB4";
shapes = (
{
closed = 1;
nodes = (
(433,-11,o),
(465,27,o),
(471,33,cs),
(472,35,o),
(471,39,o),
(466,44,cs),
(462,49,o),
(459,52,o),
(457,49,cs),
(447,40,o),
(430,25,o),
(406,25,cs),
(384,25,o),
(364,42,o),
(347,75,cs),
(306,155,ls),
(295,174,o),
(277,198,o),
(249,226,cs),
(233,241,o),
(229,248,o),
(229,251,cs),
(229,254,o),
(231,259,o),
(236,265,cs),
(271,307,ls),
(298,338,o),
(313,356,o),
(323,356,cs),
(336,356,o),
(346,353,o),
(361,344,cs),
(375,335,o),
(382,332,o),
(391,332,cs),
(409,332,o),
(428,350,o),
(428,376,cs),
(428,400,o),
(407,425,o),
(377,425,cs),
(341,425,o),
(307,410,o),
(282,381,cs),
(194,276,ls),
(184,263,o),
(172,257,o),
(161,257,cs),
(155,257,o),
(152,260,o),
(152,267,cs),
(152,355,l),
(90,355,l),
(90,66,l),
(152,66,l),
(152,191,ls),
(152,200,o),
(155,204,o),
(163,204,cs),
(170,204,o),
(179,202,o),
(188,195,cs),
(218,174,o),
(243,146,o),
(262,108,cs),
(288,57,ls),
(310,14,o),
(329,-11,o),
(388,-11,cs)
);
},
{
closed = 1;
nodes = (
(68,-1,o),
(87,0,o),
(122,0,cs),
(156,0,o),
(175,-1,o),
(212,-4,c),
(217,-4,o),
(219,0,o),
(219,9,cs),
(219,17,o),
(217,21,o),
(212,21,cs),
(172,21,o),
(152,34,o),
(152,61,cs),
(152,98,l),
(90,98,l),
(90,61,ls),
(90,34,o),
(70,21,o),
(31,21,cs),
(26,21,o),
(24,17,o),
(24,9,cs),
(24,0,o),
(26,-4,o),
(31,-4,c)
);
},
{
closed = 1;
nodes = (
(152,317,l),
(152,354,ls),
(152,381,o),
(171,394,o),
(211,394,cs),
(215,394,o),
(218,397,o),
(218,406,cs),
(218,414,o),
(215,418,o),
(211,418,c),
(174,416,o),
(154,415,o),
(120,415,cs),
(86,415,o),
(66,416,o),
(29,418,c),
(25,418,o),
(22,414,o),
(22,406,cs),
(22,397,o),
(25,394,o),
(29,394,cs),
(69,394,o),
(90,381,o),
(90,354,cs),
(90,317,l)
);
}
);
width = 474;
},
{
anchors = (
{
name = bottom;
pos = (214,0);
},
{
name = top;
pos = (214,415);
},
{
name = us;
pos = (382,415);
}
);
layerId = "70B83247-6FA0-4662-9656-C86DD2A17D3B";
shapes = (
{
closed = 1;
nodes = (
(392,-11,o),
(421,26,o),
(426,33,cs),
(427,35,o),
(424,41,o),
(421,44,cs),
(418,48,o),
(413,52,o),
(411,49,cs),
(403,41,o),
(389,30,o),
(369,30,cs),
(352,30,o),
(337,45,o),
(324,75,cs),
(288,155,ls),
(279,174,o),
(262,198,o),
(237,227,cs),
(224,241,o),
(215,252,o),
(215,255,cs),
(215,258,o),
(217,263,o),
(221,269,cs),
(253,311,ls),
(272,336,o),
(289,348,o),
(295,348,cs),
(308,348,o),
(315,344,o),
(328,336,cs),
(342,327,o),
(348,324,o),
(355,324,cs),
(374,324,o),
(394,345,o),
(394,376,cs),
(394,400,o),
(373,425,o),
(343,425,cs),
(312,425,o),
(279,411,o),
(257,381,cs),
(179,276,ls),
(170,263,o),
(161,257,o),
(152,257,cs),
(147,257,o),
(145,260,o),
(145,267,cs),
(145,350,l),
(70,350,l),
(70,69,l),
(145,69,l),
(145,191,ls),
(145,200,o),
(147,204,o),
(153,204,cs),
(161,204,o),
(168,200,o),
(174,195,cs),
(201,174,o),
(222,146,o),
(239,108,cs),
(262,57,ls),
(282,13,o),
(299,-11,o),
(353,-11,cs)
);
},
{
closed = 1;
nodes = (
(59,-1,o),
(79,0,o),
(108,0,cs),
(137,0,o),
(157,-1,o),
(190,-4,c),
(194,-4,o),
(197,1,o),
(197,10,cs),
(197,20,o),
(194,24,o),
(190,24,cs),
(160,24,o),
(145,37,o),
(145,62,cs),
(145,98,l),
(70,98,l),
(70,62,ls),
(70,37,o),
(55,24,o),
(25,24,cs),
(21,24,o),
(19,20,o),
(19,10,cs),
(19,1,o),
(21,-4,o),
(25,-4,c)
);
},
{
closed = 1;
nodes = (
(145,317,l),
(145,353,ls),
(145,378,o),
(159,391,o),
(189,391,cs),
(193,391,o),
(196,395,o),
(196,404,cs),
(196,414,o),
(193,418,o),
(189,418,c),
(155,416,o),
(136,415,o),
(106,415,cs),
(77,415,o),
(58,416,o),
(24,418,c),
(20,418,o),
(18,414,o),
(18,404,cs),
(18,395,o),
(20,391,o),
(24,391,cs),
(55,391,o),
(70,378,o),
(70,353,cs),
(70,317,l)
);
}
);
width = 428;
},
{
anchors = (
{
name = bottom;
pos = (266,0);
},
{
name = top;
pos = (266,415);
},
{
name = us;
pos = (478,415);
}
);
layerId = "9E6FDE2E-55A6-44A9-9556-F1822294BF26";
shapes = (
{
closed = 1;
nodes = (
(492,-11,o),
(526,26,o),
(533,33,cs),
(535,35,o),
(531,42,o),
(529,45,cs),
(527,49,o),
(521,53,o),
(519,51,cs),
(508,42,o),
(488,26,o),
(461,26,cs),
(438,26,o),
(416,42,o),
(397,75,cs),
(351,155,ls),
(339,174,o),
(319,197,o),
(288,226,cs),
(271,241,o),
(264,249,o),
(264,252,cs),
(264,255,o),
(267,260,o),
(272,266,cs),
(312,308,ls),
(340,337,o),
(357,354,o),
(369,354,cs),
(383,354,o),
(393,351,o),
(411,342,cs),
(427,334,o),
(434,331,o),
(444,331,cs),
(465,331,o),
(487,349,o),
(487,376,cs),
(487,400,o),
(463,425,o),
(429,425,cs),
(388,425,o),
(350,410,o),
(322,381,cs),
(224,276,ls),
(212,263,o),
(199,257,o),
(187,257,cs),
(180,257,o),
(177,260,o),
(177,267,cs),
(177,354,l),
(102,354,l),
(102,67,l),
(177,67,l),
(177,191,ls),
(177,200,o),
(181,204,o),
(189,204,cs),
(197,204,o),
(205,203,o),
(217,195,cs),
(251,174,o),
(278,147,o),
(300,108,cs),
(329,57,ls),
(353,14,o),
(375,-11,o),
(440,-11,cs)
);
},
{
closed = 1;
nodes = (
(82,-1,o),
(101,0,o),
(140,0,cs),
(179,0,o),
(199,-1,o),
(248,-4,c),
(252,-4,o),
(254,1,o),
(254,10,cs),
(254,20,o),
(252,24,o),
(248,24,cs),
(201,24,o),
(177,37,o),
(177,62,cs),
(177,98,l),
(102,98,l),
(102,62,ls),
(102,37,o),
(79,24,o),
(32,24,cs),
(28,24,o),
(25,20,o),
(25,10,cs),
(25,1,o),
(28,-4,o),
(32,-4,c)
);
},
{
closed = 1;
nodes = (
(177,317,l),
(177,353,ls),
(177,378,o),
(200,391,o),
(247,391,cs),
(251,391,o),
(253,395,o),
(253,404,cs),
(253,414,o),
(251,418,o),
(247,418,c),
(197,416,o),
(178,415,o),
(139,415,cs),
(100,415,o),
(80,416,o),
(31,418,c),
(27,418,o),
(24,414,o),
(24,404,cs),
(24,395,o),
(27,391,o),
(31,391,cs),
(78,391,o),
(102,378,o),
(102,353,cs),
(102,317,l)
);
}
);
width = 536;
},
{
anchors = (
{
name = bottom;
pos = (239,0);
},
{
name = top;
pos = (239,415);
},
{
name = us;
pos = (430,415);
}
);
layerId = "00F4936D-6309-4DEC-83B3-42806ED1A477";
shapes = (
{
closed = 1;
nodes = (
(441,-11,o),
(473,26,o),
(479,33,cs),
(480,35,o),
(477,42,o),
(475,45,cs),
(472,48,o),
(467,53,o),
(464,50,cs),
(455,41,o),
(438,28,o),
(415,28,cs),
(394,28,o),
(376,43,o),
(360,75,cs),
(319,155,ls),
(309,174,o),
(290,198,o),
(262,226,cs),
(247,241,o),
(239,250,o),
(239,254,cs),
(239,257,o),
(241,261,o),
(246,267,cs),
(282,309,ls),
(306,337,o),
(323,351,o),
(332,351,cs),
(345,351,o),
(354,348,o),
(369,339,cs),
(384,331,o),
(390,327,o),
(399,327,cs),
(419,327,o),
(440,347,o),
(440,376,cs),
(440,400,o),
(417,425,o),
(386,425,cs),
(349,425,o),
(314,410,o),
(289,381,cs),
(201,276,ls),
(190,263,o),
(180,257,o),
(169,257,cs),
(163,257,o),
(160,260,o),
(160,267,cs),
(160,352,l),
(85,352,l),
(85,68,l),
(160,68,l),
(160,191,ls),
(160,200,o),
(164,204,o),
(171,204,cs),
(178,204,o),
(186,201,o),
(195,195,cs),
(226,174,o),
(250,146,o),
(269,108,cs),
(295,57,ls),
(317,13,o),
(336,-11,o),
(396,-11,cs)
);
},
{
closed = 1;
nodes = (
(70,-1,o),
(89,0,o),
(124,0,cs),
(158,0,o),
(177,-1,o),
(218,-4,c),
(223,-4,o),
(225,1,o),
(225,10,cs),
(225,20,o),
(223,24,o),
(218,24,cs),
(180,24,o),
(160,37,o),
(160,62,cs),
(160,98,l),
(85,98,l),
(85,62,ls),
(85,37,o),
(66,24,o),
(28,24,cs),
(24,24,o),
(21,20,o),
(21,10,cs),
(21,1,o),
(24,-4,o),
(28,-4,c)
);
},
{
closed = 1;
nodes = (
(160,317,l),
(160,353,ls),
(160,378,o),
(179,391,o),
(217,391,cs),
(222,391,o),
(224,395,o),
(224,404,cs),
(224,414,o),
(222,418,o),
(217,418,c),
(176,416,o),
(156,415,o),
(122,415,cs),
(88,415,o),
(68,416,o),
(27,418,c),
(23,418,o),
(21,414,o),
(21,404,cs),
(21,395,o),
(23,391,o),
(27,391,cs),
(66,391,o),
(85,378,o),
(85,353,cs),
(85,317,l)
);
}
);
width = 482;
}
);
unicode = 312;
}
{
glyphname = ldot;
kernLeft = KO_l;
kernRight = KO_i;
layers = (
{
layerId = master01;
shapes = (
{
closed = 1;
nodes = (
(346,245,o),
(371,269,o),
(371,303,cs),
(371,336,o),
(346,360,o),
(312,360,cs),
(277,360,o),
(253,336,o),
(253,303,cs),
(253,269,o),
(277,245,o),
(312,245,cs)
);
},
{
closed = 1;
nodes = (
(73,-1,o),
(104,0,o),
(136,0,cs),
(167,0,o),
(199,-1,o),
(231,-4,c),
(240,-4,o),
(240,24,o),
(231,24,cs),
(192,24,o),
(173,37,o),
(173,62,cs),
(173,636,ls),
(173,658,o),
(174,676,o),
(176,711,c),
(176,720,o),
(174,725,o),
(170,725,cs),
(165,725,o),
(158,721,o),
(148,713,cs),
(122,692,o),
(71,667,o),
(53,667,cs),
(44,667,o),
(44,640,o),
(53,640,cs),
(83,640,o),
(98,618,o),
(98,573,cs),
(98,62,ls),
(98,37,o),
(79,24,o),
(41,24,cs),
(32,24,o),
(32,-4,o),
(41,-4,c)
);
}
);
width = 366;
},
{
layerId = "75918100-ED89-42A8-B0FE-888EB9C86810";
shapes = (
{
closed = 1;
nodes = (
(385,228,o),
(417,258,o),
(417,302,cs),
(417,346,o),
(385,376,o),
(341,376,cs),
(296,376,o),
(264,346,o),
(264,302,cs),
(264,258,o),
(296,228,o),
(341,228,cs)
);
},
{
closed = 1;
nodes = (
(67,-1,o),
(102,0,o),
(138,0,cs),
(174,0,o),
(209,-1,o),
(245,-4,c),
(254,-4,o),
(254,33,o),
(245,33,cs),
(211,33,o),
(194,44,o),
(194,66,cs),
(194,636,ls),
(194,658,o),
(195,676,o),
(198,712,c),
(198,720,o),
(194,725,o),
(186,725,cs),
(179,725,o),
(174,723,o),
(165,716,cs),
(133,690,o),
(69,663,o),
(37,663,cs),
(28,663,o),
(28,627,o),
(37,627,cs),
(67,627,o),
(82,605,o),
(82,560,cs),
(82,66,ls),
(82,44,o),
(65,33,o),
(31,33,cs),
(22,33,o),
(22,-4,o),
(31,-4,c)
);
}
);
width = 411;
},
{
layerId = "6ABD9449-5E80-4451-809E-12ADEB9E9AB4";
shapes = (
{
closed = 1;
nodes = (
(335,251,o),
(357,273,o),
(357,303,cs),
(357,333,o),
(335,355,o),
(304,355,cs),
(273,355,o),
(251,333,o),
(251,303,cs),
(251,273,o),
(273,251,o),
(304,251,cs)
);
},
{
closed = 1;
nodes = (
(75,-1,o),
(105,0,o),
(135,0,cs),
(166,0,o),
(196,-1,o),
(226,-4,c),
(235,-4,o),
(235,21,o),
(226,21,cs),
(186,21,o),
(166,34,o),
(166,61,cs),
(166,636,ls),
(166,658,o),
(166,676,o),
(168,711,c),
(168,721,o),
(167,725,o),
(164,725,cs),
(160,725,o),
(152,720,o),
(143,712,cs),
(123,694,o),
(74,669,o),
(59,669,cs),
(50,669,o),
(50,645,o),
(59,645,cs),
(89,645,o),
(104,623,o),
(104,578,cs),
(104,61,ls),
(104,34,o),
(84,21,o),
(44,21,cs),
(35,21,o),
(35,-4,o),
(44,-4,c)
);
}
);
width = 353;
},
{
layerId = "70B83247-6FA0-4662-9656-C86DD2A17D3B";
shapes = (
{
closed = 1;
nodes = (
(320,245,o),
(344,269,o),
(344,302,cs),
(344,336,o),
(320,360,o),
(285,360,cs),
(251,360,o),
(226,336,o),
(226,302,cs),
(226,269,o),
(251,245,o),
(285,245,cs)
);
},
{
closed = 1;
nodes = (
(63,-1,o),
(91,0,o),
(119,0,cs),
(146,0,o),
(173,-1,o),
(201,-4,c),
(210,-4,o),
(210,24,o),
(201,24,cs),
(170,24,o),
(156,37,o),
(156,62,cs),
(156,636,ls),
(156,658,o),
(157,676,o),
(159,711,c),
(159,719,o),
(156,725,o),
(152,725,cs),
(148,725,o),
(143,722,o),
(135,715,cs),
(112,693,o),
(63,667,o),
(45,667,cs),
(37,667,o),
(37,640,o),
(45,640,cs),
(69,640,o),
(81,618,o),
(81,573,cs),
(81,62,ls),
(81,37,o),
(66,24,o),
(36,24,cs),
(27,24,o),
(27,-4,o),
(36,-4,c)
);
}
);
width = 338;
},
{
layerId = "9E6FDE2E-55A6-44A9-9556-F1822294BF26";
shapes = (
{
closed = 1;
nodes = (
(367,245,o),
(392,269,o),
(392,302,cs),
(392,336,o),
(367,360,o),
(333,360,cs),
(298,360,o),
(274,336,o),
(274,302,cs),
(274,269,o),
(298,245,o),
(333,245,cs)
);
},
{
closed = 1;
nodes = (
(87,-1,o),
(130,0,o),
(152,0,cs),
(173,0,o),
(216,-1,o),
(259,-4,c),
(268,-4,o),
(268,24,o),
(259,24,cs),
(212,24,o),
(189,37,o),
(189,62,cs),
(189,636,ls),
(189,658,o),
(190,676,o),
(192,711,c),
(192,722,o),
(191,725,o),
(188,725,cs),
(184,725,o),
(177,721,o),
(162,710,cs),
(135,692,o),
(77,667,o),
(60,667,cs),
(51,667,o),
(51,640,o),
(60,640,cs),
(96,640,o),
(114,618,o),
(114,573,cs),
(114,62,ls),
(114,37,o),
(90,24,o),
(44,24,cs),
(35,24,o),
(35,-4,o),
(44,-4,c)
);
}
);
width = 388;
},
{
layerId = "00F4936D-6309-4DEC-83B3-42806ED1A477";
shapes = (
{
closed = 1;
nodes = (
(346,245,o),
(371,269,o),
(371,303,cs),
(371,336,o),
(346,360,o),
(312,360,cs),
(277,360,o),
(253,336,o),
(253,303,cs),
(253,269,o),
(277,245,o),
(312,245,cs)
);
},
{
closed = 1;
nodes = (
(73,-1,o),
(104,0,o),
(136,0,cs),
(167,0,o),
(199,-1,o),
(231,-4,c),
(240,-4,o),
(240,24,o),
(231,24,cs),
(192,24,o),
(173,37,o),
(173,62,cs),
(173,636,ls),
(173,658,o),
(174,676,o),
(176,711,c),
(176,720,o),
(174,725,o),
(170,725,cs),
(165,725,o),
(158,721,o),
(148,713,cs),
(122,692,o),
(71,667,o),
(53,667,cs),
(44,667,o),
(44,640,o),
(53,640,cs),
(83,640,o),
(98,618,o),
(98,573,cs),
(98,62,ls),
(98,37,o),
(79,24,o),
(41,24,cs),
(32,24,o),
(32,-4,o),
(41,-4,c)
);
}
);
width = 366;
}
);
unicode = 320;
userData = {
KernOnSpecialSpacing = {
L = NoKerning;
R = NoKerning;
};
};
}
{
glyphname = eng;
kernLeft = KO_n;
kernRight = KO_j;
layers = (
{
anchors = (
{
name = bottom;
pos = (264,-256);
},
{
name = top;
pos = (270,415);
},
{
name = us;
pos = (412,415);
},
{
name = zzcurly;
pos = (373,378);
}
);
layerId = master01;
shapes = (
{
closed = 1;
nodes = (
(171,82,l),
(171,254,ls),
(171,314,o),
(187,337,o),
(214,357,cs),
(231,369,o),
(251,381,o),
(285,381,cs),
(314,381,o),
(335,375,o),
(349,347,cs),
(361,322,o),
(361,271,o),
(361,173,cs),
(361,82,l),
(436,82,l),
(436,232,ls),
(436,294,o),
(430,333,o),
(416,360,cs),
(395,401,o),
(353,425,o),
(301,425,cs),
(254,425,o),
(213,404,o),
(177,362,c),
(170,364,l),
(170,391,o),
(172,402,o),
(174,417,c),
(174,426,o),
(172,431,o),
(168,431,cs),
(164,431,o),
(157,428,o),
(146,419,cs),
(124,399,o),
(81,374,o),
(51,374,cs),
(42,374,o),
(42,346,o),
(51,346,cs),
(81,346,o),
(96,324,o),
(96,254,cs),
(96,82,l)
);
},
{
closed = 1;
nodes = (
(71,-1,o),
(102,0,o),
(134,0,cs),
(165,0,o),
(197,-1,o),
(229,-4,c),
(238,-4,o),
(238,24,o),
(229,24,cs),
(190,24,o),
(171,32,o),
(171,62,cs),
(171,98,l),
(96,98,l),
(96,62,ls),
(96,32,o),
(77,24,o),
(39,24,cs),
(30,24,o),
(30,-4,o),
(39,-4,c)
);
},
{
closed = 1;
nodes = (
(302,-271,o),
(337,-257,o),
(363,-230,cs),
(389,-203,o),
(408,-170,o),
(419,-132,cs),
(430,-93,o),
(436,-28,o),
(436,62,cs),
(436,106,l),
(361,106,l),
(361,-124,ls),
(361,-193,o),
(345,-228,o),
(313,-228,cs),
(305,-228,o),
(294,-222,o),
(282,-209,cs),
(269,-196,o),
(254,-190,o),
(238,-190,cs),
(220,-190,o),
(200,-206,o),
(200,-221,cs),
(200,-250,o),
(227,-271,o),
(260,-271,cs)
);
}
);
width = 511;
},
{
anchors = (
{
name = bottom;
pos = (258,-256);
},
{
name = top;
pos = (280,419);
},
{
name = us;
pos = (441,415);
},
{
name = zzcurly;
pos = (393,378);
}
);
layerId = "75918100-ED89-42A8-B0FE-888EB9C86810";
shapes = (
{
closed = 1;
nodes = (
(195,70,l),
(195,255,ls),
(195,310,o),
(209,335,o),
(233,352,cs),
(247,361,o),
(265,372,o),
(294,372,cs),
(317,372,o),
(333,366,o),
(347,342,cs),
(360,317,o),
(360,274,o),
(360,173,cs),
(360,82,l),
(473,82,l),
(473,227,ls),
(473,276,o),
(465,314,o),
(449,348,cs),
(422,400,o),
(381,425,o),
(318,425,cs),
(269,425,o),
(234,409,o),
(201,371,c),
(195,373,l),
(195,392,o),
(196,404,o),
(199,418,c),
(199,427,o),
(194,431,o),
(186,431,cs),
(180,431,o),
(175,429,o),
(166,422,cs),
(139,401,o),
(76,369,o),
(38,369,cs),
(29,369,o),
(29,333,o),
(38,333,cs),
(76,333,o),
(82,313,o),
(82,252,cs),
(82,70,l)
);
},
{
closed = 1;
nodes = (
(67,-1,o),
(102,0,o),
(138,0,cs),
(174,0,o),
(209,-1,o),
(245,-4,c),
(254,-4,o),
(254,33,o),
(245,33,cs),
(211,33,o),
(195,41,o),
(195,66,cs),
(195,99,l),
(82,99,l),
(82,66,ls),
(82,41,o),
(65,33,o),
(31,33,cs),
(22,33,o),
(22,-4,o),
(31,-4,c)
);
},
{
closed = 1;
nodes = (
(319,-271,o),
(361,-253,o),
(382,-237,cs),
(415,-212,o),
(439,-169,o),
(451,-134,cs),
(471,-75,o),
(473,-16,o),
(473,68,cs),
(473,106,l),
(360,106,l),
(360,-112,ls),
(360,-159,o),
(360,-219,o),
(331,-219,cs),
(319,-219,o),
(307,-209,o),
(294,-189,cs),
(282,-168,o),
(268,-158,o),
(252,-158,cs),
(227,-158,o),
(199,-179,o),
(199,-208,cs),
(199,-242,o),
(238,-271,o),
(278,-271,cs)
);
}
);
width = 533;
},
{
anchors = (
{
name = bottom;
pos = (268,-256);
},
{
name = top;
pos = (270,414);
},
{
name = us;
pos = (418,415);
},
{
name = zzcurly;
pos = (379,378);
}
);
layerId = "6ABD9449-5E80-4451-809E-12ADEB9E9AB4";
shapes = (
{
closed = 1;
nodes = (
(166,85,l),
(166,253,ls),
(166,315,o),
(182,339,o),
(211,359,cs),
(228,372,o),
(250,384,o),
(285,384,cs),
(316,384,o),
(336,379,o),
(351,350,cs),
(364,324,o),
(364,271,o),
(364,173,cs),
(364,82,l),
(426,82,l),
(426,233,ls),
(426,297,o),
(419,341,o),
(407,366,cs),
(388,404,o),
(350,425,o),
(299,425,cs),
(251,425,o),
(211,404,o),
(171,360,c),
(165,362,l),
(165,390,o),
(166,399,o),
(168,417,c),
(168,426,o),
(167,431,o),
(164,431,cs),
(160,431,o),
(153,427,o),
(143,418,cs),
(126,404,o),
(88,375,o),
(59,375,cs),
(50,375,o),
(50,351,o),
(59,351,cs),
(88,351,o),
(104,337,o),
(104,255,cs),
(104,85,l)
);
},
{
closed = 1;
nodes = (
(75,-1,o),
(105,0,o),
(135,0,cs),
(166,0,o),
(196,-1,o),
(226,-4,c),
(235,-4,o),
(235,21,o),
(226,21,cs),
(186,21,o),
(166,29,o),
(166,61,cs),
(166,98,l),
(104,98,l),
(104,61,ls),
(104,29,o),
(84,21,o),
(44,21,cs),
(36,21,o),
(36,-4,o),
(44,-4,c)
);
},
{
closed = 1;
nodes = (
(299,-271,o),
(332,-259,o),
(359,-229,cs),
(383,-201,o),
(400,-171,o),
(411,-131,cs),
(419,-100,o),
(426,-33,o),
(426,60,cs),
(426,106,l),
(364,106,l),
(364,-128,ls),
(364,-205,o),
(342,-231,o),
(310,-231,cs),
(302,-231,o),
(293,-226,o),
(280,-216,cs),
(267,-205,o),
(252,-201,o),
(236,-201,cs),
(220,-201,o),
(203,-214,o),
(203,-226,cs),
(203,-252,o),
(225,-271,o),
(256,-271,cs)
);
}
);
width = 508;
},
{
anchors = (
{
name = bottom;
pos = (217,-256);
},
{
name = top;
pos = (229,417);
},
{
name = us;
pos = (348,415);
},
{
name = zzcurly;
pos = (315,378);
}
);
layerId = "70B83247-6FA0-4662-9656-C86DD2A17D3B";
shapes = (
{
closed = 1;
nodes = (
(155,77,l),
(155,256,ls),
(155,313,o),
(167,345,o),
(188,360,cs),
(200,370,o),
(215,381,o),
(240,381,cs),
(261,381,o),
(275,375,o),
(287,348,cs),
(297,324,o),
(297,272,o),
(297,176,cs),
(297,82,l),
(372,82,l),
(372,230,ls),
(372,284,o),
(365,327,o),
(354,357,cs),
(337,400,o),
(301,425,o),
(256,425,cs),
(218,425,o),
(188,407,o),
(160,367,c),
(154,368,l),
(154,377,o),
(156,406,o),
(157,417,c),
(157,426,o),
(155,431,o),
(150,431,cs),
(146,431,o),
(140,427,o),
(133,421,cs),
(119,407,o),
(74,374,o),
(44,374,cs),
(35,374,o),
(35,346,o),
(44,346,cs),
(74,346,o),
(80,307,o),
(80,259,cs),
(80,77,l)
);
},
{
closed = 1;
nodes = (
(63,-1,o),
(90,0,o),
(118,0,cs),
(146,0,o),
(173,-1,o),
(200,-4,c),
(209,-4,o),
(209,24,o),
(200,24,cs),
(170,24,o),
(155,32,o),
(155,62,cs),
(155,98,l),
(80,98,l),
(80,62,ls),
(80,32,o),
(65,24,o),
(36,24,cs),
(27,24,o),
(27,-4,o),
(36,-4,c)
);
},
{
closed = 1;
nodes = (
(258,-271,o),
(288,-254,o),
(307,-233,cs),
(331,-205,o),
(346,-172,o),
(356,-133,cs),
(372,-76,o),
(372,1,o),
(372,64,cs),
(372,106,l),
(297,106,l),
(297,-120,ls),
(297,-156,o),
(295,-225,o),
(266,-225,cs),
(258,-225,o),
(249,-216,o),
(239,-202,cs),
(228,-184,o),
(217,-177,o),
(205,-177,cs),
(187,-177,o),
(168,-195,o),
(168,-216,cs),
(168,-246,o),
(194,-271,o),
(223,-271,cs)
);
}
);
width = 435;
},
{
anchors = (
{
name = bottom;
pos = (315,-256);
},
{
name = top;
pos = (317,414);
},
{
name = us;
pos = (482,415);
},
{
name = zzcurly;
pos = (437,378);
}
);
layerId = "9E6FDE2E-55A6-44A9-9556-F1822294BF26";
shapes = (
{
closed = 1;
nodes = (
(192,86,l),
(192,252,ls),
(192,315,o),
(214,330,o),
(247,354,cs),
(268,369,o),
(293,381,o),
(335,381,cs),
(374,381,o),
(397,375,o),
(415,347,cs),
(430,323,o),
(430,271,o),
(430,173,cs),
(430,82,l),
(505,82,l),
(505,234,ls),
(505,302,o),
(500,333,o),
(484,362,cs),
(461,402,o),
(414,425,o),
(352,425,cs),
(297,425,o),
(251,405,o),
(199,358,c),
(192,361,l),
(192,389,o),
(193,399,o),
(196,417,c),
(196,427,o),
(194,431,o),
(191,431,cs),
(187,431,o),
(179,429,o),
(165,417,cs),
(135,391,o),
(94,374,o),
(64,374,cs),
(55,374,o),
(55,346,o),
(64,346,cs),
(94,346,o),
(118,341,o),
(118,250,cs),
(118,86,l)
);
},
{
closed = 1;
nodes = (
(84,-1,o),
(120,0,o),
(156,0,cs),
(191,0,o),
(227,-1,o),
(263,-4,c),
(272,-4,o),
(272,24,o),
(263,24,cs),
(216,24,o),
(192,32,o),
(192,62,cs),
(192,98,l),
(118,98,l),
(118,62,ls),
(118,32,o),
(94,24,o),
(48,24,cs),
(39,24,o),
(39,-4,o),
(48,-4,c)
);
},
{
closed = 1;
nodes = (
(352,-271,o),
(391,-260,o),
(424,-228,cs),
(452,-201,o),
(475,-169,o),
(487,-131,cs),
(494,-111,o),
(505,-58,o),
(505,60,cs),
(505,106,l),
(430,106,l),
(430,-128,ls),
(430,-230,o),
(399,-231,o),
(366,-231,cs),
(357,-231,o),
(345,-227,o),
(330,-216,cs),
(315,-208,o),
(297,-203,o),
(277,-203,cs),
(258,-203,o),
(237,-216,o),
(237,-227,cs),
(237,-253,o),
(264,-271,o),
(302,-271,cs)
);
}
);
width = 594;
},
{
anchors = (
{
name = bottom;
pos = (264,-256);
},
{
name = top;
pos = (270,415);
},
{
name = us;
pos = (412,415);
},
{
name = zzcurly;
pos = (373,378);
}
);
layerId = "00F4936D-6309-4DEC-83B3-42806ED1A477";
metricLeft = "=32";
shapes = (
{
closed = 1;
nodes = (
(171,82,l),
(171,254,ls),
(171,314,o),
(187,337,o),
(214,357,cs),
(231,369,o),
(251,381,o),
(285,381,cs),
(314,381,o),
(335,375,o),
(349,347,cs),
(361,322,o),
(361,271,o),
(361,173,cs),
(361,82,l),
(436,82,l),
(436,232,ls),
(436,294,o),
(430,333,o),
(416,360,cs),
(395,401,o),
(353,425,o),
(301,425,cs),
(254,425,o),
(213,404,o),
(177,362,c),
(170,364,l),
(170,391,o),
(172,402,o),
(174,417,c),
(174,426,o),
(172,431,o),
(168,431,cs),
(164,431,o),
(157,428,o),
(146,419,cs),
(124,399,o),
(81,374,o),
(51,374,cs),
(42,374,o),
(42,346,o),
(51,346,cs),
(81,346,o),
(96,324,o),
(96,254,cs),
(96,82,l)
);
},
{
closed = 1;
nodes = (
(71,-1,o),
(102,0,o),
(134,0,cs),
(165,0,o),
(197,-1,o),
(229,-4,c),
(238,-4,o),
(238,24,o),
(229,24,cs),
(190,24,o),
(171,32,o),
(171,62,cs),
(171,98,l),
(96,98,l),
(96,62,ls),
(96,32,o),
(77,24,o),
(39,24,cs),
(30,24,o),
(30,-4,o),
(39,-4,c)
);
},
{
closed = 1;
nodes = (
(302,-271,o),
(337,-257,o),
(363,-230,cs),
(389,-203,o),
(408,-170,o),
(419,-132,cs),
(430,-93,o),
(436,-28,o),
(436,62,cs),
(436,106,l),
(361,106,l),
(361,-124,ls),
(361,-193,o),
(345,-228,o),
(313,-228,cs),
(305,-228,o),
(294,-222,o),
(282,-209,cs),
(269,-196,o),
(254,-190,o),
(238,-190,cs),
(220,-190,o),
(200,-206,o),
(200,-221,cs),
(200,-250,o),
(227,-271,o),
(260,-271,cs)
);
}
);
width = 511;
}
);
metricLeft = n;
metricRight = j;
unicode = 331;
}
{
glyphname = btopbar;
layers = (
{
layerId = master01;
shapes = (
{
closed = 1;
nodes = (
(380,-11,o),
(453,84,o),
(453,205,cs),
(453,333,o),
(374,425,o),
(265,425,cs),
(226,425,o),
(186,412,o),
(151,388,c),
(151,612,ls),
(151,621,o),
(154,625,o),
(160,625,cs),
(167,625,o),
(185,625,o),
(213,624,cs),
(242,622,o),
(260,621,o),
(268,620,cs),
(286,618,o),
(303,613,o),
(319,598,cs),
(335,583,o),
(344,562,o),
(344,537,cs),
(344,528,o),
(378,528,o),
(378,537,cs),
(378,640,ls),
(378,653,o),
(371,657,o),
(343,657,cs),
(267,657,o),
(190,655,o),
(114,655,cs),
(86,655,o),
(59,655,o),
(31,657,cs),
(20,657,o),
(20,625,o),
(31,625,cs),
(61,625,o),
(76,613,o),
(76,589,cs),
(76,127,ls),
(76,62,o),
(76,20,o),
(74,0,cs),
(74,-4,o),
(99,-16,o),
(104,-11,cs),
(125,7,o),
(140,16,o),
(151,16,cs),
(162,16,o),
(171,15,o),
(188,7,cs),
(210,-4,o),
(236,-11,o),
(267,-11,cs)
);
},
{
closed = 1;
nodes = (
(191,18,o),
(151,91,o),
(151,147,cs),
(151,316,ls),
(151,367,o),
(187,386,o),
(234,386,cs),
(330,386,o),
(368,299,o),
(368,205,cs),
(368,106,o),
(324,18,o),
(254,18,cs)
);
}
);
width = 479;
},
{
layerId = "75918100-ED89-42A8-B0FE-888EB9C86810";
shapes = (
{
closed = 1;
nodes = (
(415,-11,o),
(488,84,o),
(488,205,cs),
(488,333,o),
(409,425,o),
(299,425,cs),
(260,425,o),
(218,411,o),
(184,388,c),
(184,598,ls),
(184,606,o),
(186,611,o),
(192,611,cs),
(200,611,o),
(214,611,o),
(234,610,cs),
(254,609,o),
(268,608,o),
(277,606,cs),
(313,601,o),
(335,591,o),
(343,578,cs),
(350,565,o),
(353,551,o),
(353,537,cs),
(353,528,o),
(403,528,o),
(403,537,cs),
(403,640,ls),
(403,653,o),
(396,657,o),
(368,657,cs),
(288,657,o),
(208,655,o),
(128,655,cs),
(95,655,o),
(61,655,o),
(28,657,cs),
(17,657,o),
(17,621,o),
(28,621,cs),
(57,621,o),
(72,609,o),
(72,584,cs),
(72,136,ls),
(72,67,o),
(70,32,o),
(69,17,cs),
(68,6,o),
(112,-17,o),
(121,-9,cs),
(140,9,o),
(151,16,o),
(161,16,cs),
(171,16,o),
(183,15,o),
(204,7,cs),
(231,-4,o),
(262,-11,o),
(296,-11,cs)
);
},
{
closed = 1;
nodes = (
(217,28,o),
(184,97,o),
(184,150,cs),
(184,310,ls),
(184,357,o),
(214,376,o),
(253,376,cs),
(332,376,o),
(364,294,o),
(364,204,cs),
(364,111,o),
(328,28,o),
(270,28,cs)
);
}
);
width = 504;
},
{
layerId = "6ABD9449-5E80-4451-809E-12ADEB9E9AB4";
shapes = (
{
closed = 1;
nodes = (
(373,-11,o),
(446,84,o),
(446,205,cs),
(446,333,o),
(368,425,o),
(258,425,cs),
(219,425,o),
(179,412,o),
(144,387,c),
(144,617,ls),
(144,626,o),
(147,630,o),
(153,630,cs),
(160,630,o),
(180,630,o),
(210,628,cs),
(242,626,o),
(262,625,o),
(270,624,cs),
(281,623,o),
(296,620,o),
(315,604,cs),
(334,588,o),
(345,565,o),
(345,537,cs),
(345,528,o),
(374,528,o),
(374,537,cs),
(374,640,ls),
(374,653,o),
(367,657,o),
(338,657,cs),
(263,657,o),
(188,655,o),
(113,655,cs),
(88,655,o),
(62,655,o),
(37,657,cs),
(25,657,o),
(25,627,o),
(37,627,cs),
(67,627,o),
(82,615,o),
(82,590,cs),
(82,124,ls),
(82,61,o),
(82,18,o),
(81,-6,cs),
(80,-10,o),
(99,-18,o),
(103,-12,cs),
(121,11,o),
(140,16,o),
(152,16,cs),
(164,16,o),
(172,15,o),
(188,7,cs),
(208,-4,o),
(231,-11,o),
(262,-11,cs)
);
},
{
closed = 1;
nodes = (
(187,15,o),
(144,89,o),
(144,146,cs),
(144,318,ls),
(144,370,o),
(182,390,o),
(232,390,cs),
(333,390,o),
(374,301,o),
(374,205,cs),
(374,104,o),
(328,15,o),
(253,15,cs)
);
}
);
width = 474;
},
{
layerId = "70B83247-6FA0-4662-9656-C86DD2A17D3B";
shapes = (
{
closed = 1;
nodes = (
(322,-11,o),
(381,84,o),
(381,205,cs),
(381,333,o),
(318,425,o),
(230,425,cs),
(199,425,o),
(166,412,o),
(139,388,c),
(139,606,ls),
(139,616,o),
(141,620,o),
(146,620,cs),
(155,620,o),
(161,620,o),
(185,619,cs),
(207,618,o),
(212,617,o),
(229,614,cs),
(244,611,o),
(260,604,o),
(270,589,cs),
(279,576,o),
(284,558,o),
(284,537,cs),
(284,528,o),
(317,529,o),
(317,537,cs),
(317,640,ls),
(317,653,o),
(311,657,o),
(289,657,cs),
(226,657,o),
(164,655,o),
(102,655,cs),
(77,655,o),
(53,655,o),
(29,657,cs),
(20,657,o),
(20,624,o),
(29,624,cs),
(52,624,o),
(64,611,o),
(64,587,cs),
(64,131,ls),
(64,50,o),
(63,22,o),
(62,7,cs),
(62,0,o),
(89,-16,o),
(95,-10,cs),
(111,7,o),
(122,16,o),
(130,16,cs),
(138,16,o),
(146,15,o),
(162,7,cs),
(181,-4,o),
(204,-11,o),
(230,-11,cs)
);
},
{
closed = 1;
nodes = (
(168,22,o),
(139,93,o),
(139,148,cs),
(139,313,ls),
(139,363,o),
(165,382,o),
(200,382,cs),
(270,382,o),
(298,297,o),
(298,205,cs),
(298,108,o),
(266,22,o),
(214,22,cs)
);
}
);
width = 409;
},
{
layerId = "9E6FDE2E-55A6-44A9-9556-F1822294BF26";
shapes = (
{
closed = 1;
nodes = (
(445,-11,o),
(533,84,o),
(533,205,cs),
(533,333,o),
(438,425,o),
(307,425,cs),
(261,425,o),
(211,412,o),
(170,388,c),
(170,618,ls),
(170,626,o),
(174,631,o),
(181,631,cs),
(186,631,o),
(216,630,o),
(250,628,cs),
(284,626,o),
(315,624,o),
(316,625,c),
(335,624,o),
(354,622,o),
(376,606,cs),
(399,589,o),
(411,566,o),
(411,537,cs),
(411,528,o),
(446,528,o),
(446,537,cs),
(446,640,ls),
(446,653,o),
(438,657,o),
(404,657,cs),
(314,657,o),
(223,655,o),
(133,655,cs),
(103,655,o),
(71,655,o),
(41,657,cs),
(28,657,o),
(28,627,o),
(41,627,cs),
(77,627,o),
(96,615,o),
(96,591,cs),
(96,123,ls),
(96,74,o),
(95,18,o),
(94,-7,cs),
(94,-11,o),
(116,-17,o),
(121,-13,cs),
(146,6,o),
(165,16,o),
(179,16,cs),
(193,16,o),
(204,15,o),
(223,7,cs),
(247,-4,o),
(275,-11,o),
(311,-11,cs)
);
},
{
closed = 1;
nodes = (
(221,14,o),
(170,88,o),
(170,146,cs),
(170,318,ls),
(170,370,o),
(216,390,o),
(275,390,cs),
(397,390,o),
(446,301,o),
(446,205,cs),
(446,104,o),
(390,14,o),
(302,14,cs)
);
}
);
width = 561;
},
{
layerId = "00F4936D-6309-4DEC-83B3-42806ED1A477";
shapes = (
{
closed = 1;
nodes = (
(381,-11,o),
(455,84,o),
(455,205,cs),
(455,333,o),
(376,425,o),
(267,425,cs),
(228,425,o),
(188,412,o),
(153,388,c),
(153,612,ls),
(153,621,o),
(156,625,o),
(162,625,cs),
(169,625,o),
(187,625,o),
(216,624,cs),
(244,622,o),
(263,621,o),
(271,620,cs),
(289,618,o),
(306,613,o),
(322,598,cs),
(338,583,o),
(346,562,o),
(346,537,cs),
(346,528,o),
(380,528,o),
(380,537,cs),
(380,640,ls),
(380,653,o),
(374,657,o),
(345,657,cs),
(269,657,o),
(192,655,o),
(116,655,cs),
(89,655,o),
(61,655,o),
(34,657,cs),
(22,657,o),
(22,625,o),
(34,625,cs),
(63,625,o),
(79,613,o),
(79,589,cs),
(79,127,ls),
(79,62,o),
(78,20,o),
(77,0,cs),
(76,-4,o),
(101,-16,o),
(106,-11,cs),
(127,7,o),
(142,16,o),
(153,16,cs),
(165,16,o),
(174,15,o),
(191,7,cs),
(213,-4,o),
(238,-11,o),
(269,-11,cs)
);
},
{
closed = 1;
nodes = (
(193,18,o),
(153,91,o),
(153,147,cs),
(153,316,ls),
(153,367,o),
(189,386,o),
(236,386,cs),
(331,386,o),
(370,299,o),
(370,205,cs),
(370,106,o),
(326,18,o),
(257,18,cs)
);
}
);
width = 481;
}
);
metricLeft = b;
metricRight = b;
unicode = 387;
}
{
glyphname = Iotaafrican;
kernLeft = KO_U;
kernRight = KO_t;
layers = (
{
anchors = (
{
name = bottom;
pos = (217,0);
},
{
name = top;
pos = (150,656);
}
);
layerId = master01;
shapes = (
{
closed = 1;
nodes = (
(251,-13,o),
(282,10,o),
(304,52,cs),
(307,57,o),
(289,73,o),
(284,67,cs),
(272,52,o),
(261,45,o),
(248,45,cs),
(214,45,o),
(206,70,o),
(206,109,cs),
(206,585,ls),
(206,624,o),
(207,639,o),
(210,666,c),
(210,676,o),
(206,681,o),
(198,681,cs),
(190,681,o),
(183,679,o),
(177,676,cs),
(171,673,o),
(156,667,o),
(131,660,cs),
(107,652,o),
(77,648,o),
(43,648,cs),
(34,648,o),
(34,611,o),
(43,611,cs),
(100,611,o),
(128,589,o),
(128,545,cs),
(128,90,ls),
(128,37,o),
(155,-13,o),
(210,-13,cs)
);
}
);
width = 330;
},
{
anchors = (
{
name = bottom;
pos = (229,0);
},
{
name = top;
pos = (162,656);
}
);
layerId = "75918100-ED89-42A8-B0FE-888EB9C86810";
shapes = (
{
closed = 1;
nodes = (
(290,-11,o),
(338,22,o),
(368,81,cs),
(372,90,o),
(346,114,o),
(338,105,cs),
(320,84,o),
(305,74,o),
(286,74,cs),
(246,74,o),
(233,110,o),
(233,166,cs),
(232,582,ls),
(232,608,o),
(234,635,o),
(235,661,c),
(236,672,o),
(228,678,o),
(214,678,cs),
(211,678,o),
(206,677,o),
(199,675,cs),
(181,669,o),
(151,659,o),
(128,654,cs),
(99,648,o),
(68,645,o),
(37,645,cs),
(26,645,o),
(27,600,o),
(37,600,cs),
(88,600,o),
(114,577,o),
(114,533,cs),
(114,138,ls),
(114,61,o),
(153,-11,o),
(231,-11,cs)
);
}
);
width = 388;
},
{
anchors = (
{
name = bottom;
pos = (219,0);
},
{
name = top;
pos = (153,656);
}
);
layerId = "6ABD9449-5E80-4451-809E-12ADEB9E9AB4";
shapes = (
{
closed = 1;
nodes = (
(243,-14,o),
(271,6,o),
(290,41,cs),
(293,46,o),
(276,60,o),
(272,54,cs),
(262,41,o),
(252,36,o),
(240,36,cs),
(210,36,o),
(203,57,o),
(203,90,cs),
(203,586,ls),
(203,628,o),
(204,640,o),
(207,667,c),
(207,677,o),
(204,682,o),
(198,682,cs),
(188,682,o),
(181,680,o),
(176,677,cs),
(173,674,o),
(164,670,o),
(138,662,cs),
(115,653,o),
(86,649,o),
(51,649,cs),
(43,649,o),
(43,614,o),
(51,614,cs),
(110,614,o),
(138,593,o),
(138,549,cs),
(138,74,ls),
(138,28,o),
(162,-14,o),
(209,-14,cs)
);
}
);
width = 318;
},
{
anchors = (
{
name = bottom;
pos = (185,0);
},
{
name = top;
pos = (132,656);
}
);
layerId = "70B83247-6FA0-4662-9656-C86DD2A17D3B";
shapes = (
{
closed = 1;
nodes = (
(224,-13,o),
(253,9,o),
(271,52,cs),
(275,62,o),
(256,72,o),
(253,67,cs),
(242,51,o),
(233,45,o),
(219,45,cs),
(190,45,o),
(181,70,o),
(181,109,cs),
(181,584,ls),
(181,612,o),
(181,633,o),
(183,665,c),
(183,675,o),
(179,680,o),
(171,680,cs),
(165,680,o),
(161,678,o),
(156,676,cs),
(148,672,o),
(132,666,o),
(112,659,cs),
(91,652,o),
(69,648,o),
(40,648,cs),
(33,648,o),
(34,611,o),
(40,611,cs),
(85,611,o),
(107,588,o),
(107,545,cs),
(107,90,ls),
(107,37,o),
(135,-13,o),
(189,-13,cs)
);
}
);
width = 293;
},
{
anchors = (
{
name = bottom;
pos = (246,0);
},
{
name = top;
pos = (167,656);
}
);
layerId = "9E6FDE2E-55A6-44A9-9556-F1822294BF26";
shapes = (
{
closed = 1;
nodes = (
(282,-14,o),
(309,13,o),
(334,52,cs),
(338,57,o),
(318,72,o),
(313,67,cs),
(298,50,o),
(288,45,o),
(273,45,cs),
(239,45,o),
(228,66,o),
(228,109,cs),
(228,586,ls),
(228,635,o),
(230,644,o),
(233,667,c),
(233,677,o),
(230,682,o),
(222,682,cs),
(212,682,o),
(202,680,o),
(195,677,cs),
(191,674,o),
(179,669,o),
(148,661,cs),
(119,652,o),
(82,648,o),
(43,648,cs),
(33,648,o),
(32,611,o),
(43,611,cs),
(113,611,o),
(147,589,o),
(147,545,cs),
(147,90,ls),
(147,29,o),
(181,-14,o),
(237,-14,cs)
);
}
);
width = 365;
},
{
anchors = (
{
name = bottom;
pos = (217,0);
},
{
name = top;
pos = (150,656);
}
);
layerId = "00F4936D-6309-4DEC-83B3-42806ED1A477";
shapes = (
{
closed = 1;
nodes = (
(251,-13,o),
(282,10,o),
(304,52,cs),
(307,57,o),
(289,73,o),
(284,67,cs),
(272,52,o),
(261,45,o),
(248,45,cs),
(214,45,o),
(206,70,o),
(206,109,cs),
(206,585,ls),
(206,624,o),
(207,639,o),
(210,666,c),
(210,676,o),
(206,681,o),
(198,681,cs),
(190,681,o),
(183,679,o),
(177,676,cs),
(171,673,o),
(156,667,o),
(131,660,cs),
(107,652,o),
(77,648,o),
(43,648,cs),
(34,648,o),
(34,611,o),
(43,611,cs),
(100,611,o),
(128,589,o),
(128,545,cs),
(128,90,ls),
(128,37,o),
(155,-13,o),
(210,-13,cs)
);
}
);
width = 330;
}
);
metricLeft = Thorn;
unicode = 406;
}
{
glyphname = Tonetwo;
layers = (
{
layerId = master01;
shapes = (
{
closed = 1;
nodes = (
(360,-13,o),
(429,20,o),
(465,82,c),
(463,116,o),
(455,155,o),
(438,210,cs),
(435,219,o),
(400,213,o),
(401,204,cs),
(402,197,o),
(403,189,o),
(403,182,cs),
(403,89,o),
(338,23,o),
(251,23,cs),
(176,23,o),
(115,70,o),
(115,149,cs),
(115,212,o),
(158,268,o),
(244,293,cs),
(374,331,o),
(442,396,o),
(442,499,cs),
(442,612,o),
(360,676,o),
(237,676,cs),
(173,676,o),
(116,660,o),
(70,624,c),
(70,590,o),
(75,557,o),
(85,515,cs),
(88,503,o),
(119,509,o),
(118,521,cs),
(115,586,o),
(165,644,o),
(250,644,cs),
(331,644,o),
(374,597,o),
(374,530,cs),
(374,458,o),
(325,417,o),
(229,392,cs),
(108,361,o),
(48,294,o),
(48,183,cs),
(48,61,o),
(121,-13,o),
(265,-13,cs)
);
}
);
width = 508;
},
{
layerId = "75918100-ED89-42A8-B0FE-888EB9C86810";
shapes = (
{
closed = 1;
nodes = (
(360,-13,o),
(442,16,o),
(490,81,c),
(487,137,o),
(478,180,o),
(459,224,cs),
(455,233,o),
(403,223,o),
(405,214,cs),
(407,206,o),
(408,197,o),
(408,188,cs),
(408,104,o),
(343,33,o),
(256,33,cs),
(193,33,o),
(141,79,o),
(141,148,cs),
(141,211,o),
(185,258,o),
(281,288,cs),
(399,325,o),
(466,390,o),
(466,500,cs),
(466,615,o),
(375,676,o),
(241,676,cs),
(173,676,o),
(111,660,o),
(63,624,c),
(63,589,o),
(68,554,o),
(80,506,cs),
(82,497,o),
(131,503,o),
(131,514,cs),
(128,584,o),
(181,635,o),
(257,635,cs),
(329,635,o),
(365,591,o),
(365,534,cs),
(365,473,o),
(324,430,o),
(226,403,cs),
(107,370,o),
(38,297,o),
(38,188,cs),
(38,70,o),
(118,-13,o),
(269,-13,cs)
);
}
);
width = 525;
},
{
layerId = "6ABD9449-5E80-4451-809E-12ADEB9E9AB4";
shapes = (
{
closed = 1;
nodes = (
(362,-13,o),
(427,21,o),
(459,82,c),
(456,118,o),
(448,155,o),
(432,206,cs),
(430,214,o),
(401,210,o),
(402,201,cs),
(403,194,o),
(403,187,o),
(403,179,cs),
(403,84,o),
(338,20,o),
(251,20,cs),
(172,20,o),
(108,73,o),
(108,155,cs),
(108,223,o),
(151,271,o),
(234,295,cs),
(367,333,o),
(436,400,o),
(436,498,cs),
(436,613,o),
(357,676,o),
(238,676,cs),
(174,676,o),
(119,660,o),
(74,624,c),
(74,592,o),
(79,560,o),
(88,518,cs),
(91,506,o),
(116,511,o),
(116,523,cs),
(113,586,o),
(160,646,o),
(250,646,cs),
(333,646,o),
(378,599,o),
(378,529,cs),
(378,455,o),
(327,411,o),
(232,388,cs),
(110,359,o),
(53,294,o),
(53,182,cs),
(53,59,o),
(124,-13,o),
(265,-13,cs)
);
}
);
width = 507;
},
{
layerId = "70B83247-6FA0-4662-9656-C86DD2A17D3B";
shapes = (
{
closed = 1;
nodes = (
(312,-13,o),
(374,19,o),
(408,81,c),
(406,123,o),
(399,163,o),
(384,214,cs),
(381,223,o),
(342,216,o),
(343,207,cs),
(344,200,o),
(345,190,o),
(345,183,cs),
(345,94,o),
(291,26,o),
(220,26,cs),
(158,26,o),
(107,76,o),
(107,152,cs),
(107,218,o),
(145,260,o),
(222,292,cs),
(327,335,o),
(388,396,o),
(388,499,cs),
(388,614,o),
(315,676,o),
(206,676,cs),
(150,676,o),
(99,660,o),
(60,624,c),
(60,590,o),
(63,557,o),
(72,513,cs),
(75,500,o),
(107,508,o),
(106,519,cs),
(104,585,o),
(146,641,o),
(218,641,cs),
(285,641,o),
(320,596,o),
(320,531,cs),
(320,463,o),
(278,424,o),
(197,395,cs),
(95,359,o),
(40,293,o),
(40,182,cs),
(40,61,o),
(104,-13,o),
(230,-13,cs)
);
}
);
width = 445;
},
{
layerId = "9E6FDE2E-55A6-44A9-9556-F1822294BF26";
shapes = (
{
closed = 1;
nodes = (
(410,-13,o),
(485,21,o),
(523,82,c),
(520,112,o),
(511,150,o),
(492,207,cs),
(489,216,o),
(458,210,o),
(460,201,cs),
(461,192,o),
(461,186,o),
(461,180,cs),
(461,85,o),
(387,21,o),
(286,21,cs),
(197,21,o),
(124,73,o),
(124,155,cs),
(124,222,o),
(172,275,o),
(267,294,cs),
(420,325,o),
(496,399,o),
(496,498,cs),
(496,613,o),
(406,676,o),
(269,676,cs),
(196,676,o),
(133,660,o),
(82,624,c),
(82,589,o),
(86,557,o),
(98,516,cs),
(102,506,o),
(131,511,o),
(130,522,cs),
(127,586,o),
(185,646,o),
(283,646,cs),
(376,646,o),
(427,595,o),
(427,527,cs),
(427,452,o),
(371,407,o),
(263,389,cs),
(121,365,o),
(57,301,o),
(57,190,cs),
(57,68,o),
(138,-13,o),
(300,-13,cs)
);
}
);
width = 575;
},
{
layerId = "00F4936D-6309-4DEC-83B3-42806ED1A477";
shapes = (
{
closed = 1;
nodes = (
(360,-13,o),
(429,20,o),
(465,82,c),
(463,116,o),
(455,155,o),
(438,210,cs),
(435,219,o),
(400,213,o),
(401,204,cs),
(402,197,o),
(403,189,o),
(403,182,cs),
(403,89,o),
(338,23,o),
(251,23,cs),
(176,23,o),
(115,70,o),
(115,149,cs),
(115,212,o),
(158,268,o),
(244,293,cs),
(374,331,o),
(442,396,o),
(442,499,cs),
(442,612,o),
(360,676,o),
(237,676,cs),
(173,676,o),
(116,660,o),
(70,624,c),
(70,590,o),
(75,557,o),
(85,515,cs),
(88,503,o),
(119,509,o),
(118,521,cs),
(115,586,o),
(165,644,o),
(250,644,cs),
(331,644,o),
(374,597,o),
(374,530,cs),
(374,458,o),
(325,416,o),
(229,392,cs),
(108,362,o),
(48,294,o),
(48,183,cs),
(48,61,o),
(121,-13,o),
(265,-13,cs)
);
}
);
width = 508;
}
);
metricLeft = "=|S";
metricRight = "=|S";
unicode = 423;
}
{
glyphname = uni01AA;
layers = (
{
layerId = master01;
shapes = (
{
closed = 1;
nodes = (
(313,-285,o),
(336,-263,o),
(336,-238,cs),
(336,-208,o),
(309,-204,o),
(298,-204,cs),
(282,-204,o),
(268,-210,o),
(255,-223,cs),
(242,-236,o),
(231,-242,o),
(223,-242,cs),
(191,-242,o),
(175,-208,o),
(175,-138,cs),
(175,399,ls),
(175,564,o),
(132,699,o),
(14,699,cs),
(-33,699,o),
(-68,665,o),
(-68,622,cs),
(-68,560,o),
(-9,534,o),
(49,534,cs),
(68,534,o),
(85,538,o),
(100,545,c),
(100,15,ls),
(100,-153,o),
(148,-285,o),
(275,-285,cs)
);
},
{
closed = 1;
nodes = (
(0,558,o),
(-23,582,o),
(-23,614,cs),
(-23,646,o),
(1,668,o),
(31,668,cs),
(78,668,o),
(100,613,o),
(101,573,c),
(88,563,o),
(70,558,o),
(46,558,cs)
);
}
);
width = 253;
},
{
layerId = "75918100-ED89-42A8-B0FE-888EB9C86810";
shapes = (
{
closed = 1;
nodes = (
(299,-285,o),
(333,-266,o),
(333,-235,cs),
(333,-205,o),
(322,-189,o),
(295,-189,cs),
(278,-189,o),
(264,-196,o),
(253,-209,cs),
(242,-223,o),
(231,-230,o),
(221,-230,cs),
(189,-230,o),
(172,-195,o),
(172,-126,cs),
(172,399,ls),
(172,542,o),
(148,699,o),
(-20,699,cs),
(-85,699,o),
(-117,655,o),
(-117,593,cs),
(-117,537,o),
(-67,488,o),
(-2,488,cs),
(19,488,o),
(40,490,o),
(61,494,c),
(61,15,ls),
(61,-147,o),
(122,-285,o),
(253,-285,cs)
);
},
{
closed = 1;
nodes = (
(-32,530,o),
(-56,560,o),
(-56,593,cs),
(-56,627,o),
(-46,644,o),
(-2,644,cs),
(30,644,o),
(61,609,o),
(61,536,c),
(42,533,o),
(21,530,o),
(-2,530,cs)
);
}
);
width = 217;
},
{
layerId = "6ABD9449-5E80-4451-809E-12ADEB9E9AB4";
shapes = (
{
closed = 1;
nodes = (
(330,-285,o),
(352,-263,o),
(352,-238,cs),
(352,-208,o),
(325,-204,o),
(314,-204,cs),
(298,-204,o),
(284,-210,o),
(271,-223,cs),
(258,-236,o),
(248,-242,o),
(239,-242,cs),
(207,-242,o),
(191,-208,o),
(191,-138,cs),
(191,399,ls),
(191,523,o),
(163,699,o),
(30,699,cs),
(-17,699,o),
(-52,665,o),
(-52,622,cs),
(-52,560,o),
(7,534,o),
(65,534,cs),
(84,534,o),
(101,538,o),
(116,545,c),
(116,15,ls),
(116,-153,o),
(164,-285,o),
(291,-285,cs)
);
},
{
closed = 1;
nodes = (
(17,558,o),
(-7,582,o),
(-7,614,cs),
(-7,646,o),
(17,668,o),
(47,668,cs),
(94,668,o),
(116,613,o),
(117,573,c),
(104,563,o),
(86,558,o),
(63,558,cs)
);
}
);
width = 280;
},
{
layerId = "70B83247-6FA0-4662-9656-C86DD2A17D3B";
shapes = (
{
closed = 1;
nodes = (
(281,-285,o),
(303,-264,o),
(303,-237,cs),
(303,-208,o),
(288,-198,o),
(273,-198,cs),
(261,-198,o),
(248,-205,o),
(239,-217,cs),
(229,-231,o),
(221,-237,o),
(213,-237,cs),
(188,-237,o),
(174,-202,o),
(174,-133,cs),
(174,399,ls),
(174,517,o),
(157,699,o),
(33,699,cs),
(-12,699,o),
(-39,661,o),
(-39,611,cs),
(-39,551,o),
(5,516,o),
(54,516,cs),
(71,516,o),
(86,519,o),
(100,524,c),
(100,15,ls),
(100,-150,o),
(143,-285,o),
(247,-285,cs)
);
},
{
closed = 1;
nodes = (
(23,547,o),
(4,573,o),
(4,606,cs),
(4,638,o),
(17,659,o),
(47,659,cs),
(78,659,o),
(99,611,o),
(100,558,c),
(86,550,o),
(70,547,o),
(53,547,cs)
);
}
);
width = 252;
},
{
layerId = "9E6FDE2E-55A6-44A9-9556-F1822294BF26";
shapes = (
{
closed = 1;
nodes = (
(346,-285,o),
(369,-262,o),
(369,-240,cs),
(369,-209,o),
(331,-210,o),
(323,-210,cs),
(303,-210,o),
(288,-216,o),
(271,-229,cs),
(254,-242,o),
(242,-247,o),
(233,-247,cs),
(194,-247,o),
(175,-213,o),
(175,-143,cs),
(175,399,ls),
(175,612,o),
(107,699,o),
(-5,699,cs),
(-54,699,o),
(-97,669,o),
(-97,633,cs),
(-97,568,o),
(-22,553,o),
(45,553,cs),
(65,553,o),
(83,556,o),
(101,565,c),
(101,15,ls),
(101,-155,o),
(153,-285,o),
(303,-285,cs)
);
},
{
closed = 1;
nodes = (
(-22,569,o),
(-50,591,o),
(-50,623,cs),
(-50,655,o),
(-15,678,o),
(16,678,cs),
(78,678,o),
(100,614,o),
(101,588,c),
(91,576,o),
(70,569,o),
(40,569,cs)
);
}
);
width = 253;
},
{
layerId = "00F4936D-6309-4DEC-83B3-42806ED1A477";
shapes = (
{
closed = 1;
nodes = (
(313,-285,o),
(336,-263,o),
(336,-238,cs),
(336,-208,o),
(309,-204,o),
(298,-204,cs),
(282,-204,o),
(268,-210,o),
(255,-223,cs),
(242,-236,o),
(231,-242,o),
(223,-242,cs),
(191,-242,o),
(175,-208,o),
(175,-138,cs),
(175,399,ls),
(175,564,o),
(132,699,o),
(14,699,cs),
(-33,699,o),
(-68,665,o),
(-68,622,cs),
(-68,560,o),
(-9,534,o),
(49,534,cs),
(68,534,o),
(85,538,o),
(100,545,c),
(100,15,ls),
(100,-153,o),
(148,-285,o),
(275,-285,cs)
);
},
{
closed = 1;
nodes = (
(0,558,o),
(-23,582,o),
(-23,614,cs),
(-23,646,o),
(1,668,o),
(31,668,cs),
(78,668,o),
(100,613,o),
(101,573,c),
(88,563,o),
(70,558,o),
(46,558,cs)
);
}
);
width = 253;
}
);
unicode = 426;
}
{
glyphname = Upsilonafrican;
kernLeft = KO_O;
kernRight = KO_O;
layers = (
{
layerId = master01;
shapes = (
{
closed = 1;
nodes = (
(532,-13,o),
(672,126,o),
(672,326,cs),
(672,457,o),
(609,552,o),
(544,610,c),
(557,624,o),
(577,628,o),
(604,628,cs),
(613,628,o),
(613,666,o),
(604,666,c),
(569,664,o),
(536,663,o),
(501,663,cs),
(484,663,o),
(474,655,o),
(474,634,cs),
(474,605,l),
(539,547,o),
(579,449,o),
(579,326,cs),
(579,128,o),
(476,23,o),
(356,23,cs),
(237,23,o),
(134,128,o),
(134,326,cs),
(134,449,o),
(173,547,o),
(238,605,c),
(237,628,ls),
(236,651,o),
(227,663,o),
(212,663,cs),
(172,663,o),
(133,665,o),
(94,666,c),
(85,666,o),
(85,628,o),
(94,628,cs),
(128,628,o),
(153,622,o),
(168,610,c),
(103,552,o),
(40,457,o),
(40,326,cs),
(40,126,o),
(181,-13,o),
(356,-13,cs)
);
}
);
width = 712;
},
{
layerId = "75918100-ED89-42A8-B0FE-888EB9C86810";
shapes = (
{
closed = 1;
nodes = (
(553,-13,o),
(700,126,o),
(700,316,cs),
(700,445,o),
(634,546,o),
(566,604,c),
(579,615,o),
(599,621,o),
(626,621,cs),
(635,621,o),
(635,666,o),
(626,666,c),
(578,664,o),
(530,663,o),
(482,663,cs),
(466,663,o),
(455,655,o),
(455,634,cs),
(455,605,l),
(523,554,o),
(566,442,o),
(566,316,cs),
(566,172,o),
(509,23,o),
(364,23,cs),
(218,23,o),
(161,172,o),
(161,316,cs),
(161,442,o),
(204,554,o),
(272,605,c),
(271,628,ls),
(270,651,o),
(261,663,o),
(245,663,cs),
(196,663,o),
(136,665,o),
(87,666,c),
(78,666,o),
(78,621,o),
(87,621,cs),
(121,621,o),
(146,615,o),
(161,604,c),
(94,544,o),
(28,449,o),
(28,316,cs),
(28,126,o),
(175,-13,o),
(364,-13,cs)
);
}
);
width = 728;
},
{
guides = (
{
pos = (849,1265);
}
);
layerId = "6ABD9449-5E80-4451-809E-12ADEB9E9AB4";
shapes = (
{
closed = 1;
nodes = (
(524,-13,o),
(662,126,o),
(662,329,cs),
(662,460,o),
(599,560,o),
(536,618,c),
(549,627,o),
(569,631,o),
(596,631,cs),
(604,631,o),
(604,666,o),
(596,666,c),
(565,664,o),
(537,663,o),
(506,663,cs),
(490,663,o),
(479,655,o),
(479,634,cs),
(479,605,l),
(543,545,o),
(582,451,o),
(582,330,cs),
(582,113,o),
(464,23,o),
(353,23,cs),
(242,23,o),
(124,113,o),
(124,330,cs),
(124,451,o),
(162,545,o),
(226,605,c),
(225,628,ls),
(224,651,o),
(215,663,o),
(200,663,cs),
(163,663,o),
(131,664,o),
(95,666,c),
(86,666,o),
(86,631,o),
(95,631,cs),
(130,631,o),
(155,627,o),
(170,618,c),
(106,560,o),
(44,460,o),
(44,329,cs),
(44,126,o),
(183,-13,o),
(353,-13,cs)
);
}
);
width = 706;
},
{
layerId = "70B83247-6FA0-4662-9656-C86DD2A17D3B";
shapes = (
{
closed = 1;
nodes = (
(460,-13,o),
(581,126,o),
(581,323,cs),
(581,453,o),
(527,552,o),
(472,610,c),
(483,621,o),
(500,628,o),
(522,628,cs),
(530,628,o),
(530,666,o),
(522,666,c),
(489,664,o),
(454,663,o),
(421,663,cs),
(407,663,o),
(398,655,o),
(398,634,cs),
(398,605,l),
(454,549,o),
(488,444,o),
(488,323,cs),
(488,139,o),
(412,23,o),
(308,23,cs),
(203,23,o),
(127,139,o),
(127,323,cs),
(127,447,o),
(162,549,o),
(217,605,c),
(216,628,ls),
(215,651,o),
(207,663,o),
(194,663,cs),
(158,663,o),
(119,665,o),
(80,666,c),
(73,666,o),
(73,628,o),
(80,628,cs),
(110,628,o),
(134,622,o),
(143,610,c),
(88,552,o),
(34,452,o),
(34,323,cs),
(34,126,o),
(155,-13,o),
(308,-13,cs)
);
}
);
width = 615;
},
{
layerId = "9E6FDE2E-55A6-44A9-9556-F1822294BF26";
shapes = (
{
closed = 1;
nodes = (
(627,-13,o),
(791,126,o),
(791,325,cs),
(791,461,o),
(714,551,o),
(633,610,c),
(650,623,o),
(674,629,o),
(706,629,cs),
(716,629,o),
(717,666,o),
(706,666,c),
(665,664,o),
(637,663,o),
(596,663,cs),
(576,663,o),
(564,655,o),
(564,634,cs),
(564,605,l),
(646,547,o),
(697,457,o),
(697,327,cs),
(697,167,o),
(618,23,o),
(416,23,cs),
(213,23,o),
(133,167,o),
(133,327,cs),
(133,457,o),
(185,547,o),
(267,605,c),
(266,628,ls),
(265,651,o),
(254,663,o),
(235,663,cs),
(192,663,o),
(151,664,o),
(108,666,c),
(97,666,o),
(97,629,o),
(108,629,cs),
(150,629,o),
(179,623,o),
(197,610,c),
(117,551,o),
(40,461,o),
(40,325,cs),
(40,126,o),
(205,-13,o),
(416,-13,cs)
);
}
);
width = 831;
},
{
layerId = "00F4936D-6309-4DEC-83B3-42806ED1A477";
shapes = (
{
closed = 1;
nodes = (
(532,-13,o),
(672,126,o),
(672,326,cs),
(672,457,o),
(609,552,o),
(544,610,c),
(557,624,o),
(577,628,o),
(604,628,cs),
(613,628,o),
(613,666,o),
(604,666,c),
(569,664,o),
(536,663,o),
(501,663,cs),
(484,663,o),
(474,655,o),
(474,634,cs),
(474,605,l),
(539,547,o),
(579,449,o),
(579,326,cs),
(579,128,o),
(476,23,o),
(356,23,cs),
(237,23,o),
(134,128,o),
(134,326,cs),
(134,449,o),
(173,547,o),
(238,605,c),
(237,628,ls),
(236,651,o),
(227,663,o),
(212,663,cs),
(172,663,o),
(133,665,o),
(94,666,c),
(85,666,o),
(85,628,o),
(94,628,cs),
(128,628,o),
(153,622,o),
(168,610,c),
(103,552,o),
(40,457,o),
(40,326,cs),
(40,126,o),
(181,-13,o),
(356,-13,cs)
);
}
);
width = 712;
}
);
metricLeft = O;
metricRight = O;
unicode = 433;
}
{
glyphname = uni01BA;
layers = (
{
guides = (
{
pos = (-182,-198);
showMeasurement = 1;
}
);
layerId = master01;
shapes = (
{
closed = 1;
nodes = (
(244,-226,o),
(313,-205,o),
(377,-150,cs),
(387,-143,o),
(372,-119,o),
(361,-124,cs),
(302,-155,o),
(254,-168,o),
(217,-168,cs),
(166,-168,o),
(100,-146,o),
(100,-83,cs),
(100,-36,o),
(152,-13,o),
(195,0,cs),
(271,23,o),
(354,50,o),
(354,108,cs),
(354,152,o),
(313,174,o),
(230,174,cs),
(191,174,o),
(188,179,o),
(203,191,cs),
(268,243,o),
(335,313,o),
(392,387,cs),
(398,396,o),
(398,417,o),
(378,417,c),
(354,416,o),
(323,415,o),
(284,415,cs),
(126,415,ls),
(105,415,o),
(76,419,o),
(38,426,c),
(30,426,o),
(28,419,o),
(27,409,cs),
(9,279,ls),
(8,273,o),
(21,270,o),
(23,276,cs),
(36,301,o),
(45,318,o),
(50,324,cs),
(63,339,o),
(85,346,o),
(115,346,cs),
(286,346,ls),
(297,346,o),
(299,334,o),
(292,326,cs),
(250,284,o),
(210,244,o),
(170,212,cs),
(119,171,o),
(76,143,o),
(42,126,cs),
(33,122,o),
(63,82,o),
(69,88,cs),
(106,125,o),
(152,144,o),
(206,144,cs),
(250,144,o),
(273,131,o),
(273,106,cs),
(273,69,o),
(243,56,o),
(189,35,cs),
(110,4,o),
(25,-35,o),
(25,-109,cs),
(25,-191,o),
(94,-226,o),
(177,-226,cs)
);
}
);
width = 392;
},
{
guides = (
{
angle = 180;
pos = (752,356);
}
);
layerId = "75918100-ED89-42A8-B0FE-888EB9C86810";
shapes = (
{
closed = 1;
nodes = (
(257,-226,o),
(327,-204,o),
(390,-150,cs),
(399,-143,o),
(376,-112,o),
(366,-117,cs),
(306,-148,o),
(267,-164,o),
(230,-164,cs),
(183,-164,o),
(123,-142,o),
(123,-83,cs),
(123,-36,o),
(168,-13,o),
(208,0,cs),
(284,25,o),
(366,50,o),
(366,108,cs),
(366,150,o),
(328,174,o),
(252,174,cs),
(212,174,o),
(205,178,o),
(220,190,cs),
(296,255,o),
(331,303,o),
(390,387,cs),
(397,397,o),
(396,417,o),
(376,417,c),
(346,416,o),
(319,415,o),
(282,415,cs),
(125,415,ls),
(104,415,o),
(75,418,o),
(36,426,c),
(30,426,o),
(26,421,o),
(25,409,cs),
(7,279,ls),
(6,273,o),
(16,272,o),
(18,276,cs),
(27,297,o),
(36,314,o),
(45,324,cs),
(58,339,o),
(79,346,o),
(109,346,cs),
(244,347,ls),
(256,347,o),
(258,339,o),
(250,327,cs),
(203,268,o),
(186,245,o),
(151,216,cs),
(110,181,o),
(77,157,o),
(52,144,cs),
(42,139,o),
(78,78,o),
(90,88,cs),
(124,115,o),
(160,130,o),
(199,130,cs),
(240,130,o),
(261,118,o),
(261,97,cs),
(261,65,o),
(236,53,o),
(192,36,cs),
(106,3,o),
(13,-35,o),
(13,-109,cs),
(13,-191,o),
(93,-226,o),
(189,-226,cs)
);
}
);
width = 391;
},
{
layerId = "6ABD9449-5E80-4451-809E-12ADEB9E9AB4";
shapes = (
{
closed = 1;
nodes = (
(246,-226,o),
(315,-204,o),
(378,-150,cs),
(388,-143,o),
(373,-119,o),
(362,-124,cs),
(303,-155,o),
(255,-168,o),
(218,-168,cs),
(167,-168,o),
(101,-146,o),
(101,-83,cs),
(101,-36,o),
(153,-13,o),
(196,0,cs),
(272,23,o),
(354,50,o),
(354,108,cs),
(354,152,o),
(313,174,o),
(231,174,cs),
(192,174,o),
(188,179,o),
(204,191,cs),
(269,243,o),
(336,313,o),
(393,387,cs),
(399,396,o),
(399,417,o),
(379,417,c),
(355,416,o),
(324,415,o),
(285,415,cs),
(127,415,ls),
(106,415,o),
(77,419,o),
(39,426,c),
(31,426,o),
(29,419,o),
(28,409,cs),
(10,279,ls),
(9,273,o),
(21,270,o),
(24,276,cs),
(37,301,o),
(46,318,o),
(51,324,cs),
(64,339,o),
(86,346,o),
(116,346,cs),
(287,346,ls),
(298,346,o),
(300,334,o),
(292,326,cs),
(250,284,o),
(211,244,o),
(171,212,cs),
(120,171,o),
(77,143,o),
(42,126,cs),
(34,122,o),
(64,82,o),
(70,88,cs),
(107,125,o),
(153,144,o),
(207,144,cs),
(251,144,o),
(274,131,o),
(274,106,cs),
(274,69,o),
(244,56,o),
(190,35,cs),
(111,4,o),
(26,-35,o),
(26,-109,cs),
(26,-191,o),
(95,-226,o),
(178,-226,cs)
);
}
);
width = 393;
},
{
guides = (
{
pos = (-179,-198);
showMeasurement = 1;
}
);
layerId = "70B83247-6FA0-4662-9656-C86DD2A17D3B";
shapes = (
{
closed = 1;
nodes = (
(212,-226,o),
(271,-205,o),
(326,-150,cs),
(333,-143,o),
(317,-117,o),
(310,-122,cs),
(257,-154,o),
(220,-167,o),
(189,-167,cs),
(148,-167,o),
(93,-145,o),
(93,-83,cs),
(93,-37,o),
(134,-14,o),
(171,0,cs),
(234,23,o),
(305,49,o),
(305,108,cs),
(305,151,o),
(271,174,o),
(204,174,cs),
(170,174,o),
(166,179,o),
(178,191,cs),
(237,247,o),
(279,307,o),
(333,387,cs),
(338,396,o),
(338,417,o),
(321,417,c),
(292,416,o),
(267,415,o),
(241,415,cs),
(107,415,ls),
(88,415,o),
(64,419,o),
(32,426,c),
(26,426,o),
(23,419,o),
(22,409,cs),
(7,279,ls),
(7,273,o),
(16,271,o),
(19,276,cs),
(28,300,o),
(36,316,o),
(42,324,cs),
(53,339,o),
(72,346,o),
(96,346,cs),
(229,346,ls),
(239,346,o),
(241,335,o),
(235,327,cs),
(199,280,o),
(174,247,o),
(139,213,cs),
(98,174,o),
(65,147,o),
(39,132,cs),
(32,127,o),
(59,81,o),
(66,88,cs),
(99,123,o),
(133,139,o),
(173,139,cs),
(210,139,o),
(229,127,o),
(229,103,cs),
(229,68,o),
(205,55,o),
(163,36,cs),
(93,4,o),
(18,-35,o),
(18,-109,cs),
(18,-191,o),
(80,-226,o),
(155,-226,cs)
);
}
);
width = 334;
},
{
layerId = "9E6FDE2E-55A6-44A9-9556-F1822294BF26";
shapes = (
{
closed = 1;
nodes = (
(275,-226,o),
(356,-205,o),
(430,-150,cs),
(440,-143,o),
(426,-121,o),
(414,-126,cs),
(347,-156,o),
(289,-170,o),
(246,-170,cs),
(185,-170,o),
(108,-146,o),
(108,-83,cs),
(108,-36,o),
(170,-13,o),
(220,0,cs),
(310,23,o),
(402,50,o),
(402,108,cs),
(402,152,o),
(354,174,o),
(258,174,cs),
(212,174,o),
(210,179,o),
(228,191,cs),
(299,239,o),
(391,320,o),
(451,387,cs),
(458,395,o),
(458,417,o),
(435,417,c),
(416,417,o),
(379,415,o),
(327,415,cs),
(146,415,ls),
(123,415,o),
(87,419,o),
(44,426,c),
(35,426,o),
(34,420,o),
(32,409,cs),
(11,279,ls),
(9,273,o),
(25,270,o),
(29,275,cs),
(44,302,o),
(56,319,o),
(60,323,cs),
(74,340,o),
(99,346,o),
(134,346,cs),
(342,346,ls),
(355,346,o),
(358,333,o),
(349,325,cs),
(300,289,o),
(248,241,o),
(202,210,cs),
(140,168,o),
(87,138,o),
(44,120,cs),
(35,117,o),
(67,83,o),
(72,88,cs),
(114,128,o),
(171,149,o),
(239,149,cs),
(292,149,o),
(318,136,o),
(318,110,cs),
(318,70,o),
(281,57,o),
(217,35,cs),
(127,5,o),
(33,-35,o),
(33,-109,cs),
(33,-191,o),
(108,-226,o),
(199,-226,cs)
);
}
);
width = 452;
},
{
guides = (
{
pos = (-182,-198);
showMeasurement = 1;
}
);
layerId = "00F4936D-6309-4DEC-83B3-42806ED1A477";
shapes = (
{
closed = 1;
nodes = (
(244,-226,o),
(313,-205,o),
(377,-150,cs),
(387,-143,o),
(372,-119,o),
(361,-124,cs),
(302,-155,o),
(254,-168,o),
(217,-168,cs),
(166,-168,o),
(100,-146,o),
(100,-83,cs),
(100,-36,o),
(152,-13,o),
(195,0,cs),
(271,23,o),
(354,50,o),
(354,108,cs),
(354,152,o),
(313,174,o),
(230,174,cs),
(191,174,o),
(188,179,o),
(203,191,cs),
(268,243,o),
(335,313,o),
(392,387,cs),
(398,396,o),
(398,417,o),
(378,417,c),
(354,416,o),
(323,415,o),
(284,415,cs),
(126,415,ls),
(105,415,o),
(76,419,o),
(38,426,c),
(30,426,o),
(28,419,o),
(27,409,cs),
(9,279,ls),
(8,273,o),
(21,270,o),
(23,276,cs),
(36,301,o),
(45,318,o),
(50,324,cs),
(63,339,o),
(85,346,o),
(115,346,cs),
(286,346,ls),
(297,346,o),
(299,334,o),
(292,326,cs),
(250,284,o),
(210,244,o),
(170,212,cs),
(119,171,o),
(76,143,o),
(42,126,cs),
(33,122,o),
(63,82,o),
(69,88,cs),
(106,125,o),
(152,144,o),
(206,144,cs),
(250,144,o),
(273,131,o),
(273,106,cs),
(273,69,o),
(243,56,o),
(189,35,cs),
(110,4,o),
(25,-35,o),
(25,-109,cs),
(25,-191,o),
(94,-226,o),
(177,-226,cs)
);
}
);
width = 392;
}
);
metricLeft = ezh;
metricRight = ezh;
unicode = 442;
}
{
glyphname = Tonefive;
layers = (
{
layerId = master01;
shapes = (
{
closed = 1;
nodes = (
(331,-9,o),
(443,96,o),
(443,240,cs),
(443,375,o),
(364,452,o),
(226,452,cs),
(210,452,o),
(194,451,o),
(179,449,c),
(179,621,l),
(244,621,ls),
(336,621,o),
(379,603,o),
(379,515,cs),
(379,502,o),
(420,503,o),
(420,515,cs),
(420,647,ls),
(420,660,o),
(412,663,o),
(381,663,cs),
(42,663,ls),
(33,663,o),
(34,625,o),
(42,625,cs),
(83,625,o),
(101,617,o),
(101,597,cs),
(101,382,ls),
(101,372,o),
(104,366,o),
(112,366,c),
(141,372,o),
(166,375,o),
(186,375,cs),
(291,375,o),
(359,308,o),
(359,204,cs),
(359,110,o),
(299,33,o),
(227,33,cs),
(201,33,o),
(174,43,o),
(150,64,cs),
(126,86,o),
(109,97,o),
(93,97,cs),
(71,97,o),
(54,79,o),
(54,55,cs),
(54,15,o),
(101,-9,o),
(177,-9,cs)
);
}
);
width = 491;
},
{
layerId = "75918100-ED89-42A8-B0FE-888EB9C86810";
shapes = (
{
closed = 1;
nodes = (
(337,-9,o),
(461,97,o),
(461,244,cs),
(461,370,o),
(373,452,o),
(237,452,cs),
(221,452,o),
(207,450,o),
(196,447,c),
(196,618,l),
(241,618,ls),
(357,618,o),
(389,599,o),
(389,515,cs),
(389,503,o),
(438,504,o),
(438,515,cs),
(438,647,ls),
(438,660,o),
(428,663,o),
(392,663,cs),
(36,663,ls),
(27,663,o),
(26,618,o),
(39,618,cs),
(66,618,o),
(78,609,o),
(78,589,cs),
(78,382,ls),
(78,366,o),
(87,363,o),
(98,363,c),
(128,371,o),
(157,375,o),
(179,375,cs),
(274,375,o),
(327,312,o),
(327,204,cs),
(327,109,o),
(283,45,o),
(218,45,cs),
(189,45,o),
(163,59,o),
(138,87,cs),
(122,104,o),
(106,113,o),
(87,113,cs),
(50,113,o),
(31,95,o),
(31,63,cs),
(31,19,o),
(85,-9,o),
(167,-9,cs)
);
}
);
width = 499;
},
{
layerId = "6ABD9449-5E80-4451-809E-12ADEB9E9AB4";
shapes = (
{
closed = 1;
nodes = (
(337,-9,o),
(445,95,o),
(445,238,cs),
(445,376,o),
(368,452,o),
(229,452,cs),
(214,452,o),
(197,452,o),
(180,449,c),
(180,622,l),
(252,622,ls),
(336,622,o),
(384,604,o),
(384,515,cs),
(384,501,o),
(422,502,o),
(422,515,cs),
(422,647,ls),
(422,660,o),
(414,663,o),
(384,663,cs),
(51,663,ls),
(43,663,o),
(44,628,o),
(50,628,cs),
(96,628,o),
(116,619,o),
(116,599,cs),
(116,382,ls),
(116,374,o),
(116,367,o),
(124,367,c),
(152,372,o),
(176,375,o),
(196,375,cs),
(304,375,o),
(377,306,o),
(377,204,cs),
(377,111,o),
(312,29,o),
(238,29,cs),
(212,29,o),
(186,38,o),
(162,57,cs),
(134,81,o),
(117,91,o),
(103,91,cs),
(86,91,o),
(70,73,o),
(70,53,cs),
(70,14,o),
(113,-9,o),
(188,-9,cs)
);
}
);
width = 498;
},
{
guides = (
{
pos = (392,1056);
showMeasurement = 1;
}
);
layerId = "70B83247-6FA0-4662-9656-C86DD2A17D3B";
shapes = (
{
closed = 1;
nodes = (
(277,-9,o),
(373,104,o),
(373,250,cs),
(373,375,o),
(306,452,o),
(196,452,cs),
(183,452,o),
(175,451,o),
(161,447,c),
(161,620,l),
(205,620,ls),
(280,620,o),
(319,608,o),
(319,515,cs),
(319,503,o),
(354,504,o),
(354,515,cs),
(354,647,ls),
(354,660,o),
(346,664,o),
(315,664,cs),
(42,664,ls),
(33,664,o),
(33,625,o),
(43,625,cs),
(70,625,o),
(82,617,o),
(82,597,cs),
(82,383,ls),
(82,370,o),
(87,365,o),
(97,365,c),
(120,372,o),
(143,375,o),
(160,375,cs),
(236,375,o),
(285,308,o),
(285,204,cs),
(285,108,o),
(244,39,o),
(188,39,cs),
(167,39,o),
(145,51,o),
(126,74,cs),
(110,95,o),
(96,104,o),
(82,104,cs),
(60,104,o),
(45,84,o),
(45,59,cs),
(45,18,o),
(87,-9,o),
(152,-9,cs)
);
}
);
width = 413;
},
{
layerId = "9E6FDE2E-55A6-44A9-9556-F1822294BF26";
shapes = (
{
closed = 1;
nodes = (
(385,-10,o),
(513,87,o),
(513,229,cs),
(513,374,o),
(421,451,o),
(254,451,cs),
(236,451,o),
(213,451,o),
(196,450,c),
(196,622,l),
(282,622,ls),
(391,622,o),
(440,598,o),
(440,514,cs),
(440,501,o),
(485,502,o),
(485,514,cs),
(485,646,ls),
(485,659,o),
(477,663,o),
(447,663,cs),
(41,663,ls),
(33,663,o),
(34,625,o),
(39,625,cs),
(95,625,o),
(119,617,o),
(119,597,cs),
(119,382,ls),
(119,375,o),
(120,366,o),
(126,366,c),
(161,372,o),
(189,374,o),
(212,374,cs),
(346,374,o),
(433,308,o),
(433,205,cs),
(433,113,o),
(354,28,o),
(266,28,cs),
(234,28,o),
(204,35,o),
(174,55,cs),
(141,78,o),
(121,90,o),
(104,90,cs),
(82,90,o),
(63,73,o),
(63,52,cs),
(63,13,o),
(114,-10,o),
(203,-10,cs)
);
}
);
width = 570;
},
{
layerId = "00F4936D-6309-4DEC-83B3-42806ED1A477";
shapes = (
{
closed = 1;
nodes = (
(331,-9,o),
(443,96,o),
(443,240,cs),
(443,375,o),
(364,452,o),
(226,452,cs),
(210,452,o),
(194,451,o),
(179,449,c),
(179,621,l),
(244,621,ls),
(336,621,o),
(379,603,o),
(379,515,cs),
(379,502,o),
(420,503,o),
(420,515,cs),
(420,647,ls),
(420,660,o),
(412,663,o),
(381,663,cs),
(42,663,ls),
(33,663,o),
(34,625,o),
(42,625,cs),
(83,625,o),
(101,617,o),
(101,597,cs),
(101,382,ls),
(101,372,o),
(104,366,o),
(112,366,c),
(141,372,o),
(166,375,o),
(186,375,cs),
(291,375,o),
(359,308,o),
(359,204,cs),
(359,110,o),
(299,33,o),
(227,33,cs),
(201,33,o),
(174,43,o),
(150,64,cs),
(126,86,o),
(109,97,o),
(93,97,cs),
(71,97,o),
(54,79,o),
(54,55,cs),
(54,15,o),
(101,-9,o),
(177,-9,cs)
);
}
);
width = 491;
}
);
metricLeft = F;
metricRight = S;
unicode = 444;
}
{
glyphname = uni01BE;
kernLeft = KO_t;
layers = (
{
guides = (
{
angle = 90;
pos = (193,674);
}
);
layerId = master01;
shapes = (
{
closed = 1;
nodes = (
(302,-12,o),
(366,34,o),
(366,118,cs),
(366,187,o),
(325,224,o),
(259,244,cs),
(193,263,o),
(169,275,o),
(169,352,cs),
(169,371,l),
(308,371,ls),
(317,371,o),
(317,415,o),
(308,415,cs),
(169,415,l),
(169,484,ls),
(169,490,o),
(163,493,o),
(153,493,cs),
(150,493,o),
(148,491,o),
(147,489,cs),
(132,451,o),
(82,393,o),
(39,393,cs),
(30,393,o),
(30,371,o),
(39,371,cs),
(94,371,l),
(94,306,ls),
(94,245,o),
(134,202,o),
(205,182,cs),
(275,162,o),
(309,136,o),
(309,89,cs),
(309,39,o),
(269,19,o),
(228,19,cs),
(196,19,o),
(167,31,o),
(140,66,cs),
(122,89,o),
(116,101,o),
(111,123,cs),
(110,127,o),
(107,130,o),
(99,130,cs),
(91,130,o),
(87,127,o),
(87,123,cs),
(87,65,o),
(90,41,o),
(97,17,c),
(125,-2,o),
(164,-12,o),
(208,-12,cs)
);
}
);
width = 408;
},
{
guides = (
{
angle = 90;
pos = (155,664);
}
);
layerId = "75918100-ED89-42A8-B0FE-888EB9C86810";
shapes = (
{
closed = 1;
nodes = (
(294,-11,o),
(370,33,o),
(370,125,cs),
(370,196,o),
(327,237,o),
(258,256,cs),
(190,274,o),
(178,295,o),
(178,349,cs),
(178,364,l),
(298,364,ls),
(307,364,o),
(307,415,o),
(298,415,cs),
(178,415,l),
(178,478,ls),
(178,486,o),
(162,494,o),
(140,494,cs),
(136,494,o),
(134,492,o),
(133,490,cs),
(118,447,o),
(74,400,o),
(34,400,cs),
(23,400,o),
(23,364,o),
(34,364,cs),
(76,364,l),
(76,299,ls),
(76,232,o),
(117,188,o),
(184,170,cs),
(250,152,o),
(276,122,o),
(276,88,cs),
(276,53,o),
(246,28,o),
(210,28,cs),
(185,28,o),
(160,40,o),
(135,70,cs),
(119,89,o),
(108,110,o),
(106,127,cs),
(106,132,o),
(99,135,o),
(86,135,cs),
(75,135,o),
(69,132,o),
(69,126,cs),
(69,76,o),
(74,40,o),
(83,18,c),
(114,-1,o),
(153,-11,o),
(200,-11,cs)
);
}
);
width = 393;
},
{
layerId = "6ABD9449-5E80-4451-809E-12ADEB9E9AB4";
shapes = (
{
closed = 1;
nodes = (
(307,-13,o),
(367,34,o),
(367,115,cs),
(367,183,o),
(326,221,o),
(261,240,cs),
(196,259,o),
(168,268,o),
(168,353,cs),
(168,374,l),
(313,374,ls),
(323,374,o),
(323,415,o),
(313,415,cs),
(168,415,l),
(168,486,ls),
(168,492,o),
(166,492,o),
(159,492,cs),
(156,492,o),
(154,491,o),
(153,488,cs),
(139,453,o),
(86,391,o),
(42,391,cs),
(33,391,o),
(33,374,o),
(42,374,c),
(102,374,l),
(102,309,ls),
(102,249,o),
(141,207,o),
(213,186,cs),
(286,165,o),
(322,140,o),
(322,89,cs),
(322,34,o),
(278,16,o),
(235,16,cs),
(201,16,o),
(171,28,o),
(143,65,cs),
(125,89,o),
(121,98,o),
(115,122,cs),
(114,126,o),
(112,128,o),
(105,128,cs),
(99,128,o),
(95,126,o),
(95,122,cs),
(95,62,o),
(97,41,o),
(104,17,c),
(130,-3,o),
(169,-13,o),
(212,-13,cs)
);
}
);
width = 398;
},
{
layerId = "70B83247-6FA0-4662-9656-C86DD2A17D3B";
shapes = (
{
closed = 1;
nodes = (
(244,-11,o),
(301,33,o),
(301,121,cs),
(301,192,o),
(267,231,o),
(212,250,cs),
(159,270,o),
(146,286,o),
(146,350,cs),
(146,367,l),
(247,367,ls),
(256,367,o),
(256,415,o),
(247,415,cs),
(146,415,l),
(146,480,ls),
(146,488,o),
(136,494,o),
(121,494,cs),
(118,494,o),
(117,492,o),
(116,489,cs),
(104,447,o),
(66,396,o),
(34,396,cs),
(25,396,o),
(25,367,o),
(34,367,c),
(71,367,l),
(71,302,ls),
(71,238,o),
(104,194,o),
(158,176,cs),
(213,157,o),
(235,128,o),
(235,89,cs),
(235,47,o),
(208,23,o),
(179,23,cs),
(157,23,o),
(136,36,o),
(115,68,cs),
(104,86,o),
(94,107,o),
(92,125,cs),
(92,129,o),
(90,132,o),
(79,132,cs),
(71,132,o),
(66,130,o),
(66,125,cs),
(66,77,o),
(69,42,o),
(77,18,c),
(100,-2,o),
(130,-11,o),
(168,-11,cs)
);
}
);
width = 325;
},
{
layerId = "9E6FDE2E-55A6-44A9-9556-F1822294BF26";
shapes = (
{
closed = 1;
nodes = (
(362,-13,o),
(433,34,o),
(433,114,cs),
(433,181,o),
(384,217,o),
(307,237,cs),
(229,257,o),
(193,264,o),
(193,353,cs),
(193,375,l),
(371,375,ls),
(380,375,o),
(380,415,o),
(371,415,cs),
(193,415,l),
(193,487,ls),
(193,493,o),
(192,492,o),
(186,492,cs),
(183,492,o),
(181,491,o),
(180,489,cs),
(163,455,o),
(98,390,o),
(45,390,cs),
(36,390,o),
(36,375,o),
(45,375,c),
(119,375,l),
(119,310,ls),
(119,251,o),
(165,210,o),
(253,188,cs),
(339,167,o),
(384,143,o),
(384,89,cs),
(384,31,o),
(331,15,o),
(278,15,cs),
(236,15,o),
(199,26,o),
(166,65,cs),
(142,92,o),
(140,94,o),
(132,121,cs),
(130,125,o),
(126,127,o),
(121,127,cs),
(113,127,o),
(110,125,o),
(110,122,cs),
(110,54,o),
(112,40,o),
(119,16,c),
(150,-3,o),
(198,-13,o),
(249,-13,cs)
);
}
);
width = 467;
},
{
guides = (
{
angle = 90;
pos = (194,674);
}
);
layerId = "00F4936D-6309-4DEC-83B3-42806ED1A477";
metricLeft = "=32";
metricWidth = "=408";
shapes = (
{
closed = 1;
nodes = (
(302,-12,o),
(366,34,o),
(366,118,cs),
(366,187,o),
(325,224,o),
(259,244,cs),
(193,263,o),
(169,275,o),
(169,352,cs),
(169,371,l),
(308,371,ls),
(317,371,o),
(317,415,o),
(308,415,cs),
(169,415,l),
(169,484,ls),
(169,490,o),
(163,493,o),
(153,493,cs),
(150,493,o),
(148,491,o),
(147,489,cs),
(132,451,o),
(82,393,o),
(39,393,cs),
(30,393,o),
(30,371,o),
(39,371,cs),
(94,371,l),
(94,306,ls),
(94,245,o),
(134,202,o),
(205,182,cs),
(275,162,o),
(309,136,o),
(309,89,cs),
(309,39,o),
(269,19,o),
(228,19,cs),
(196,19,o),
(167,31,o),
(140,66,cs),
(122,89,o),
(116,101,o),
(111,123,cs),
(110,127,o),
(107,130,o),
(99,130,cs),
(91,130,o),
(87,127,o),
(87,123,cs),
(87,65,o),
(90,41,o),
(97,17,c),
(125,-2,o),
(164,-12,o),
(208,-12,cs)
);
}
);
width = 408;
}
);
metricLeft = t;
unicode = 446;
}
